<?xml version="1.0" standalone="no"?>
<!DOCTYPE svg PUBLIC "-//W3C//DTD SVG 1.1//EN" "http://www.w3.org/Graphics/SVG/1.1/DTD/svg11.dtd" >
<svg>
<metadata>
Created by FontForge 20090622 at Wed Mar 14 18:59:08 2018
 By deploy user
Copyright (c) 2014 by Rui Abreu, Portugal. All rights reserved. Designed by Rui Abreu.
</metadata>
<defs>
<font id="Usual-Bold" horiz-adv-x="628" >
  <font-face 
    font-family="Usual"
    font-weight="700"
    font-stretch="normal"
    units-per-em="1000"
    panose-1="2 11 8 3 3 4 3 2 2 4"
    ascent="793"
    descent="-207"
    x-height="537"
    cap-height="768"
    bbox="-168 -200 1408 951"
    underline-thickness="50"
    underline-position="-50"
    unicode-range="U+000D-U+FB02"
  />
<missing-glyph horiz-adv-x="642" 
d="M149 604l131 131l213 -212l-101 -101l101 -100l-101 -101l101 -100l-132 -132l-212 213l100 100l-100 101l100 100z" />
    <glyph glyph-name="fi" unicode="fi" horiz-adv-x="672" 
d="M110 0v424h-95v113h95v59q0 183 194 183q38 0 82 -10v-115q-18 3 -37 3q-42 0 -58 -14.5t-16 -49.5v-56h336v-537h-165v424h-171v-424h-165zM444 628v140h169v-140h-169z" />
    <glyph glyph-name="fl" unicode="fl" horiz-adv-x="698" 
d="M110 0v424h-95v113h95v59q0 183 194 183q49 0 89 -11v-116q-20 5 -44 5q-41 0 -57 -14.5t-16 -49.5v-56h117v-113h-117v-424h-166zM637 0h-166v768h166v-768z" />
    <glyph glyph-name=".notdef" horiz-adv-x="642" 
d="M149 604l131 131l213 -212l-101 -101l101 -100l-101 -101l101 -100l-132 -132l-212 213l100 100l-100 101l100 100z" />
    <glyph glyph-name=".null" horiz-adv-x="0" 
 />
    <glyph glyph-name="nonmarkingreturn" horiz-adv-x="333" 
 />
    <glyph glyph-name="CR" unicode="&#xd;" horiz-adv-x="0" 
 />
    <glyph glyph-name="space" unicode=" " horiz-adv-x="275" 
 />
    <glyph glyph-name="exclam" unicode="!" horiz-adv-x="340" 
d="M98 230l-19 538h182l-19 -538h-144zM86 0v167h168v-167h-168z" />
    <glyph glyph-name="quotedbl" unicode="&#x22;" horiz-adv-x="445" 
d="M63 482l-16 286h145l-16 -286h-113zM268 482l-16 286h145l-16 -286h-113z" />
    <glyph glyph-name="numbersign" unicode="#" horiz-adv-x="650" 
d="M607 427h-90l-33 -120h89l-30 -106h-89l-57 -201h-136l57 201h-82l-57 -201h-134l57 201h-90l30 106h90l33 120h-89l30 106h89l57 201h136l-57 -201h82l57 201h134l-57 -201h90zM348 307l35 120h-82l-35 -120h82z" />
    <glyph glyph-name="dollar" unicode="$" horiz-adv-x="650" 
d="M585 615l-72 -110q-89 66 -190 66q-43 0 -66 -16.5t-23 -41.5q0 -31 29.5 -44t112.5 -30q39 -8 67 -16.5t59.5 -23.5t50.5 -34.5t32 -49t13 -67.5q0 -79 -53 -132t-150 -69v-115h-140v114q-123 14 -214 82l80 109q89 -72 203 -72q107 0 107 63q0 11 -3.5 19.5t-14 15.5
t-20 12t-30.5 10.5l-35.5 9t-45.5 9.5q-100 21 -158 64t-58 128q0 72 48.5 124.5t140.5 67.5v114h140v-113q105 -13 190 -74z" />
    <glyph glyph-name="percent" unicode="%" horiz-adv-x="1030" 
d="M234 305q-54 0 -91.5 18t-56.5 51t-26.5 69t-7.5 82q0 220 182 220q55 0 92.5 -18t56.5 -51t26.5 -69t7.5 -82t-7.5 -82t-26.5 -69t-56.5 -51t-92.5 -18zM364 0h-123l424 734h123zM234 394q27 0 42 21t18 46t3 64t-3 64t-18 46t-42 21t-41.5 -21t-17.5 -46t-3 -64t3 -64
t17.5 -46t41.5 -21zM794 429q55 0 92.5 -18t56.5 -51t26.5 -69t7.5 -82t-7.5 -82t-26.5 -69t-56.5 -51t-92.5 -18q-54 0 -91.5 18t-56.5 51t-26.5 69t-7.5 82q0 220 182 220zM794 340q-27 0 -41.5 -21t-17.5 -46t-3 -64t3 -64t17.5 -46t41.5 -21t42 21t18 46t3 64t-3 64
t-18 46t-42 21z" />
    <glyph glyph-name="ampersand" unicode="&#x26;" horiz-adv-x="777" 
d="M807 0h-197l-68 72q-84 -83 -225 -83q-138 0 -214.5 63.5t-76.5 163.5q0 151 166 223q-85 90 -85 166q0 75 61.5 124.5t179.5 49.5q109 0 170 -47t61 -125q0 -58 -34 -100.5t-105 -78.5l-29 -15l114 -119l49 116h163l-103 -230zM347 659q-34 0 -51 -18.5t-17 -47.5
q0 -44 52 -97q81 36 81 96q0 29 -16.5 48t-48.5 19zM445 173l-175 184q-67 -44 -67 -124q0 -52 32.5 -85.5t90.5 -33.5q71 0 119 59z" />
    <glyph glyph-name="quotesingle" unicode="'" horiz-adv-x="240" 
d="M63 482l-16 286h145l-16 -286h-113z" />
    <glyph glyph-name="parenleft" unicode="(" horiz-adv-x="367" 
d="M55 310q0 152 47 277t123 209l105 -65q-122 -184 -122 -421t122 -421l-105 -65q-76 84 -123 209t-47 277z" />
    <glyph glyph-name="parenright" unicode=")" horiz-adv-x="367" 
d="M311 310q0 -152 -47 -277t-123 -209l-105 65q122 184 122 421t-122 421l105 65q76 -84 123 -209t47 -277z" />
    <glyph glyph-name="asterisk" unicode="*" horiz-adv-x="467" 
d="M303 395l-66 111l-66 -111l-89 65l85 97l-126 29l34 104l118 -50l-11 128h109l-11 -128l118 50l34 -104l-126 -29l85 -97z" />
    <glyph glyph-name="plus" unicode="+" horiz-adv-x="615" 
d="M238 110v192h-186v120h186v192h139v-192h186v-120h-186v-192h-139z" />
    <glyph glyph-name="comma" unicode="," horiz-adv-x="323" 
d="M51 -147l36 303h167l-81 -303h-122z" />
    <glyph glyph-name="hyphen" unicode="-" horiz-adv-x="345" 
d="M45 229v138h254v-138h-254z" />
    <glyph glyph-name="period" unicode="." horiz-adv-x="323" 
d="M76 0v169h170v-169h-170z" />
    <glyph glyph-name="slash" unicode="/" horiz-adv-x="480" 
d="M475 793l-339 -817h-131l339 817h131z" />
    <glyph glyph-name="zero" unicode="0" horiz-adv-x="650" 
d="M326 -11q-71 0 -123.5 21t-84 55.5t-51 85.5t-26 102.5t-6.5 114.5t6.5 114t26 101.5t50.5 85t83.5 55.5t122.5 21q71 0 123.5 -21t84 -55.5t51 -85.5t26 -102.5t6.5 -114.5t-6.5 -114t-26 -101.5t-50.5 -85t-83.5 -55.5t-122.5 -21zM325 115q39 0 64.5 21t37 61t15 78
t3.5 92t-3.5 92t-15 78t-37 61t-64.5 21t-64.5 -21t-37 -61t-15 -78t-3.5 -92t3.5 -92t15 -78t37 -61t64.5 -21z" />
    <glyph glyph-name="one" unicode="1" horiz-adv-x="650" 
d="M97 0v127h170v445q-72 -47 -170 -75v135q122 36 198 102h141v-607h168v-127h-507z" />
    <glyph glyph-name="two" unicode="2" horiz-adv-x="650" 
d="M58 0v114l259 252q90 87 90 157q0 43 -27 69t-78 26q-46 0 -79 -21.5t-66 -63.5l-109 85q95 127 266 127q124 0 193.5 -59t69.5 -156q0 -115 -128 -236l-175 -165v-2h317v-127h-533z" />
    <glyph glyph-name="three" unicode="3" horiz-adv-x="650" 
d="M303 -11q-187 0 -274 121l112 87q62 -84 157 -84q60 0 92.5 27.5t32.5 73.5t-32.5 74.5t-87.5 28.5h-95v116h95q50 0 79 25.5t29 67.5q0 43 -29.5 69t-83.5 26q-86 0 -144 -75l-107 88q92 111 256 111q131 0 203 -56.5t72 -145.5q0 -56 -29.5 -97.5t-82.5 -62.5v-2
q127 -53 127 -177q0 -95 -76.5 -155t-213.5 -60z" />
    <glyph glyph-name="four" unicode="4" horiz-adv-x="650" 
d="M645 270v-118h-119v-152h-168v152h-343v95l341 487h170v-464h119zM179 270h179v253h-2z" />
    <glyph glyph-name="five" unicode="5" horiz-adv-x="650" 
d="M260 607l-11 -157q47 20 105 20q106 0 173.5 -63.5t67.5 -168.5q0 -111 -78 -180t-222 -69q-168 0 -256 103l106 97q64 -74 150 -74q60 0 95 33t35 88q0 56 -36.5 89.5t-97.5 33.5q-54 0 -92 -25h-124l31 400h449v-127h-295z" />
    <glyph glyph-name="six" unicode="6" horiz-adv-x="650" 
d="M582 702l-55 -118q-62 35 -131 35q-181 0 -191 -223h2q65 73 182 73q106 0 170 -66t64 -168q0 -109 -75 -177.5t-208 -68.5q-68 0 -121 20t-86 52.5t-54.5 79t-30 95.5t-8.5 106q0 63 10.5 119t36 109t64.5 91t101 61t141 23q107 0 189 -43zM341 114q53 0 84 32.5
t31 84.5t-30.5 85.5t-85.5 33.5q-52 0 -86 -29.5t-34 -81.5q0 -49 30.5 -87t90.5 -38z" />
    <glyph glyph-name="seven" unicode="7" horiz-adv-x="650" 
d="M171 0l251 607h-365v127h549v-73l-265 -661h-170z" />
    <glyph glyph-name="eight" unicode="8" horiz-adv-x="650" 
d="M324 -11q-138 0 -213.5 58t-75.5 153q0 125 130 176v2q-54 22 -84.5 65.5t-30.5 100.5q0 88 72.5 144t202.5 56t202.5 -56t72.5 -144q0 -57 -30.5 -99t-84.5 -64v-2q62 -25 96 -71t34 -108q0 -94 -76 -152.5t-215 -58.5zM325 427q49 0 79 27t30 70q0 42 -29 69t-80 27
t-80 -27t-29 -69q0 -43 30 -70t79 -27zM326 323q-54 0 -88 -30t-34 -78q0 -45 32 -73.5t89 -28.5t89 28.5t32 74.5q0 47 -33 77t-87 30z" />
    <glyph glyph-name="nine" unicode="9" horiz-adv-x="650" 
d="M73 26l50 123q59 -34 135 -34q175 0 183 226h-2q-59 -73 -179 -73q-102 0 -166 63.5t-64 165.5q0 111 75.5 179.5t206.5 68.5q68 0 120.5 -20.5t85 -54t53.5 -81t29 -96.5t8 -105q0 -62 -9.5 -116.5t-34.5 -107.5t-64.5 -91t-102.5 -61t-145 -23q-105 0 -179 37zM310 388
q50 0 83.5 28t33.5 80q0 50 -30.5 87t-86.5 37q-53 0 -83.5 -32t-30.5 -84t30 -84t84 -32z" />
    <glyph glyph-name="colon" unicode=":" horiz-adv-x="323" 
d="M76 368v169h170v-169h-170zM76 0v169h170v-169h-170z" />
    <glyph glyph-name="semicolon" unicode=";" horiz-adv-x="323" 
d="M76 368v169h170v-169h-170zM51 -147l36 303h167l-81 -303h-122z" />
    <glyph glyph-name="less" unicode="&#x3c;" horiz-adv-x="615" 
d="M46 314v96l523 207v-127l-334 -127v-2l334 -127v-127z" />
    <glyph glyph-name="equal" unicode="=" horiz-adv-x="615" 
d="M52 415v117h511v-117h-511zM52 192v117h511v-117h-511z" />
    <glyph glyph-name="greater" unicode="&#x3e;" horiz-adv-x="615" 
d="M569 410v-96l-523 -207v127l334 127v2l-334 127v127z" />
    <glyph glyph-name="question" unicode="?" horiz-adv-x="515" 
d="M379 387q-45 -40 -59.5 -66t-14.5 -75v-15h-144v29q0 76 19.5 113t80.5 94q32 30 46 52.5t14 52.5q0 36 -22 56.5t-61 20.5q-65 0 -118 -63l-93 99q87 94 229 94q106 0 169 -53t63 -145q0 -61 -26 -101.5t-83 -92.5zM148 0v167h169v-167h-169z" />
    <glyph glyph-name="at" unicode="@" horiz-adv-x="947" 
d="M475 -142q-198 0 -311.5 115.5t-113.5 293.5q0 85 28 159.5t80 131t134 89t183 32.5q199 0 312 -115.5t113 -293.5q0 -98 -49.5 -157.5t-134.5 -59.5q-95 0 -146 75h-2q-48 -75 -143 -75q-83 0 -132 60.5t-49 153.5t50 155.5t133 62.5t133 -65h2l5 56h111v-251
q0 -76 44 -76q30 0 47.5 30.5t17.5 89.5q0 62 -19 117.5t-56 100t-98 70.5t-138 26q-150 0 -230 -90t-80 -223q0 -62 19 -117.5t56 -100t98 -70.5t138 -26q109 0 189 52l46 -93q-104 -57 -237 -57zM463 149q43 0 66 33.5t23 87.5q0 53 -22.5 85.5t-63.5 32.5
q-42 0 -66 -33.5t-24 -86.5q0 -51 22.5 -85t64.5 -34z" />
    <glyph glyph-name="A" unicode="A" horiz-adv-x="777" 
d="M592 0l-57 168h-299l-57 -168h-177l280 768h212l281 -768h-183zM281 301h209l-103 307h-2z" />
    <glyph glyph-name="B" unicode="B" horiz-adv-x="720" 
d="M548 395v-2q69 -16 109 -63t40 -118q0 -100 -76 -156t-196 -56h-358v768h365q114 0 181 -53t67 -144q0 -63 -35.5 -109t-96.5 -67zM411 633h-169v-186h169q41 0 67 24t26 69q0 46 -26 69.5t-67 23.5zM242 135h185q41 0 67.5 24t26.5 70q0 47 -26.5 70.5t-67.5 23.5h-185
v-188z" />
    <glyph glyph-name="C" unicode="C" horiz-adv-x="733" 
d="M413 -11q-177 0 -276.5 109t-99.5 284q0 174 99.5 285.5t275.5 111.5q206 0 308 -165l-127 -83q-61 113 -175 113q-99 0 -151 -73.5t-52 -186.5t52 -186.5t154 -73.5q114 0 176 109l126 -79q-106 -165 -310 -165z" />
    <glyph glyph-name="D" unicode="D" horiz-adv-x="790" 
d="M67 0v768h288q101 0 178.5 -30.5t124 -84t70 -121t23.5 -146.5q0 -172 -102.5 -279t-289.5 -107h-292zM243 136h97q113 0 172.5 62t59.5 185q0 124 -61.5 186.5t-174.5 62.5h-93v-496z" />
    <glyph glyph-name="E" unicode="E" horiz-adv-x="642" 
d="M611 0h-544v768h537v-136h-362v-177h314v-135h-314v-184h369v-136z" />
    <glyph glyph-name="F" unicode="F" horiz-adv-x="620" 
d="M243 0h-176v768h534v-136h-358v-188h310v-135h-310v-309z" />
    <glyph glyph-name="G" unicode="G" horiz-adv-x="812" 
d="M423 425h329v-425h-154l-4 79h-2q-72 -90 -208 -90q-165 0 -256 110t-91 279q0 114 43.5 203.5t132.5 143.5t212 54q207 0 316 -155l-125 -87q-70 107 -186 107q-103 0 -159 -73.5t-56 -189.5q0 -117 52 -187.5t152 -70.5q73 0 119 41.5t46 114.5v13h-161v133z" />
    <glyph glyph-name="H" unicode="H" horiz-adv-x="790" 
d="M243 0h-176v768h176v-312h304v312h176v-768h-176v319h-304v-319z" />
    <glyph glyph-name="I" unicode="I" horiz-adv-x="310" 
d="M243 0h-176v768h176v-768z" />
    <glyph glyph-name="J" unicode="J" horiz-adv-x="467" 
d="M159 -11q-98 0 -173 47l64 121q52 -34 93 -34q42 0 63 26t21 69v550h176v-549q0 -104 -63 -167t-181 -63z" />
    <glyph glyph-name="K" unicode="K" horiz-adv-x="733" 
d="M522 0l-174 320h-105v-320h-176v768h176v-313h107l168 313h192l-211 -378l222 -390h-199z" />
    <glyph glyph-name="L" unicode="L" horiz-adv-x="615" 
d="M67 0v768h176v-630h358v-138h-534z" />
    <glyph glyph-name="M" unicode="M" horiz-adv-x="960" 
d="M659 768h234v-768h-174v507h-2l-165 -507h-148l-165 505h-2v-505h-170v768h237l177 -553h2z" />
    <glyph glyph-name="N" unicode="N" horiz-adv-x="812" 
d="M574 768h171v-768h-171l-334 516h-2v-516h-171v768h194l311 -496h2v496z" />
    <glyph glyph-name="O" unicode="O" horiz-adv-x="833" 
d="M37 384q0 174 99.5 284.5t280.5 110.5q180 0 279.5 -110t99.5 -285q0 -174 -99.5 -284.5t-280.5 -110.5q-180 0 -279.5 110t-99.5 285zM215 384q0 -113 52 -186.5t150 -73.5t149.5 73t51.5 187q0 113 -52 186.5t-150 73.5t-149.5 -73t-51.5 -187z" />
    <glyph glyph-name="P" unicode="P" horiz-adv-x="720" 
d="M67 768h349q121 0 201.5 -68t80.5 -186q0 -120 -80.5 -189.5t-204.5 -69.5h-170v-255h-176v768zM243 391h156q53 0 87 30.5t34 89.5t-34 90t-87 31h-156v-241z" />
    <glyph glyph-name="Q" unicode="Q" horiz-adv-x="833" 
d="M531 -148l-75 139q-26 -2 -40 -2q-180 0 -279.5 110t-99.5 285q0 174 99.5 284.5t280.5 110.5q180 0 279.5 -110t99.5 -285q0 -116 -45.5 -206.5t-132.5 -140.5l111 -185h-198zM215 384q0 -113 52 -186.5t150 -73.5t149.5 73t51.5 187q0 113 -52 186.5t-150 73.5
t-149.5 -73t-51.5 -187z" />
    <glyph glyph-name="R" unicode="R" horiz-adv-x="720" 
d="M514 0l-134 298h-137v-298h-176v768h360q115 0 186.5 -59.5t71.5 -164.5q0 -74 -37.5 -127t-102.5 -79l162 -338h-193zM243 632v-200h164q44 0 72.5 25.5t28.5 74.5t-28.5 74.5t-72.5 25.5h-164z" />
    <glyph glyph-name="S" unicode="S" horiz-adv-x="663" 
d="M329 -11q-195 0 -318 109l93 114q97 -89 228 -89q66 0 100 23.5t34 66.5q0 18 -8.5 31.5t-19.5 23t-37 18t-47 14t-62 14.5q-56 13 -95.5 28t-78 41t-58.5 66.5t-20 94.5q0 103 77.5 169t216.5 66q171 0 291 -98l-82 -117q-98 81 -211 81q-56 0 -86.5 -24t-30.5 -61
q0 -41 35.5 -58t132.5 -39q59 -13 99 -28t79.5 -41t59.5 -67t20 -97q0 -109 -82 -175t-230 -66z" />
    <glyph glyph-name="T" unicode="T" horiz-adv-x="698" 
d="M437 0h-176v630h-244v138h664v-138h-244v-630z" />
    <glyph glyph-name="U" unicode="U" horiz-adv-x="790" 
d="M554 272v496h172v-497q0 -135 -87.5 -208.5t-246.5 -73.5q-148 0 -238 73.5t-90 208.5v497h176v-496q0 -66 42.5 -107t113.5 -41q73 0 115.5 40t42.5 108z" />
    <glyph glyph-name="V" unicode="V" horiz-adv-x="742" 
d="M560 768h180l-268 -768h-200l-270 768h185l186 -567h2z" />
    <glyph glyph-name="W" unicode="W" horiz-adv-x="1095" 
d="M912 768h177l-216 -768h-189l-133 523h-2l-134 -523h-193l-216 768h184l138 -551h2l128 551h189l128 -545h2z" />
    <glyph glyph-name="X" unicode="X" horiz-adv-x="720" 
d="M717 0h-200l-158 269h-2l-160 -269h-194l241 389l-233 379h200l147 -252h2l149 252h194l-230 -372z" />
    <glyph glyph-name="Y" unicode="Y" horiz-adv-x="720" 
d="M530 768h189l-271 -467v-301h-176v299l-271 469h196l164 -303h2z" />
    <glyph glyph-name="Z" unicode="Z" horiz-adv-x="677" 
d="M41 632v136h594v-116l-381 -516h388v-136h-607v116l381 516h-375z" />
    <glyph glyph-name="bracketleft" unicode="[" horiz-adv-x="367" 
d="M72 -148v916h258v-110h-107v-696h107v-110h-258z" />
    <glyph glyph-name="backslash" unicode="\" horiz-adv-x="480" 
d="M344 -24l-339 817h131l339 -817h-131z" />
    <glyph glyph-name="bracketright" unicode="]" horiz-adv-x="367" 
d="M294 768v-916h-258v110h107v696h-107v110h258z" />
    <glyph glyph-name="asciicircum" unicode="^" horiz-adv-x="563" 
d="M42 342l180 390h118l179 -390h-135l-104 244h-2l-102 -244h-134z" />
    <glyph glyph-name="underscore" unicode="_" horiz-adv-x="515" 
d="M0 -166v98h515v-98h-515z" />
    <glyph glyph-name="grave" unicode="`" 
d="M269 606l-119 162h161l89 -162h-131z" />
    <glyph glyph-name="a" unicode="a" horiz-adv-x="585" 
d="M525 0h-153l-4 74h-2q-50 -85 -157 -85q-79 0 -126.5 46t-47.5 118q0 106 103 141q63 21 223 27v32q0 34 -22.5 54.5t-62.5 20.5q-73 0 -99 -67l-124 62q60 125 232 125q118 0 179 -50.5t61 -140.5v-357zM268 104q42 0 67.5 27t25.5 69v28q-61 -4 -100 -10
q-63 -10 -63 -56q0 -25 18.5 -41.5t51.5 -16.5z" />
    <glyph glyph-name="b" unicode="b" horiz-adv-x="650" 
d="M383 -11q-108 0 -169 86h-2l-4 -75h-146v768h166v-304h2q60 84 165 84q99 0 159.5 -78.5t60.5 -198.5t-63.5 -201t-168.5 -81zM333 112q54 0 84 43t30 113q0 69 -29 113t-84 44q-56 0 -84 -45t-28 -114t28.5 -111.5t82.5 -42.5z" />
    <glyph glyph-name="c" unicode="c" horiz-adv-x="558" 
d="M311 -11q-132 0 -205.5 77t-73.5 200q0 125 73 203.5t206 78.5q171 0 238 -134l-126 -67q-35 79 -106 79q-57 0 -87 -44t-30 -114t30.5 -113.5t88.5 -43.5q76 0 112 80l122 -66q-67 -136 -242 -136z" />
    <glyph glyph-name="d" unicode="d" horiz-adv-x="650" 
d="M258 -11q-103 0 -163 78t-60 198q0 122 62.5 202.5t164.5 80.5q96 0 158 -76h2v296h166v-768h-155l-3 77h-2q-61 -88 -170 -88zM315 112q55 0 84 43.5t29 113.5q0 72 -29 114t-84 42q-54 0 -83 -44t-29 -114q0 -67 29 -111t83 -44z" />
    <glyph glyph-name="e" unicode="e" horiz-adv-x="593" 
d="M198 320h205q-5 53 -28 81t-72 28q-94 0 -105 -109zM444 170l101 -86q-80 -95 -227 -95q-139 0 -212.5 75.5t-73.5 202.5q0 125 71.5 203t200.5 78q126 0 193 -73.5t67 -190.5q0 -40 -4 -63h-362q15 -113 125 -113q75 0 121 62z" />
    <glyph glyph-name="f" unicode="f" horiz-adv-x="410" 
d="M110 0v424h-95v113h95v59q0 183 194 183q49 0 89 -11v-116q-20 5 -44 5q-41 0 -57 -14.5t-16 -49.5v-56h117v-113h-117v-424h-166z" />
    <glyph glyph-name="g" unicode="g" horiz-adv-x="642" 
d="M581 537v-466q0 -131 -82.5 -198t-226.5 -67q-112 0 -204 45l45 113q76 -41 155 -41q147 0 147 142v31h-2q-58 -79 -160 -79q-100 0 -161 73t-61 187q0 115 63.5 193t164.5 78q106 0 170 -89h2l4 78h146zM309 134q53 0 82.5 41t29.5 107t-29.5 106t-81.5 40
q-53 0 -82 -41.5t-29 -106.5q0 -64 28.5 -105t81.5 -41z" />
    <glyph glyph-name="h" unicode="h" 
d="M61 0v768h166v-301h2q51 81 156 81q83 0 133 -49t50 -130v-369h-166v347q0 34 -20 55.5t-58 21.5q-45 0 -71 -27t-26 -70v-327h-166z" />
    <glyph glyph-name="i" unicode="i" horiz-adv-x="288" 
d="M59 628v140h170v-140h-170zM227 0h-166v537h166v-537z" />
    <glyph glyph-name="j" unicode="j" horiz-adv-x="288" 
d="M-15 -186v113q16 -2 25 -2q28 0 39.5 14t11.5 45v553h166v-575q0 -156 -170 -156q-37 0 -72 8zM59 628v140h170v-140h-170z" />
    <glyph glyph-name="k" unicode="k" horiz-adv-x="585" 
d="M389 0l-119 222h-43v-222h-166v768h166v-433h43l113 202h190l-162 -257l170 -280h-192z" />
    <glyph glyph-name="l" unicode="l" horiz-adv-x="288" 
d="M227 0h-166v768h166v-768z" />
    <glyph glyph-name="m" unicode="m" horiz-adv-x="947" 
d="M218 465h2q53 83 158 83q109 0 155 -81q56 81 166 81q85 0 136.5 -48.5t51.5 -127.5v-372h-166v353q0 32 -18.5 51.5t-55.5 19.5q-41 0 -65.5 -25.5t-24.5 -65.5v-333h-166v353q0 31 -19 51t-54 20q-42 0 -66.5 -25.5t-24.5 -65.5v-333h-166v537h154z" />
    <glyph glyph-name="n" unicode="n" 
d="M61 0v537h154l3 -74h2q54 85 161 85q85 0 136 -50t51 -133v-365h-166v347q0 34 -20.5 55.5t-57.5 21.5q-45 0 -71 -27t-26 -70v-327h-166z" />
    <glyph glyph-name="o" unicode="o" 
d="M314 -11q-134 0 -208 77.5t-74 200.5q0 124 74 202.5t208 78.5t208 -77.5t74 -201.5t-74 -202t-208 -78zM315 426q-56 0 -85.5 -43.5t-29.5 -114.5q0 -70 29 -113.5t84 -43.5q56 0 85.5 43.5t29.5 113.5q0 71 -29 114.5t-84 43.5z" />
    <glyph glyph-name="p" unicode="p" horiz-adv-x="650" 
d="M385 -11q-95 0 -156 75h-2v-247h-166v720h154l4 -77h2q66 88 166 88q105 0 166 -78t61 -200q0 -121 -63 -201t-166 -80zM333 112q55 0 84 43t29 113q0 68 -29 112.5t-83 44.5q-55 0 -84 -44t-29 -115q0 -70 29 -112t83 -42z" />
    <glyph glyph-name="q" unicode="q" horiz-adv-x="650" 
d="M268 548q107 0 169 -85h2l4 74h146v-720h-166v255h-2q-63 -83 -164 -83q-100 0 -160.5 78.5t-60.5 196.5q0 122 63.5 203t168.5 81zM319 425q-54 0 -84.5 -43.5t-30.5 -114.5q0 -68 29 -111.5t84 -43.5q56 0 84 43.5t28 113.5t-28 113t-82 43z" />
    <glyph glyph-name="r" unicode="r" horiz-adv-x="423" 
d="M61 0v537h154l4 -85h2q49 95 134 95q24 0 51 -9v-138q-24 4 -51 4q-60 0 -94 -31.5t-34 -77.5v-295h-166z" />
    <glyph glyph-name="s" unicode="s" horiz-adv-x="550" 
d="M270 -11q-147 0 -256 70l72 106q84 -61 186 -61q89 0 89 45q0 24 -27.5 34.5t-105.5 25.5q-89 17 -140 55t-51 111q0 75 59.5 124t175.5 49q135 0 239 -65l-65 -105q-84 55 -175 55q-34 0 -52.5 -11.5t-18.5 -28.5q0 -23 25 -33.5t99 -24.5q44 -9 74 -18.5t61.5 -27.5
t47.5 -47.5t16 -69.5q0 -84 -67 -133.5t-186 -49.5z" />
    <glyph glyph-name="t" unicode="t" horiz-adv-x="410" 
d="M5 424v113h96v170h164v-170h117v-113h-117v-241q0 -37 17 -55t62 -18q21 0 38 3v-113q-46 -11 -99 -11q-182 0 -182 162v273h-96z" />
    <glyph glyph-name="u" unicode="u" 
d="M567 537v-537h-154l-3 74h-2q-54 -85 -162 -85q-83 0 -134.5 50.5t-51.5 132.5v365h166v-343q0 -36 20.5 -58.5t59.5 -22.5q45 0 70 25t25 66v333h166z" />
    <glyph glyph-name="v" unicode="v" horiz-adv-x="585" 
d="M414 537h166l-200 -537h-175l-200 537h173l117 -370h2z" />
    <glyph glyph-name="w" unicode="w" horiz-adv-x="882" 
d="M709 537h163l-166 -537h-174l-90 332h-2l-92 -332h-173l-165 537h170l86 -354h2l90 354h174l89 -356h2z" />
    <glyph glyph-name="x" unicode="x" horiz-adv-x="558" 
d="M555 0h-179l-100 174h-2l-98 -174h-173l177 274l-168 263h179l92 -162h2l90 162h172l-168 -262z" />
    <glyph glyph-name="y" unicode="y" horiz-adv-x="585" 
d="M414 537h166l-212 -569q-31 -83 -77.5 -122.5t-128.5 -39.5q-38 0 -80 11v115q23 -7 47 -7q65 0 83 59l-207 553h173l117 -369h2z" />
    <glyph glyph-name="z" unicode="z" horiz-adv-x="537" 
d="M40 415v122h461v-104l-264 -311h271v-122h-473v104l264 311h-259z" />
    <glyph glyph-name="braceleft" unicode="{" horiz-adv-x="375" 
d="M11 251v118h24q40 0 54.5 14.5t14.5 56.5v180q0 77 39.5 118t119.5 41q56 0 92 -14v-99q-15 3 -36 3q-33 0 -48 -13.5t-15 -48.5v-179q0 -105 -102 -117v-2q102 -12 102 -117v-179q0 -35 15 -48.5t48 -13.5q21 0 36 3v-99q-36 -14 -92 -14q-80 0 -119.5 41t-39.5 118v180
q0 42 -14.5 56.5t-54.5 14.5h-24z" />
    <glyph glyph-name="bar" unicode="|" horiz-adv-x="332" 
d="M99 -183v1005h135v-1005h-135z" />
    <glyph glyph-name="braceright" unicode="}" horiz-adv-x="375" 
d="M363 369v-118h-24q-40 0 -54.5 -14.5t-14.5 -56.5v-180q0 -77 -39.5 -118t-119.5 -41q-56 0 -92 14v99q15 -3 36 -3q33 0 48 13.5t15 48.5v179q0 105 102 117v2q-102 12 -102 117v179q0 35 -15 48.5t-48 13.5q-21 0 -36 -3v99q36 14 92 14q80 0 119.5 -41t39.5 -118v-180
q0 -42 14.5 -56.5t54.5 -14.5h24z" />
    <glyph glyph-name="asciitilde" unicode="~" horiz-adv-x="585" 
d="M139 281h-87q0 80 32.5 121t92.5 41q43 0 119.5 -27.5t100.5 -27.5q48 0 48 55h87q0 -80 -32.5 -121t-92.5 -41q-43 0 -120 27.5t-101 27.5q-47 0 -47 -55z" />
    <glyph glyph-name="uni00A0" unicode="&#xa0;" horiz-adv-x="275" 
 />
    <glyph glyph-name="exclamdown" unicode="&#xa1;" horiz-adv-x="340" 
d="M254 585v-167h-168v167h168zM242 355l19 -538h-182l19 538h144z" />
    <glyph glyph-name="cent" unicode="&#xa2;" horiz-adv-x="650" 
d="M471 290l122 -66q-54 -109 -182 -131v-117h-140v121q-95 21 -147 93.5t-52 174.5q0 104 51.5 177.5t147.5 95.5v120h140v-116q123 -20 178 -129l-126 -67q-35 79 -106 79q-57 0 -87 -44t-30 -114t30.5 -113.5t88.5 -43.5q76 0 112 80z" />
    <glyph glyph-name="sterling" unicode="&#xa3;" horiz-adv-x="650" 
d="M46 0v127h78v176h-78v121h78v88q0 106 68 169.5t192 63.5q139 0 233 -91l-92 -104q-66 64 -133 64q-100 0 -100 -110v-80h189v-121h-189v-176h322v-127h-568z" />
    <glyph glyph-name="currency" unicode="&#xa4;" horiz-adv-x="650" 
d="M587 546l-76 -76q26 -47 26 -105t-26 -105l76 -76l-89 -87l-74 78q-44 -23 -99 -23t-99 23l-74 -78l-89 87l75 76q-26 47 -26 105t26 105l-75 76l89 87l74 -78q44 23 99 23t99 -23l74 78zM229 365q0 -48 27 -80t69 -32t69 32t27 80t-27 80t-69 32t-69 -32t-27 -80z" />
    <glyph glyph-name="yen" unicode="&#xa5;" horiz-adv-x="650" 
d="M646 734l-177 -284h115v-104h-175v-65h175v-104h-175v-177h-167v177h-175v104h175v65h-175v104h113l-177 284h186l141 -247h2l139 247h175z" />
    <glyph glyph-name="brokenbar" unicode="&#xa6;" horiz-adv-x="332" 
d="M99 429v393h135v-393h-135zM99 -183v393h135v-393h-135z" />
    <glyph glyph-name="section" unicode="&#xa7;" horiz-adv-x="650" 
d="M564 690l-83 -98q-77 69 -153 69q-36 0 -55.5 -16t-19.5 -42q0 -30 25 -43t91 -29q49 -12 82.5 -24.5t68.5 -35t53 -59t18 -85.5q0 -87 -64 -134q47 -42 47 -114q0 -85 -67.5 -137t-187.5 -52q-154 0 -258 91l82 98q78 -71 175 -71q90 0 90 60q0 31 -27.5 45t-98.5 32
q-49 12 -82.5 24.5t-66.5 35t-50 57.5t-17 83q0 89 67 137q-47 42 -47 113q0 82 61.5 133t178.5 51q139 0 238 -89zM221 357q0 -17 7.5 -30t16 -21t32 -17t38 -13l51.5 -14l41 -11q29 23 29 65q0 41 -34 60.5t-115 38.5l-33 9q-33 -22 -33 -67z" />
    <glyph glyph-name="dieresis" unicode="&#xa8;" 
d="M354 620v134h133v-134h-133zM141 620v134h133v-134h-133z" />
    <glyph glyph-name="copyright" unicode="&#xa9;" horiz-adv-x="833" 
d="M416 0q-176 0 -275 105t-99 262t99 262t275 105t275 -105t99 -262t-99 -262t-275 -105zM416 99q129 0 197 77t68 191t-68 191t-197 77t-197 -77t-68 -191t68 -191t197 -77zM426 162q-98 0 -153 56.5t-55 147.5q0 90 54.5 148t153.5 58q103 0 161 -73l-76 -64
q-35 46 -81 46q-43 0 -65 -32t-22 -83t23.5 -82.5t67.5 -31.5q50 0 81 46l75 -66q-60 -70 -164 -70z" />
    <glyph glyph-name="ordfeminine" unicode="&#xaa;" horiz-adv-x="402" 
d="M137 408q-53 0 -84 30.5t-31 79.5q0 66 61 90q42 16 153 20v23q0 39 -45 39t-66 -40l-91 49q47 80 163 80q82 0 123 -33t41 -94v-237h-115l-1 46h-2q-31 -53 -106 -53zM182 491q25 0 39.5 15.5t14.5 40.5v17q-36 -2 -57 -6q-37 -6 -37 -33q0 -34 40 -34z" />
    <glyph glyph-name="guillemotleft" unicode="&#xab;" horiz-adv-x="593" 
d="M179 82l-146 199l146 199h142l-145 -199l145 -199h-142zM405 82l-146 199l146 199h142l-145 -199l145 -199h-142z" />
    <glyph glyph-name="logicalnot" unicode="&#xac;" horiz-adv-x="615" 
d="M52 302v120h511v-312h-139v192h-372z" />
    <glyph glyph-name="uni00AD" unicode="&#xad;" horiz-adv-x="345" 
d="M45 229v138h254v-138h-254z" />
    <glyph glyph-name="registered" unicode="&#xae;" horiz-adv-x="458" 
d="M228 779q83 0 139 -56t56 -137t-56 -137t-139 -56t-139 56t-56 137t56 137t139 56zM228 435q64 0 107 44t43 107t-43 107t-107 44t-107 -44t-43 -107t43 -107t107 -44zM152 683h96q28 0 46.5 -15.5t18.5 -43.5q0 -43 -39 -57l46 -78h-55l-40 74h-26v-74h-47v194zM199 646
v-50h37q29 0 29 25t-29 25h-37z" />
    <glyph glyph-name="macron" unicode="&#xaf;" 
d="M153 640v94h322v-94h-322z" />
    <glyph glyph-name="degree" unicode="&#xb0;" horiz-adv-x="367" 
d="M183 451q-66 0 -108.5 42t-42.5 105t42.5 105t108.5 42t108.5 -42t42.5 -105t-42.5 -105t-108.5 -42zM183 523q30 0 49 21.5t19 53.5t-19 53.5t-49 21.5t-49 -21.5t-19 -53.5t19 -53.5t49 -21.5z" />
    <glyph glyph-name="plusminus" unicode="&#xb1;" horiz-adv-x="615" 
d="M238 234v160h-172v120h172v160h139v-160h171v-120h-171v-160h-139zM66 51v120h482v-120h-482z" />
    <glyph glyph-name="two.superior" unicode="&#xb2;" horiz-adv-x="410" 
d="M34 420v77l162 150q51 47 51 83q0 23 -15 37t-44 14q-45 0 -87 -50l-73 59q63 75 168 75q79 0 124.5 -36t45.5 -95q0 -64 -82 -138l-100 -89v-2h190v-85h-340z" />
    <glyph glyph-name="three.superior" unicode="&#xb3;" horiz-adv-x="410" 
d="M190 413q-120 0 -175 73l80 60q38 -50 92 -50q33 0 51 15t18 39q0 25 -17.5 40t-47.5 15h-64v77h63q28 0 43.5 13.5t15.5 36.5q0 22 -16 36t-45 14q-48 0 -88 -45l-74 60q63 68 163 68q86 0 132 -34t46 -88q0 -64 -68 -94v-2q77 -30 77 -104q0 -58 -48.5 -94t-137.5 -36z
" />
    <glyph glyph-name="acute" unicode="&#xb4;" 
d="M476 768l-119 -162h-128l89 162h158z" />
    <glyph glyph-name="mu" unicode="&#xb5;" 
d="M401 537h166v-537h-154l-3 74h-2q-53 -85 -158 -85q-17 0 -26 1l16 -173h-179v720h166v-343q0 -36 20.5 -58.5t59.5 -22.5q44 0 69 24.5t25 65.5v334z" />
    <glyph glyph-name="paragraph" unicode="&#xb6;" horiz-adv-x="663" 
d="M55 525q0 119 70.5 181t198.5 62h296v-112h-89v-804h-136v804h-65v-368q-144 0 -209.5 63.5t-65.5 173.5z" />
    <glyph glyph-name="periodcentered" unicode="&#xb7;" horiz-adv-x="323" 
d="M76 213v169h170v-169h-170z" />
    <glyph glyph-name="cedilla" unicode="&#xb8;" 
d="M350 29l-17 -54q96 -14 96 -73q0 -37 -35 -60.5t-103 -23.5q-53 0 -94 12l12 59q32 -6 49 -6q40 0 40 24t-48 32l28 90h72z" />
    <glyph glyph-name="one.superior" unicode="&#xb9;" horiz-adv-x="410" 
d="M62 420v85h102v239q-43 -26 -102 -42v95q77 23 119 61h103v-353h103v-85h-325z" />
    <glyph glyph-name="ordmasculine" unicode="&#xba;" horiz-adv-x="445" 
d="M223 408q-95 0 -147.5 51t-52.5 133q0 84 52 135.5t147 51.5t147 -51t52 -133q0 -83 -51.5 -135t-146.5 -52zM223 689q-36 0 -54 -26.5t-18 -69.5t18 -69t53 -26t53 26.5t18 69.5t-17.5 69t-52.5 26z" />
    <glyph glyph-name="guillemotright" unicode="&#xbb;" horiz-adv-x="593" 
d="M187 480l146 -199l-146 -199h-142l145 199l-145 199h142zM413 480l146 -199l-146 -199h-142l145 199l-145 199h142z" />
    <glyph glyph-name="onequarter" unicode="&#xbc;" horiz-adv-x="995" 
d="M361 0h-125l428 734h125zM988 165v-78h-77v-87h-118v87h-214v62l218 289h114v-273h77zM693 165h100v131h-2zM55 296v85h102v239q-43 -26 -102 -42v95q77 23 119 61h103v-353h103v-85h-325z" />
    <glyph glyph-name="onehalf" unicode="&#xbd;" horiz-adv-x="1038" 
d="M654 0v77l162 150q51 47 51 83q0 23 -15 37t-44 14q-45 0 -87 -50l-73 59q63 75 168 75q79 0 124.5 -36t45.5 -95q0 -64 -82 -138l-100 -89v-2h190v-85h-340zM361 0h-125l428 734h125zM55 296v85h102v239q-43 -26 -102 -42v95q77 23 119 61h103v-353h103v-85h-325z" />
    <glyph glyph-name="threequarters" unicode="&#xbe;" horiz-adv-x="995" 
d="M183 289q-120 0 -175 73l80 60q37 -50 92 -50q33 0 51 15t18 39q0 25 -17.5 40t-47.5 15h-64v77h63q28 0 43.5 13.5t15.5 36.5q0 22 -16 36t-45 14q-48 0 -88 -45l-74 60q63 68 163 68q86 0 132 -34t46 -88q0 -64 -68 -94v-2q77 -30 77 -104q0 -58 -48.5 -94t-137.5 -36z
M361 0h-125l428 734h125zM988 165v-78h-77v-87h-118v87h-214v62l218 289h114v-273h77zM693 165h100v131h-2z" />
    <glyph glyph-name="questiondown" unicode="&#xbf;" horiz-adv-x="515" 
d="M367 585v-167h-168v167h168zM137 198q45 41 59.5 66.5t14.5 74.5v15h144v-29q0 -76 -19.5 -113t-80.5 -94q-32 -30 -46 -52.5t-14 -52.5q0 -37 22 -57t61 -20q65 0 118 63l92 -99q-85 -94 -228 -94q-106 0 -169 53t-63 145q0 61 26 101.5t83 92.5z" />
    <glyph glyph-name="Agrave" unicode="&#xc0;" horiz-adv-x="777" 
d="M592 0l-57 168h-299l-57 -168h-177l280 768h212l281 -768h-183zM281 301h209l-103 307h-2zM338 814l-121 137h166l90 -137h-135z" />
    <glyph glyph-name="Aacute" unicode="&#xc1;" horiz-adv-x="777" 
d="M592 0l-57 168h-299l-57 -168h-177l280 768h212l281 -768h-183zM281 301h209l-103 307h-2zM553 951l-121 -137h-138l91 137h168z" />
    <glyph glyph-name="Acircumflex" unicode="&#xc2;" horiz-adv-x="777" 
d="M592 0l-57 168h-299l-57 -168h-177l280 768h212l281 -768h-183zM281 301h209l-103 307h-2zM180 814l136 137h136l135 -137h-139l-65 70l-65 -70h-138z" />
    <glyph glyph-name="Atilde" unicode="&#xc3;" horiz-adv-x="777" 
d="M592 0l-57 168h-299l-57 -168h-177l280 768h212l281 -768h-183zM281 301h209l-103 307h-2zM294 951q39 0 98 -22t80 -22q38 0 39 42h76q-2 -61 -32.5 -98t-80.5 -37q-39 0 -98 22t-80 22q-38 0 -39 -42h-76q2 62 32 98.5t81 36.5z" />
    <glyph glyph-name="Adieresis" unicode="&#xc4;" horiz-adv-x="777" 
d="M592 0l-57 168h-299l-57 -168h-177l280 768h212l281 -768h-183zM281 301h209l-103 307h-2zM430 818v129h137v-129h-137zM201 818v129h137v-129h-137z" />
    <glyph glyph-name="Aring" unicode="&#xc5;" horiz-adv-x="777" 
d="M592 0l-57 168h-299l-57 -168h-177l276 756q-26 31 -26 75q0 52 36.5 86t94.5 34q60 0 96.5 -34t36.5 -86q0 -39 -20 -68l279 -763h-183zM281 301h209l-103 307h-2zM383 891q-25 0 -38 -17t-13 -43q0 -27 13.5 -44t39.5 -17q25 0 38 17t13 44q0 26 -13.5 43t-39.5 17z
" />
    <glyph glyph-name="AE" unicode="&#xc6;" horiz-adv-x="1017" 
d="M640 136h346v-136h-520v168h-218l-76 -168h-183l369 768h621v-136h-339v-177h291v-135h-291v-184zM308 301h158v343l-2 1z" />
    <glyph glyph-name="Ccedilla" unicode="&#xc7;" horiz-adv-x="733" 
d="M367 -182q-53 0 -94 12l12 59q32 -6 49 -6q41 0 41 24t-49 32l18 59q-145 18 -226 123.5t-81 261.5q0 174 99.5 285t275.5 111q206 0 308 -165l-127 -83q-61 113 -175 113q-99 0 -151 -73.5t-52 -185.5q0 -113 52 -186t154 -73q115 0 176 109l126 -79
q-104 -163 -308 -163l-6 -18q96 -13 96 -73q0 -37 -34.5 -60.5t-103.5 -23.5z" />
    <glyph glyph-name="Egrave" unicode="&#xc8;" horiz-adv-x="642" 
d="M611 0h-544v768h537v-136h-362v-177h314v-135h-314v-184h369v-136zM297 814l-121 137h166l90 -137h-135z" />
    <glyph glyph-name="Eacute" unicode="&#xc9;" horiz-adv-x="642" 
d="M611 0h-544v768h537v-136h-362v-177h314v-135h-314v-184h369v-136zM512 951l-121 -137h-138l91 137h168z" />
    <glyph glyph-name="Ecircumflex" unicode="&#xca;" horiz-adv-x="642" 
d="M611 0h-544v768h537v-136h-362v-177h314v-135h-314v-184h369v-136zM139 814l136 137h136l135 -137h-139l-65 70l-65 -70h-138z" />
    <glyph glyph-name="Edieresis" unicode="&#xcb;" horiz-adv-x="642" 
d="M611 0h-544v768h537v-136h-362v-177h314v-135h-314v-184h369v-136zM389 818v129h137v-129h-137zM160 818v129h137v-129h-137z" />
    <glyph glyph-name="Igrave" unicode="&#xcc;" horiz-adv-x="310" 
d="M243 0h-176v768h176v-768zM109 814l-121 137h166l90 -137h-135z" />
    <glyph glyph-name="Iacute" unicode="&#xcd;" horiz-adv-x="310" 
d="M243 0h-176v768h176v-768zM324 951l-121 -137h-138l91 137h168z" />
    <glyph glyph-name="Icircumflex" unicode="&#xce;" horiz-adv-x="310" 
d="M243 0h-176v768h176v-768zM-49 814l136 137h136l135 -137h-139l-65 70l-65 -70h-138z" />
    <glyph glyph-name="Idieresis" unicode="&#xcf;" horiz-adv-x="310" 
d="M243 0h-176v768h176v-768zM201 818v129h137v-129h-137zM-28 818v129h137v-129h-137z" />
    <glyph glyph-name="Eth" unicode="&#xd0;" horiz-adv-x="790" 
d="M67 0v327h-77v125h77v316h288q101 0 178.5 -30.5t124 -84t70 -121t23.5 -146.5q0 -172 -102.5 -279t-289.5 -107h-292zM243 136h97q113 0 172.5 62t59.5 185q0 124 -61.5 186.5t-174.5 62.5h-93v-180h146v-125h-146v-191z" />
    <glyph glyph-name="Ntilde" unicode="&#xd1;" horiz-adv-x="812" 
d="M574 768h171v-768h-171l-334 516h-2v-516h-171v768h194l311 -496h2v496zM317 951q39 0 98 -22t80 -22q38 0 39 42h76q-2 -61 -32.5 -98t-80.5 -37q-39 0 -98 22t-80 22q-38 0 -39 -42h-76q2 62 32 98.5t81 36.5z" />
    <glyph glyph-name="Ograve" unicode="&#xd2;" horiz-adv-x="833" 
d="M37 384q0 174 99.5 284.5t280.5 110.5q180 0 279.5 -110t99.5 -285q0 -174 -99.5 -284.5t-280.5 -110.5q-180 0 -279.5 110t-99.5 285zM215 384q0 -113 52 -186.5t150 -73.5t149.5 73t51.5 187q0 113 -52 186.5t-150 73.5t-149.5 -73t-51.5 -187zM370 814l-121 137h166
l90 -137h-135z" />
    <glyph glyph-name="Oacute" unicode="&#xd3;" horiz-adv-x="833" 
d="M37 384q0 174 99.5 284.5t280.5 110.5q180 0 279.5 -110t99.5 -285q0 -174 -99.5 -284.5t-280.5 -110.5q-180 0 -279.5 110t-99.5 285zM215 384q0 -113 52 -186.5t150 -73.5t149.5 73t51.5 187q0 113 -52 186.5t-150 73.5t-149.5 -73t-51.5 -187zM585 951l-121 -137h-138
l91 137h168z" />
    <glyph glyph-name="Ocircumflex" unicode="&#xd4;" horiz-adv-x="833" 
d="M37 384q0 174 99.5 284.5t280.5 110.5q180 0 279.5 -110t99.5 -285q0 -174 -99.5 -284.5t-280.5 -110.5q-180 0 -279.5 110t-99.5 285zM215 384q0 -113 52 -186.5t150 -73.5t149.5 73t51.5 187q0 113 -52 186.5t-150 73.5t-149.5 -73t-51.5 -187zM212 814l136 137h136
l135 -137h-139l-65 70l-65 -70h-138z" />
    <glyph glyph-name="Otilde" unicode="&#xd5;" horiz-adv-x="833" 
d="M37 384q0 174 99.5 284.5t280.5 110.5q180 0 279.5 -110t99.5 -285q0 -174 -99.5 -284.5t-280.5 -110.5q-180 0 -279.5 110t-99.5 285zM215 384q0 -113 52 -186.5t150 -73.5t149.5 73t51.5 187q0 113 -52 186.5t-150 73.5t-149.5 -73t-51.5 -187zM326 951q39 0 98 -22
t80 -22q38 0 39 42h76q-2 -61 -32.5 -98t-80.5 -37q-39 0 -98 22t-80 22q-38 0 -39 -42h-76q2 62 32 98.5t81 36.5z" />
    <glyph glyph-name="Odieresis" unicode="&#xd6;" horiz-adv-x="833" 
d="M37 384q0 174 99.5 284.5t280.5 110.5q180 0 279.5 -110t99.5 -285q0 -174 -99.5 -284.5t-280.5 -110.5q-180 0 -279.5 110t-99.5 285zM215 384q0 -113 52 -186.5t150 -73.5t149.5 73t51.5 187q0 113 -52 186.5t-150 73.5t-149.5 -73t-51.5 -187zM462 818v129h137v-129
h-137zM233 818v129h137v-129h-137z" />
    <glyph glyph-name="multiply" unicode="&#xd7;" horiz-adv-x="615" 
d="M165 130l-90 90l142 142l-142 142l90 90l142 -142l142 142l90 -90l-142 -142l142 -142l-90 -90l-142 142z" />
    <glyph glyph-name="Oslash" unicode="&#xd8;" horiz-adv-x="833" 
d="M788 759l-81 -102q89 -106 89 -273q0 -174 -99.5 -284.5t-280.5 -110.5q-116 0 -201 48l-79 -100l-91 72l81 102q-89 106 -89 273q0 174 99.5 284.5t280.5 110.5q116 0 201 -48l79 100zM237 251l287 362q-46 32 -108 32q-99 0 -150.5 -73t-51.5 -188q0 -73 23 -133z
M596 517l-287 -362q46 -32 108 -32q99 0 150.5 73t51.5 188q0 73 -23 133z" />
    <glyph glyph-name="Ugrave" unicode="&#xd9;" horiz-adv-x="790" 
d="M554 272v496h172v-497q0 -135 -87.5 -208.5t-246.5 -73.5q-148 0 -238 73.5t-90 208.5v497h176v-496q0 -66 42.5 -107t113.5 -41q73 0 115.5 40t42.5 108zM353 814l-121 137h166l90 -137h-135z" />
    <glyph glyph-name="Uacute" unicode="&#xda;" horiz-adv-x="790" 
d="M554 272v496h172v-497q0 -135 -87.5 -208.5t-246.5 -73.5q-148 0 -238 73.5t-90 208.5v497h176v-496q0 -66 42.5 -107t113.5 -41q73 0 115.5 40t42.5 108zM568 951l-121 -137h-138l91 137h168z" />
    <glyph glyph-name="Ucircumflex" unicode="&#xdb;" horiz-adv-x="790" 
d="M554 272v496h172v-497q0 -135 -87.5 -208.5t-246.5 -73.5q-148 0 -238 73.5t-90 208.5v497h176v-496q0 -66 42.5 -107t113.5 -41q73 0 115.5 40t42.5 108zM195 814l136 137h136l135 -137h-139l-65 70l-65 -70h-138z" />
    <glyph glyph-name="Udieresis" unicode="&#xdc;" horiz-adv-x="790" 
d="M554 272v496h172v-497q0 -135 -87.5 -208.5t-246.5 -73.5q-148 0 -238 73.5t-90 208.5v497h176v-496q0 -66 42.5 -107t113.5 -41q73 0 115.5 40t42.5 108zM445 818v129h137v-129h-137zM216 818v129h137v-129h-137z" />
    <glyph glyph-name="Yacute" unicode="&#xdd;" horiz-adv-x="720" 
d="M530 768h189l-271 -467v-301h-176v299l-271 469h196l164 -303h2zM534 951l-121 -137h-138l91 137h168z" />
    <glyph glyph-name="Thorn" unicode="&#xde;" horiz-adv-x="720" 
d="M243 644h173q121 0 201.5 -68t80.5 -186q0 -120 -80.5 -189.5t-204.5 -69.5h-170v-131h-176v768h176v-124zM243 267h143q63 0 98.5 31.5t35.5 88.5q0 58 -36.5 89.5t-98.5 31.5h-142v-241z" />
    <glyph glyph-name="germandbls" unicode="&#xdf;" horiz-adv-x="677" 
d="M227 0h-166v584q0 88 72.5 141.5t193.5 53.5q122 0 195.5 -52.5t73.5 -137.5q0 -53 -30.5 -94t-84.5 -61v-2q81 -21 123 -75.5t42 -131.5q0 -106 -75 -171t-196 -65q-52 0 -96 14v123q32 -10 65 -10q66 0 100 32t34 86q0 53 -33.5 85.5t-94.5 32.5h-56v122h31
q47 0 75.5 25.5t28.5 68.5q0 41 -27.5 65.5t-76.5 24.5q-46 0 -72 -23.5t-26 -65.5v-569z" />
    <glyph glyph-name="agrave" unicode="&#xe0;" horiz-adv-x="585" 
d="M525 0h-153l-4 74h-2q-50 -85 -157 -85q-79 0 -126.5 46t-47.5 118q0 106 103 141q63 21 223 27v32q0 34 -22.5 54.5t-62.5 20.5q-73 0 -99 -67l-124 62q60 125 232 125q118 0 179 -50.5t61 -140.5v-357zM268 104q42 0 67.5 27t25.5 69v28q-61 -4 -100 -10
q-63 -10 -63 -56q0 -25 18.5 -41.5t51.5 -16.5zM245 606l-119 162h161l89 -162h-131z" />
    <glyph glyph-name="aacute" unicode="&#xe1;" horiz-adv-x="585" 
d="M525 0h-153l-4 74h-2q-50 -85 -157 -85q-79 0 -126.5 46t-47.5 118q0 106 103 141q63 21 223 27v32q0 34 -22.5 54.5t-62.5 20.5q-73 0 -99 -67l-124 62q60 125 232 125q118 0 179 -50.5t61 -140.5v-357zM268 104q42 0 67.5 27t25.5 69v28q-61 -4 -100 -10
q-63 -10 -63 -56q0 -25 18.5 -41.5t51.5 -16.5zM452 768l-119 -162h-128l89 162h158z" />
    <glyph glyph-name="acircumflex" unicode="&#xe2;" horiz-adv-x="585" 
d="M525 0h-153l-4 74h-2q-50 -85 -157 -85q-79 0 -126.5 46t-47.5 118q0 106 103 141q63 21 223 27v32q0 34 -22.5 54.5t-62.5 20.5q-73 0 -99 -67l-124 62q60 125 232 125q118 0 179 -50.5t61 -140.5v-357zM268 104q42 0 67.5 27t25.5 69v28q-61 -4 -100 -10
q-63 -10 -63 -56q0 -25 18.5 -41.5t51.5 -16.5zM104 606l120 162h130l122 -162h-132l-55 85l-56 -85h-129z" />
    <glyph glyph-name="atilde" unicode="&#xe3;" horiz-adv-x="585" 
d="M525 0h-153l-4 74h-2q-50 -85 -157 -85q-79 0 -126.5 46t-47.5 118q0 106 103 141q63 21 223 27v32q0 34 -22.5 54.5t-62.5 20.5q-73 0 -99 -67l-124 62q60 125 232 125q118 0 179 -50.5t61 -140.5v-357zM268 104q42 0 67.5 27t25.5 69v28q-61 -4 -100 -10
q-63 -10 -63 -56q0 -25 18.5 -41.5t51.5 -16.5zM202 760q38 0 96 -25t78 -25q37 0 38 46h74q-1 -69 -29.5 -105.5t-80.5 -36.5q-38 0 -96 25t-78 25q-37 0 -38 -46h-74q1 69 29.5 105.5t80.5 36.5z" />
    <glyph glyph-name="adieresis" unicode="&#xe4;" horiz-adv-x="585" 
d="M525 0h-153l-4 74h-2q-50 -85 -157 -85q-79 0 -126.5 46t-47.5 118q0 106 103 141q63 21 223 27v32q0 34 -22.5 54.5t-62.5 20.5q-73 0 -99 -67l-124 62q60 125 232 125q118 0 179 -50.5t61 -140.5v-357zM268 104q42 0 67.5 27t25.5 69v28q-61 -4 -100 -10
q-63 -10 -63 -56q0 -25 18.5 -41.5t51.5 -16.5zM330 620v134h133v-134h-133zM117 620v134h133v-134h-133z" />
    <glyph glyph-name="aring" unicode="&#xe5;" horiz-adv-x="585" 
d="M525 0h-153l-4 74h-2q-50 -85 -157 -85q-79 0 -126.5 46t-47.5 118q0 106 103 141q63 21 223 27v32q0 34 -22.5 54.5t-62.5 20.5q-73 0 -99 -67l-124 62q60 125 232 125q118 0 179 -50.5t61 -140.5v-357zM268 104q42 0 67.5 27t25.5 69v28q-61 -4 -100 -10
q-63 -10 -63 -56q0 -25 18.5 -41.5t51.5 -16.5zM158 710q0 52 36.5 86.5t94.5 34.5q60 0 96.5 -34.5t36.5 -86.5t-36.5 -86.5t-94.5 -34.5q-60 0 -96.5 34.5t-36.5 86.5zM238 710q0 -26 13.5 -43t39.5 -17q25 0 38 17t13 43t-13.5 43t-39.5 17q-25 0 -38 -17t-13 -43z" />
    <glyph glyph-name="ae" unicode="&#xe6;" horiz-adv-x="903" 
d="M514 320h204q-9 109 -100 109q-90 0 -104 -109zM355 200v28q-55 -4 -95 -10q-62 -10 -62 -54q0 -27 17.5 -43.5t49.5 -16.5q40 0 65 27.5t25 68.5zM177 361l-125 62q60 125 229 125q119 0 178 -57q68 57 170 57q120 0 185 -73.5t65 -192.5q0 -33 -5 -61h-359
q8 -52 39.5 -82.5t86.5 -30.5q70 0 119 62l98 -86q-83 -95 -216 -95q-148 0 -219 97q-63 -97 -198 -97q-92 0 -141 46t-49 118q0 100 94 138q60 25 226 30v32q0 75 -84 75q-67 0 -94 -67z" />
    <glyph glyph-name="ccedilla" unicode="&#xe7;" horiz-adv-x="558" 
d="M269 -182q-52 0 -95 12l13 59q32 -6 48 -6q41 0 41 24t-48 32l18 60q-102 16 -158 89t-56 179q0 124 73.5 202.5t205.5 78.5q171 0 238 -134l-126 -67q-35 79 -106 79q-57 0 -87 -44t-30 -113q0 -70 30.5 -113t88.5 -43q76 0 112 79l122 -66q-65 -132 -236 -133l-6 -18
q96 -13 96 -73q0 -37 -34.5 -60.5t-103.5 -23.5z" />
    <glyph glyph-name="egrave" unicode="&#xe8;" horiz-adv-x="593" 
d="M198 320h205q-5 53 -28 81t-72 28q-94 0 -105 -109zM444 170l101 -86q-80 -95 -227 -95q-139 0 -212.5 75.5t-73.5 202.5q0 125 71.5 203t200.5 78q126 0 193 -73.5t67 -190.5q0 -40 -4 -63h-362q15 -113 125 -113q75 0 121 62zM255 606l-119 162h161l89 -162h-131z" />
    <glyph glyph-name="eacute" unicode="&#xe9;" horiz-adv-x="593" 
d="M198 320h205q-5 53 -28 81t-72 28q-94 0 -105 -109zM444 170l101 -86q-80 -95 -227 -95q-139 0 -212.5 75.5t-73.5 202.5q0 125 71.5 203t200.5 78q126 0 193 -73.5t67 -190.5q0 -40 -4 -63h-362q15 -113 125 -113q75 0 121 62zM462 768l-119 -162h-128l89 162h158z" />
    <glyph glyph-name="ecircumflex" unicode="&#xea;" horiz-adv-x="593" 
d="M198 320h205q-5 53 -28 81t-72 28q-94 0 -105 -109zM444 170l101 -86q-80 -95 -227 -95q-139 0 -212.5 75.5t-73.5 202.5q0 125 71.5 203t200.5 78q126 0 193 -73.5t67 -190.5q0 -40 -4 -63h-362q15 -113 125 -113q75 0 121 62zM114 606l120 162h130l122 -162h-132
l-55 85l-56 -85h-129z" />
    <glyph glyph-name="edieresis" unicode="&#xeb;" horiz-adv-x="593" 
d="M198 320h205q-5 53 -28 81t-72 28q-94 0 -105 -109zM444 170l101 -86q-80 -95 -227 -95q-139 0 -212.5 75.5t-73.5 202.5q0 125 71.5 203t200.5 78q126 0 193 -73.5t67 -190.5q0 -40 -4 -63h-362q15 -113 125 -113q75 0 121 62zM340 620v134h133v-134h-133zM127 620v134
h133v-134h-133z" />
    <glyph glyph-name="igrave" unicode="&#xec;" horiz-adv-x="288" 
d="M227 0h-166v537h166v-537zM99 606l-119 162h161l89 -162h-131z" />
    <glyph glyph-name="iacute" unicode="&#xed;" horiz-adv-x="288" 
d="M227 0h-166v537h166v-537zM306 768l-119 -162h-128l89 162h158z" />
    <glyph glyph-name="icircumflex" unicode="&#xee;" horiz-adv-x="288" 
d="M227 0h-166v537h166v-537zM-42 606l120 162h130l122 -162h-132l-55 85l-56 -85h-129z" />
    <glyph glyph-name="idieresis" unicode="&#xef;" horiz-adv-x="288" 
d="M227 0h-166v537h166v-537zM184 620v134h133v-134h-133zM-29 620v134h133v-134h-133z" />
    <glyph glyph-name="eth" unicode="&#xf0;" horiz-adv-x="642" 
d="M508 730l-59 -54q148 -148 148 -390q0 -133 -72 -215t-209 -82q-132 0 -206.5 76.5t-74.5 196.5q0 117 67 192t184 75q82 0 138 -48l2 1q-28 56 -77 105l-46 -42l-72 72l32 35q-32 18 -62 29l73 106q45 -18 78 -37l63 69zM317 111q55 0 84.5 41t29.5 108q0 72 -30 112
t-86 40t-84 -41.5t-28 -107.5q0 -67 29 -109.5t85 -42.5z" />
    <glyph glyph-name="ntilde" unicode="&#xf1;" 
d="M61 0v537h154l3 -74h2q54 85 161 85q85 0 136 -50t51 -133v-365h-166v347q0 34 -20.5 55.5t-57.5 21.5q-45 0 -71 -27t-26 -70v-327h-166zM229 760q38 0 96 -25t78 -25q37 0 38 46h74q-1 -69 -29.5 -105.5t-80.5 -36.5q-38 0 -96 25t-78 25q-37 0 -38 -46h-74
q1 69 29.5 105.5t80.5 36.5z" />
    <glyph glyph-name="ograve" unicode="&#xf2;" 
d="M314 -11q-134 0 -208 77.5t-74 200.5q0 124 74 202.5t208 78.5t208 -77.5t74 -201.5t-74 -202t-208 -78zM315 426q-56 0 -85.5 -43.5t-29.5 -114.5q0 -70 29 -113.5t84 -43.5q56 0 85.5 43.5t29.5 113.5q0 71 -29 114.5t-84 43.5zM269 606l-119 162h161l89 -162h-131z
" />
    <glyph glyph-name="oacute" unicode="&#xf3;" 
d="M314 -11q-134 0 -208 77.5t-74 200.5q0 124 74 202.5t208 78.5t208 -77.5t74 -201.5t-74 -202t-208 -78zM315 426q-56 0 -85.5 -43.5t-29.5 -114.5q0 -70 29 -113.5t84 -43.5q56 0 85.5 43.5t29.5 113.5q0 71 -29 114.5t-84 43.5zM476 768l-119 -162h-128l89 162h158z
" />
    <glyph glyph-name="ocircumflex" unicode="&#xf4;" 
d="M314 -11q-134 0 -208 77.5t-74 200.5q0 124 74 202.5t208 78.5t208 -77.5t74 -201.5t-74 -202t-208 -78zM315 426q-56 0 -85.5 -43.5t-29.5 -114.5q0 -70 29 -113.5t84 -43.5q56 0 85.5 43.5t29.5 113.5q0 71 -29 114.5t-84 43.5zM128 606l120 162h130l122 -162h-132
l-55 85l-56 -85h-129z" />
    <glyph glyph-name="otilde" unicode="&#xf5;" 
d="M314 -11q-134 0 -208 77.5t-74 200.5q0 124 74 202.5t208 78.5t208 -77.5t74 -201.5t-74 -202t-208 -78zM315 426q-56 0 -85.5 -43.5t-29.5 -114.5q0 -70 29 -113.5t84 -43.5q56 0 85.5 43.5t29.5 113.5q0 71 -29 114.5t-84 43.5zM226 760q38 0 96 -25t78 -25q37 0 38 46
h74q-1 -69 -29.5 -105.5t-80.5 -36.5q-38 0 -96 25t-78 25q-37 0 -38 -46h-74q1 69 29.5 105.5t80.5 36.5z" />
    <glyph glyph-name="odieresis" unicode="&#xf6;" 
d="M314 -11q-134 0 -208 77.5t-74 200.5q0 124 74 202.5t208 78.5t208 -77.5t74 -201.5t-74 -202t-208 -78zM315 426q-56 0 -85.5 -43.5t-29.5 -114.5q0 -70 29 -113.5t84 -43.5q56 0 85.5 43.5t29.5 113.5q0 71 -29 114.5t-84 43.5zM354 620v134h133v-134h-133zM141 620
v134h133v-134h-133z" />
    <glyph glyph-name="divide" unicode="&#xf7;" horiz-adv-x="615" 
d="M230 492v154h155v-154h-155zM52 302v120h511v-120h-511zM230 78v154h155v-154h-155z" />
    <glyph glyph-name="oslash" unicode="&#xf8;" 
d="M586 527l-54 -67q64 -75 64 -191q0 -124 -74 -202t-208 -78q-80 0 -140 29l-56 -69l-76 61l54 67q-64 75 -64 190q0 125 74 203t208 78q80 0 140 -29l56 69zM202 208l168 207q-22 15 -55 15q-58 0 -88.5 -45.5t-30.5 -116.5q0 -32 6 -60zM425 329l-167 -207
q22 -15 55 -15q58 0 88.5 45.5t30.5 115.5q0 34 -7 61z" />
    <glyph glyph-name="ugrave" unicode="&#xf9;" 
d="M567 537v-537h-154l-3 74h-2q-54 -85 -162 -85q-83 0 -134.5 50.5t-51.5 132.5v365h166v-343q0 -36 20.5 -58.5t59.5 -22.5q45 0 70 25t25 66v333h166zM269 606l-119 162h161l89 -162h-131z" />
    <glyph glyph-name="uacute" unicode="&#xfa;" 
d="M567 537v-537h-154l-3 74h-2q-54 -85 -162 -85q-83 0 -134.5 50.5t-51.5 132.5v365h166v-343q0 -36 20.5 -58.5t59.5 -22.5q45 0 70 25t25 66v333h166zM476 768l-119 -162h-128l89 162h158z" />
    <glyph glyph-name="ucircumflex" unicode="&#xfb;" 
d="M567 537v-537h-154l-3 74h-2q-54 -85 -162 -85q-83 0 -134.5 50.5t-51.5 132.5v365h166v-343q0 -36 20.5 -58.5t59.5 -22.5q45 0 70 25t25 66v333h166zM128 606l120 162h130l122 -162h-132l-55 85l-56 -85h-129z" />
    <glyph glyph-name="udieresis" unicode="&#xfc;" 
d="M567 537v-537h-154l-3 74h-2q-54 -85 -162 -85q-83 0 -134.5 50.5t-51.5 132.5v365h166v-343q0 -36 20.5 -58.5t59.5 -22.5q45 0 70 25t25 66v333h166zM354 620v134h133v-134h-133zM141 620v134h133v-134h-133z" />
    <glyph glyph-name="yacute" unicode="&#xfd;" horiz-adv-x="585" 
d="M414 537h166l-212 -569q-31 -83 -77.5 -122.5t-128.5 -39.5q-38 0 -80 11v115q23 -7 47 -7q65 0 83 59l-207 553h173l117 -369h2zM461 768l-119 -162h-128l89 162h158z" />
    <glyph glyph-name="thorn" unicode="&#xfe;" horiz-adv-x="650" 
d="M388 -11q-98 0 -159 77h-2v-249h-166v951h166v-297h2q61 77 159 77q104 0 165 -78t61 -199q0 -122 -62 -202t-164 -80zM333 112q55 0 84 43t29 113q0 68 -29 112.5t-84 44.5q-54 0 -83 -44t-29 -115q0 -70 29 -112t83 -42z" />
    <glyph glyph-name="ydieresis" unicode="&#xff;" horiz-adv-x="585" 
d="M414 537h166l-212 -569q-31 -83 -77.5 -122.5t-128.5 -39.5q-38 0 -80 11v115q23 -7 47 -7q65 0 83 59l-207 553h173l117 -369h2zM339 620v134h133v-134h-133zM126 620v134h133v-134h-133z" />
    <glyph glyph-name="Amacron" unicode="&#x100;" horiz-adv-x="777" 
d="M592 0l-57 168h-299l-57 -168h-177l280 768h212l281 -768h-183zM281 301h209l-103 307h-2zM219 834v94h330v-94h-330z" />
    <glyph glyph-name="amacron" unicode="&#x101;" horiz-adv-x="585" 
d="M525 0h-153l-4 74h-2q-50 -85 -157 -85q-79 0 -126.5 46t-47.5 118q0 106 103 141q63 21 223 27v32q0 34 -22.5 54.5t-62.5 20.5q-73 0 -99 -67l-124 62q60 125 232 125q118 0 179 -50.5t61 -140.5v-357zM268 104q42 0 67.5 27t25.5 69v28q-61 -4 -100 -10
q-63 -10 -63 -56q0 -25 18.5 -41.5t51.5 -16.5zM129 640v94h322v-94h-322z" />
    <glyph glyph-name="Abreve" unicode="&#x102;" horiz-adv-x="777" 
d="M592 0l-57 168h-299l-57 -168h-177l280 768h212l281 -768h-183zM281 301h209l-103 307h-2zM385 886q75 0 78 65h94q-1 -65 -45.5 -103t-128.5 -38q-83 0 -128 37.5t-45 103.5h95q3 -65 80 -65z" />
    <glyph glyph-name="abreve" unicode="&#x103;" horiz-adv-x="585" 
d="M525 0h-153l-4 74h-2q-50 -85 -157 -85q-79 0 -126.5 46t-47.5 118q0 106 103 141q63 21 223 27v32q0 34 -22.5 54.5t-62.5 20.5q-73 0 -99 -67l-124 62q60 125 232 125q118 0 179 -50.5t61 -140.5v-357zM268 104q42 0 67.5 27t25.5 69v28q-61 -4 -100 -10
q-63 -10 -63 -56q0 -25 18.5 -41.5t51.5 -16.5zM291 683q73 0 73 80h95q-1 -72 -44.5 -114t-125.5 -42q-81 0 -124.5 42t-43.5 114h95q0 -80 75 -80z" />
    <glyph glyph-name="Aogonek" unicode="&#x104;" horiz-adv-x="777" 
d="M494 768l280 -766q-102 -22 -102 -65q0 -29 51 -29q19 0 40 3v-93q-46 -12 -94 -12q-79 0 -118.5 30.5t-39.5 73.5q0 65 75 107l-51 151h-299l-57 -168h-177l280 768h212zM281 301h209l-103 307h-2z" />
    <glyph glyph-name="aogonek" unicode="&#x105;" horiz-adv-x="585" 
d="M429 -194q-75 0 -111 27.5t-36 69.5q0 68 94 111l-8 60h-2q-50 -85 -157 -85q-79 0 -126.5 46t-47.5 118q0 106 103 141q63 21 223 27v32q0 34 -22.5 54.5t-62.5 20.5q-73 0 -99 -67l-124 62q60 125 232 125q118 0 179 -50.5t61 -140.5v-353q-87 -36 -87 -71
q0 -27 46 -27q18 0 41 3v-91q-52 -12 -96 -12zM268 104q42 0 67.5 27t25.5 69v28q-61 -4 -100 -10q-63 -10 -63 -56q0 -25 18.5 -41.5t51.5 -16.5z" />
    <glyph glyph-name="Cacute" unicode="&#x106;" horiz-adv-x="733" 
d="M413 -11q-177 0 -276.5 109t-99.5 284q0 174 99.5 285.5t275.5 111.5q206 0 308 -165l-127 -83q-61 113 -175 113q-99 0 -151 -73.5t-52 -186.5t52 -186.5t154 -73.5q114 0 176 109l126 -79q-106 -165 -310 -165zM595 951l-121 -137h-138l91 137h168z" />
    <glyph glyph-name="cacute" unicode="&#x107;" horiz-adv-x="558" 
d="M311 -11q-132 0 -205.5 77t-73.5 200q0 125 73 203.5t206 78.5q171 0 238 -134l-126 -67q-35 79 -106 79q-57 0 -87 -44t-30 -114t30.5 -113.5t88.5 -43.5q76 0 112 80l122 -66q-67 -136 -242 -136zM492 768l-119 -162h-128l89 162h158z" />
    <glyph glyph-name="Ccircumflex" unicode="&#x108;" horiz-adv-x="733" 
d="M413 -11q-177 0 -276.5 109t-99.5 284q0 174 99.5 285.5t275.5 111.5q206 0 308 -165l-127 -83q-61 113 -175 113q-99 0 -151 -73.5t-52 -186.5t52 -186.5t154 -73.5q114 0 176 109l126 -79q-106 -165 -310 -165zM199 814l136 137h136l135 -137h-139l-65 70l-65 -70h-138
z" />
    <glyph glyph-name="ccircumflex" unicode="&#x109;" horiz-adv-x="558" 
d="M311 -11q-132 0 -205.5 77t-73.5 200q0 125 73 203.5t206 78.5q171 0 238 -134l-126 -67q-35 79 -106 79q-57 0 -87 -44t-30 -114t30.5 -113.5t88.5 -43.5q76 0 112 80l122 -66q-67 -136 -242 -136zM125 606l120 162h130l122 -162h-132l-55 85l-56 -85h-129z" />
    <glyph glyph-name="Cdotaccent" unicode="&#x10a;" horiz-adv-x="733" 
d="M413 -11q-177 0 -276.5 109t-99.5 284q0 174 99.5 285.5t275.5 111.5q206 0 308 -165l-127 -83q-61 113 -175 113q-99 0 -151 -73.5t-52 -186.5t52 -186.5t154 -73.5q114 0 176 109l126 -79q-106 -165 -310 -165zM333 818v129h140v-129h-140z" />
    <glyph glyph-name="cdotaccent" unicode="&#x10b;" horiz-adv-x="558" 
d="M311 -11q-132 0 -205.5 77t-73.5 200q0 125 73 203.5t206 78.5q171 0 238 -134l-126 -67q-35 79 -106 79q-57 0 -87 -44t-30 -114t30.5 -113.5t88.5 -43.5q76 0 112 80l122 -66q-67 -136 -242 -136zM243 620v134h136v-134h-136z" />
    <glyph glyph-name="Ccaron" unicode="&#x10c;" horiz-adv-x="733" 
d="M413 -11q-177 0 -276.5 109t-99.5 284q0 174 99.5 285.5t275.5 111.5q206 0 308 -165l-127 -83q-61 113 -175 113q-99 0 -151 -73.5t-52 -186.5t52 -186.5t154 -73.5q114 0 176 109l126 -79q-106 -165 -310 -165zM606 951l-136 -137h-136l-135 137h139l65 -70l65 70h138z
" />
    <glyph glyph-name="ccaron" unicode="&#x10d;" horiz-adv-x="558" 
d="M311 -11q-132 0 -205.5 77t-73.5 200q0 125 73 203.5t206 78.5q171 0 238 -134l-126 -67q-35 79 -106 79q-57 0 -87 -44t-30 -114t30.5 -113.5t88.5 -43.5q76 0 112 80l122 -66q-67 -136 -242 -136zM497 768l-121 -162h-130l-121 162h131l55 -85l56 85h130z" />
    <glyph glyph-name="Dcaron" unicode="&#x10e;" horiz-adv-x="790" 
d="M67 0v768h288q101 0 178.5 -30.5t124 -84t70 -121t23.5 -146.5q0 -172 -102.5 -279t-289.5 -107h-292zM243 136h97q113 0 172.5 62t59.5 185q0 124 -61.5 186.5t-174.5 62.5h-93v-496zM542 951l-136 -137h-136l-135 137h139l65 -70l65 70h138z" />
    <glyph glyph-name="dcaron" unicode="&#x10f;" horiz-adv-x="812" 
d="M258 -11q-103 0 -163 78t-60 198q0 122 62.5 202.5t164.5 80.5q96 0 158 -76h2v296h166v-768h-155l-3 77h-2q-61 -88 -170 -88zM315 112q55 0 84 43.5t29 113.5q0 72 -29 114t-84 42q-54 0 -83 -44t-29 -114q0 -67 29 -111t83 -44zM834 768l-82 -163h-122l50 163h154z
" />
    <glyph glyph-name="Dcroat" unicode="&#x110;" horiz-adv-x="790" 
d="M67 0v327h-77v125h77v316h288q101 0 178.5 -30.5t124 -84t70 -121t23.5 -146.5q0 -172 -102.5 -279t-289.5 -107h-292zM243 136h97q113 0 172.5 62t59.5 185q0 124 -61.5 186.5t-174.5 62.5h-93v-180h146v-125h-146v-191z" />
    <glyph glyph-name="dcroat" unicode="&#x111;" horiz-adv-x="650" 
d="M258 -11q-103 0 -163 78t-60 198q0 122 62.5 202t164.5 80q96 0 158 -76h2v127h-154v105h154v65h166v-65h60v-105h-60v-598h-155l-3 77h-2q-61 -88 -170 -88zM315 112q55 0 84 43.5t29 113.5q0 71 -29 113t-84 42q-54 0 -83 -44t-29 -113q0 -67 29 -111t83 -44z" />
    <glyph glyph-name="Emacron" unicode="&#x112;" horiz-adv-x="642" 
d="M611 0h-544v768h537v-136h-362v-177h314v-135h-314v-184h369v-136zM178 834v94h330v-94h-330z" />
    <glyph glyph-name="emacron" unicode="&#x113;" horiz-adv-x="593" 
d="M198 320h205q-5 53 -28 81t-72 28q-94 0 -105 -109zM444 170l101 -86q-80 -95 -227 -95q-139 0 -212.5 75.5t-73.5 202.5q0 125 71.5 203t200.5 78q126 0 193 -73.5t67 -190.5q0 -40 -4 -63h-362q15 -113 125 -113q75 0 121 62zM139 640v94h322v-94h-322z" />
    <glyph glyph-name="Ebreve" unicode="&#x114;" horiz-adv-x="642" 
d="M611 0h-544v768h537v-136h-362v-177h314v-135h-314v-184h369v-136zM344 886q75 0 78 65h94q-1 -65 -45.5 -103t-128.5 -38q-83 0 -128 37.5t-45 103.5h95q3 -65 80 -65z" />
    <glyph glyph-name="ebreve" unicode="&#x115;" horiz-adv-x="593" 
d="M198 320h205q-5 53 -28 81t-72 28q-94 0 -105 -109zM444 170l101 -86q-80 -95 -227 -95q-139 0 -212.5 75.5t-73.5 202.5q0 125 71.5 203t200.5 78q126 0 193 -73.5t67 -190.5q0 -40 -4 -63h-362q15 -113 125 -113q75 0 121 62zM301 683q73 0 73 80h95q-1 -72 -44.5 -114
t-125.5 -42q-81 0 -124.5 42t-43.5 114h95q0 -80 75 -80z" />
    <glyph glyph-name="Edotaccent" unicode="&#x116;" horiz-adv-x="642" 
d="M611 0h-544v768h537v-136h-362v-177h314v-135h-314v-184h369v-136zM273 818v129h140v-129h-140z" />
    <glyph glyph-name="edotaccent" unicode="&#x117;" horiz-adv-x="593" 
d="M198 320h205q-5 53 -28 81t-72 28q-94 0 -105 -109zM444 170l101 -86q-80 -95 -227 -95q-139 0 -212.5 75.5t-73.5 202.5q0 125 71.5 203t200.5 78q126 0 193 -73.5t67 -190.5q0 -40 -4 -63h-362q15 -113 125 -113q75 0 121 62zM232 620v134h136v-134h-136z" />
    <glyph glyph-name="Eogonek" unicode="&#x118;" horiz-adv-x="642" 
d="M67 0v768h537v-136h-362v-177h314v-135h-314v-184h369v-136q-91 -31 -91 -66q0 -26 46 -26q22 0 45 3v-94q-53 -11 -98 -11q-80 0 -117.5 28t-37.5 70q0 61 72 94v2h-363z" />
    <glyph glyph-name="eogonek" unicode="&#x119;" horiz-adv-x="593" 
d="M198 320h205q-5 53 -28 81t-72 28q-94 0 -105 -109zM402 -194q-75 0 -114 27t-39 67q0 54 63 90v2q-136 0 -208 74t-72 201q0 125 71.5 203t200.5 78q126 0 193 -73.5t67 -190.5q0 -40 -4 -63h-362q15 -113 125 -113q75 0 121 62l101 -86q-15 -18 -57 -50
q-83 -60 -83 -96q0 -32 47 -32q20 0 42 3v-92q-48 -11 -92 -11z" />
    <glyph glyph-name="Ecaron" unicode="&#x11a;" horiz-adv-x="642" 
d="M611 0h-544v768h537v-136h-362v-177h314v-135h-314v-184h369v-136zM546 951l-136 -137h-136l-135 137h139l65 -70l65 70h138z" />
    <glyph glyph-name="ecaron" unicode="&#x11b;" horiz-adv-x="593" 
d="M198 320h205q-5 53 -28 81t-72 28q-94 0 -105 -109zM444 170l101 -86q-80 -95 -227 -95q-139 0 -212.5 75.5t-73.5 202.5q0 125 71.5 203t200.5 78q126 0 193 -73.5t67 -190.5q0 -40 -4 -63h-362q15 -113 125 -113q75 0 121 62zM486 768l-121 -162h-130l-121 162h131
l55 -85l56 85h130z" />
    <glyph glyph-name="Gcircumflex" unicode="&#x11c;" horiz-adv-x="812" 
d="M423 425h329v-425h-154l-4 79h-2q-72 -90 -208 -90q-165 0 -256 110t-91 279q0 114 43.5 203.5t132.5 143.5t212 54q207 0 316 -155l-125 -87q-70 107 -186 107q-103 0 -159 -73.5t-56 -189.5q0 -117 52 -187.5t152 -70.5q73 0 119 41.5t46 114.5v13h-161v133zM215 814
l136 137h136l135 -137h-139l-65 70l-65 -70h-138z" />
    <glyph glyph-name="gcircumflex" unicode="&#x11d;" horiz-adv-x="642" 
d="M581 537v-466q0 -131 -82.5 -198t-226.5 -67q-112 0 -204 45l45 113q76 -41 155 -41q147 0 147 142v31h-2q-58 -79 -160 -79q-100 0 -161 73t-61 187q0 115 63.5 193t164.5 78q106 0 170 -89h2l4 78h146zM309 134q53 0 82.5 41t29.5 107t-29.5 106t-81.5 40
q-53 0 -82 -41.5t-29 -106.5q0 -64 28.5 -105t81.5 -41zM139 606l120 162h130l122 -162h-132l-55 85l-56 -85h-129z" />
    <glyph glyph-name="Gbreve" unicode="&#x11e;" horiz-adv-x="812" 
d="M423 425h329v-425h-154l-4 79h-2q-72 -90 -208 -90q-165 0 -256 110t-91 279q0 114 43.5 203.5t132.5 143.5t212 54q207 0 316 -155l-125 -87q-70 107 -186 107q-103 0 -159 -73.5t-56 -189.5q0 -117 52 -187.5t152 -70.5q73 0 119 41.5t46 114.5v13h-161v133zM420 886
q75 0 78 65h94q-1 -65 -45.5 -103t-128.5 -38q-83 0 -128 37.5t-45 103.5h95q3 -65 80 -65z" />
    <glyph glyph-name="gbreve" unicode="&#x11f;" horiz-adv-x="642" 
d="M581 537v-466q0 -131 -82.5 -198t-226.5 -67q-112 0 -204 45l45 113q76 -41 155 -41q147 0 147 142v31h-2q-58 -79 -160 -79q-100 0 -161 73t-61 187q0 115 63.5 193t164.5 78q106 0 170 -89h2l4 78h146zM309 134q53 0 82.5 41t29.5 107t-29.5 106t-81.5 40
q-53 0 -82 -41.5t-29 -106.5q0 -64 28.5 -105t81.5 -41zM326 683q73 0 73 80h95q-1 -72 -44.5 -114t-125.5 -42q-81 0 -124.5 42t-43.5 114h95q0 -80 75 -80z" />
    <glyph glyph-name="Gdotaccent" unicode="&#x120;" horiz-adv-x="812" 
d="M423 425h329v-425h-154l-4 79h-2q-72 -90 -208 -90q-165 0 -256 110t-91 279q0 114 43.5 203.5t132.5 143.5t212 54q207 0 316 -155l-125 -87q-70 107 -186 107q-103 0 -159 -73.5t-56 -189.5q0 -117 52 -187.5t152 -70.5q73 0 119 41.5t46 114.5v13h-161v133zM349 818
v129h140v-129h-140z" />
    <glyph glyph-name="gdotaccent" unicode="&#x121;" horiz-adv-x="642" 
d="M581 537v-466q0 -131 -82.5 -198t-226.5 -67q-112 0 -204 45l45 113q76 -41 155 -41q147 0 147 142v31h-2q-58 -79 -160 -79q-100 0 -161 73t-61 187q0 115 63.5 193t164.5 78q106 0 170 -89h2l4 78h146zM309 134q53 0 82.5 41t29.5 107t-29.5 106t-81.5 40
q-53 0 -82 -41.5t-29 -106.5q0 -64 28.5 -105t81.5 -41zM257 620v134h136v-134h-136z" />
    <glyph glyph-name="Gcommaaccent" unicode="&#x122;" horiz-adv-x="812" 
d="M423 425h329v-425h-154l-4 79h-2q-72 -90 -208 -90q-165 0 -256 110t-91 279q0 114 43.5 203.5t132.5 143.5t212 54q207 0 316 -155l-125 -87q-70 107 -186 107q-103 0 -159 -73.5t-56 -189.5q0 -117 52 -187.5t152 -70.5q73 0 119 41.5t46 114.5v13h-161v133zM484 -37
l-82 -163h-122l50 163h154z" />
    <glyph glyph-name="gcommaaccent" unicode="&#x123;" horiz-adv-x="642" 
d="M581 537v-466q0 -131 -82.5 -198t-226.5 -67q-112 0 -204 45l45 113q76 -41 155 -41q147 0 147 142v31h-2q-58 -79 -160 -79q-100 0 -161 73t-61 187q0 115 63.5 193t164.5 78q106 0 170 -89h2l4 78h146zM309 134q53 0 82.5 41t29.5 107t-29.5 106t-81.5 40
q-53 0 -82 -41.5t-29 -106.5q0 -64 28.5 -105t81.5 -41zM238 598l84 177h121l-51 -177h-154z" />
    <glyph glyph-name="Hcircumflex" unicode="&#x124;" horiz-adv-x="790" 
d="M243 0h-176v768h176v-312h304v312h176v-768h-176v319h-304v-319zM191 814l136 137h136l135 -137h-139l-65 70l-65 -70h-138z" />
    <glyph glyph-name="hcircumflex" unicode="&#x125;" 
d="M61 0v768h166v-301h2q51 81 156 81q83 0 133 -49t50 -130v-369h-166v347q0 34 -20 55.5t-58 21.5q-45 0 -71 -27t-26 -70v-327h-166zM-58 814l136 137h136l135 -137h-139l-65 70l-65 -70h-138z" />
    <glyph glyph-name="Hbar" unicode="&#x126;" horiz-adv-x="790" 
d="M-10 674h77v94h176v-94h304v94h176v-94h77v-120h-77v-554h-176v320h-304v-320h-176v554h-77v120zM243 456h304v98h-304v-98z" />
    <glyph glyph-name="hbar" unicode="&#x127;" 
d="M61 0v598h-61v105h61v65h166v-65h155v-105h-155v-131h2q51 81 156 81q83 0 133 -49t50 -130v-369h-166v347q0 34 -20 55.5t-58 21.5q-45 0 -71 -27t-26 -70v-327h-166z" />
    <glyph glyph-name="Itilde" unicode="&#x128;" horiz-adv-x="310" 
d="M243 0h-176v768h176v-768zM65 951q39 0 98 -22t80 -22q38 0 39 42h76q-2 -61 -32.5 -98t-80.5 -37q-39 0 -98 22t-80 22q-38 0 -39 -42h-76q2 62 32 98.5t81 36.5z" />
    <glyph glyph-name="itilde" unicode="&#x129;" horiz-adv-x="288" 
d="M227 0h-166v537h166v-537zM56 760q38 0 96 -25t78 -25q37 0 38 46h74q-1 -69 -29.5 -105.5t-80.5 -36.5q-38 0 -96 25t-78 25q-37 0 -38 -46h-74q1 69 29.5 105.5t80.5 36.5z" />
    <glyph glyph-name="Imacron" unicode="&#x12a;" horiz-adv-x="310" 
d="M243 0h-176v768h176v-768zM-10 834v94h330v-94h-330z" />
    <glyph glyph-name="imacron" unicode="&#x12b;" horiz-adv-x="288" 
d="M227 0h-166v537h166v-537zM-17 640v94h322v-94h-322z" />
    <glyph glyph-name="Ibreve" unicode="&#x12c;" horiz-adv-x="310" 
d="M243 0h-176v768h176v-768zM156 886q75 0 78 65h94q-1 -65 -45.5 -103t-128.5 -38q-83 0 -128 37.5t-45 103.5h95q3 -65 80 -65z" />
    <glyph glyph-name="ibreve" unicode="&#x12d;" horiz-adv-x="288" 
d="M227 0h-166v537h166v-537zM145 683q73 0 73 80h95q-1 -72 -44.5 -114t-125.5 -42q-81 0 -124.5 42t-43.5 114h95q0 -80 75 -80z" />
    <glyph glyph-name="Iogonek" unicode="&#x12e;" horiz-adv-x="310" 
d="M243 768v-765q-67 -37 -67 -68q0 -27 50 -27q22 0 42 3v-92q-44 -13 -99 -13q-79 0 -117 29.5t-38 74.5q0 50 53 97v761h176z" />
    <glyph glyph-name="iogonek" unicode="&#x12f;" horiz-adv-x="288" 
d="M59 628v140h170v-140h-170zM227 537v-534q-64 -37 -64 -68q0 -29 50 -29q12 0 42 2v-90q-45 -12 -96 -12q-79 0 -116 29.5t-37 73.5q0 53 55 99v529h166z" />
    <glyph glyph-name="Idotaccent" unicode="&#x130;" horiz-adv-x="310" 
d="M243 0h-176v768h176v-768zM85 818v129h140v-129h-140z" />
    <glyph glyph-name="dotlessi" unicode="&#x131;" horiz-adv-x="288" 
d="M227 0h-166v537h166v-537z" />
    <glyph glyph-name="IJ" unicode="&#x132;" horiz-adv-x="777" 
d="M243 0h-176v768h176v-768zM469 -11q-98 0 -173 47l64 121q52 -34 93 -34q42 0 63 26t21 69v550h176v-549q0 -104 -63 -167t-181 -63z" />
    <glyph glyph-name="ij" unicode="&#x133;" horiz-adv-x="576" 
d="M59 628v140h170v-140h-170zM227 0h-166v537h166v-537zM273 -186v113q16 -2 25 -2q28 0 39.5 14t11.5 45v553h166v-575q0 -156 -170 -156q-37 0 -72 8zM347 628v140h170v-140h-170z" />
    <glyph glyph-name="Jcircumflex" unicode="&#x134;" horiz-adv-x="467" 
d="M159 -11q-98 0 -173 47l64 121q52 -34 93 -34q42 0 63 26t21 69v550h176v-549q0 -104 -63 -167t-181 -63zM111 814l136 137h136l135 -137h-139l-65 70l-65 -70h-138z" />
    <glyph glyph-name="jcircumflex" unicode="&#x135;" horiz-adv-x="288" 
d="M-15 -186v113q16 -2 25 -2q28 0 39.5 14t11.5 45v553h166v-575q0 -156 -170 -156q-37 0 -72 8zM-42 606l120 162h130l122 -162h-132l-55 85l-56 -85h-129z" />
    <glyph glyph-name="Kcommaaccent" unicode="&#x136;" horiz-adv-x="733" 
d="M522 0l-174 320h-105v-320h-176v768h176v-313h107l168 313h192l-211 -378l222 -390h-199zM452 -37l-82 -163h-122l50 163h154z" />
    <glyph glyph-name="kcommaaccent" unicode="&#x137;" horiz-adv-x="585" 
d="M389 0l-119 222h-43v-222h-166v768h166v-433h43l113 202h190l-162 -257l170 -280h-192zM416 -37l-82 -163h-122l50 163h154z" />
    <glyph glyph-name="kgreenlandic" unicode="&#x138;" horiz-adv-x="585" 
d="M389 0l-119 222h-43v-222h-166v537h166v-202h43l113 202h190l-162 -257l170 -280h-192z" />
    <glyph glyph-name="Lacute" unicode="&#x139;" horiz-adv-x="615" 
d="M67 0v768h176v-630h358v-138h-534zM342 951l-121 -137h-138l91 137h168z" />
    <glyph glyph-name="lacute" unicode="&#x13a;" horiz-adv-x="288" 
d="M227 0h-166v768h166v-768zM330 951l-121 -137h-138l91 137h168z" />
    <glyph glyph-name="Lcommaaccent" unicode="&#x13b;" horiz-adv-x="615" 
d="M67 0v768h176v-630h358v-138h-534zM424 -37l-82 -163h-122l50 163h154z" />
    <glyph glyph-name="lcommaaccent" unicode="&#x13c;" horiz-adv-x="288" 
d="M227 0h-166v768h166v-768zM243 -37l-82 -163h-122l50 163h154z" />
    <glyph glyph-name="Lcaron" unicode="&#x13d;" horiz-adv-x="615" 
d="M67 0v768h176v-630h358v-138h-534zM315 495l36 273h148l-63 -273h-121z" />
    <glyph glyph-name="lcaron" unicode="&#x13e;" horiz-adv-x="445" 
d="M227 0h-166v768h166v-768zM467 768l-82 -163h-122l50 163h154z" />
    <glyph glyph-name="Ldot" unicode="&#x13f;" horiz-adv-x="615" 
d="M67 0v768h176v-630h358v-138h-534zM399 319v134h136v-134h-136z" />
    <glyph glyph-name="ldot" unicode="&#x140;" horiz-adv-x="467" 
d="M227 0h-166v768h166v-768zM309 317v134h136v-134h-136z" />
    <glyph glyph-name="Lslash" unicode="&#x141;" horiz-adv-x="615" 
d="M243 138h358v-138h-534v236l-71 -41v141l71 42v390h176v-287l115 67v-142l-115 -67v-201z" />
    <glyph glyph-name="lslash" unicode="&#x142;" horiz-adv-x="288" 
d="M288 525v-137l-61 -36v-352h-166v253l-61 -36v137l61 36v378h166v-279z" />
    <glyph glyph-name="Nacute" unicode="&#x143;" horiz-adv-x="812" 
d="M574 768h171v-768h-171l-334 516h-2v-516h-171v768h194l311 -496h2v496zM576 951l-121 -137h-138l91 137h168z" />
    <glyph glyph-name="nacute" unicode="&#x144;" 
d="M61 0v537h154l3 -74h2q54 85 161 85q85 0 136 -50t51 -133v-365h-166v347q0 34 -20.5 55.5t-57.5 21.5q-45 0 -71 -27t-26 -70v-327h-166zM479 768l-119 -162h-128l89 162h158z" />
    <glyph glyph-name="Ncommaaccent" unicode="&#x145;" horiz-adv-x="812" 
d="M574 768h171v-768h-171l-334 516h-2v-516h-171v768h194l311 -496h2v496zM502 -37l-82 -163h-122l50 163h154z" />
    <glyph glyph-name="ncommaaccent" unicode="&#x146;" 
d="M61 0v537h154l3 -74h2q54 85 161 85q85 0 136 -50t51 -133v-365h-166v347q0 34 -20.5 55.5t-57.5 21.5q-45 0 -71 -27t-26 -70v-327h-166zM418 -37l-82 -163h-122l50 163h154z" />
    <glyph glyph-name="Ncaron" unicode="&#x147;" horiz-adv-x="812" 
d="M574 768h171v-768h-171l-334 516h-2v-516h-171v768h194l311 -496h2v496zM610 951l-136 -137h-136l-135 137h139l65 -70l65 70h138z" />
    <glyph glyph-name="ncaron" unicode="&#x148;" 
d="M61 0v537h154l3 -74h2q54 85 161 85q85 0 136 -50t51 -133v-365h-166v347q0 34 -20.5 55.5t-57.5 21.5q-45 0 -71 -27t-26 -70v-327h-166zM503 768l-121 -162h-130l-121 162h131l55 -85l56 85h130z" />
    <glyph glyph-name="napostrophe" unicode="&#x149;" 
d="M61 0v537h154l3 -74h2q54 85 161 85q85 0 136 -50t51 -133v-365h-166v347q0 34 -20.5 55.5t-57.5 21.5q-45 0 -71 -27t-26 -70v-327h-166zM267 768l-82 -163h-122l50 163h154z" />
    <glyph glyph-name="Eng" unicode="&#x14a;" horiz-adv-x="812" 
d="M574 768h171v-747q0 -98 -57.5 -156.5t-166.5 -58.5q-85 0 -153 37l49 120q45 -25 83 -25q65 0 73 63l-333 515h-2v-516h-171v768h194l311 -496h2v496z" />
    <glyph glyph-name="eng" unicode="&#x14b;" 
d="M61 0v537h154l3 -74h2q54 85 161 85q85 0 136 -50t51 -133v-404q0 -155 -174 -155q-45 0 -81 9v113q12 -3 33 -3q31 0 43.5 14t12.5 45v363q0 34 -20.5 55.5t-57.5 21.5q-45 0 -71 -27t-26 -70v-327h-166z" />
    <glyph glyph-name="Omacron" unicode="&#x14c;" horiz-adv-x="833" 
d="M37 384q0 174 99.5 284.5t280.5 110.5q180 0 279.5 -110t99.5 -285q0 -174 -99.5 -284.5t-280.5 -110.5q-180 0 -279.5 110t-99.5 285zM215 384q0 -113 52 -186.5t150 -73.5t149.5 73t51.5 187q0 113 -52 186.5t-150 73.5t-149.5 -73t-51.5 -187zM251 834v94h330v-94
h-330z" />
    <glyph glyph-name="omacron" unicode="&#x14d;" 
d="M314 -11q-134 0 -208 77.5t-74 200.5q0 124 74 202.5t208 78.5t208 -77.5t74 -201.5t-74 -202t-208 -78zM315 426q-56 0 -85.5 -43.5t-29.5 -114.5q0 -70 29 -113.5t84 -43.5q56 0 85.5 43.5t29.5 113.5q0 71 -29 114.5t-84 43.5zM153 640v94h322v-94h-322z" />
    <glyph glyph-name="Obreve" unicode="&#x14e;" horiz-adv-x="833" 
d="M37 384q0 174 99.5 284.5t280.5 110.5q180 0 279.5 -110t99.5 -285q0 -174 -99.5 -284.5t-280.5 -110.5q-180 0 -279.5 110t-99.5 285zM215 384q0 -113 52 -186.5t150 -73.5t149.5 73t51.5 187q0 113 -52 186.5t-150 73.5t-149.5 -73t-51.5 -187zM417 886q75 0 78 65h94
q-1 -65 -45.5 -103t-128.5 -38q-83 0 -128 37.5t-45 103.5h95q3 -65 80 -65z" />
    <glyph glyph-name="obreve" unicode="&#x14f;" 
d="M314 -11q-134 0 -208 77.5t-74 200.5q0 124 74 202.5t208 78.5t208 -77.5t74 -201.5t-74 -202t-208 -78zM315 426q-56 0 -85.5 -43.5t-29.5 -114.5q0 -70 29 -113.5t84 -43.5q56 0 85.5 43.5t29.5 113.5q0 71 -29 114.5t-84 43.5zM315 683q73 0 73 80h95
q-1 -72 -44.5 -114t-125.5 -42q-81 0 -124.5 42t-43.5 114h95q0 -80 75 -80z" />
    <glyph glyph-name="Ohungarumlaut" unicode="&#x150;" horiz-adv-x="833" 
d="M37 384q0 174 99.5 284.5t280.5 110.5q180 0 279.5 -110t99.5 -285q0 -174 -99.5 -284.5t-280.5 -110.5q-180 0 -279.5 110t-99.5 285zM215 384q0 -113 52 -186.5t150 -73.5t149.5 73t51.5 187q0 113 -52 186.5t-150 73.5t-149.5 -73t-51.5 -187zM655 951l-113 -137h-111
l90 137h134zM468 951l-105 -137h-111l81 137h135z" />
    <glyph glyph-name="ohungarumlaut" unicode="&#x151;" 
d="M314 -11q-134 0 -208 77.5t-74 200.5q0 124 74 202.5t208 78.5t208 -77.5t74 -201.5t-74 -202t-208 -78zM315 426q-56 0 -85.5 -43.5t-29.5 -114.5q0 -70 29 -113.5t84 -43.5q56 0 85.5 43.5t29.5 113.5q0 71 -29 114.5t-84 43.5zM556 768l-117 -162h-108l93 162h132z
M373 768l-109 -162h-108l84 162h133z" />
    <glyph glyph-name="OE" unicode="&#x152;" horiz-adv-x="1073" 
d="M1042 0h-608q-102 0 -179.5 30.5t-123 84.5t-68.5 121.5t-23 146.5q0 173 101.5 279t287.5 106h606v-136h-339v-177h291v-135h-291v-184h346v-136zM522 632h-73q-113 0 -172 -61.5t-59 -183.5q0 -125 61 -188t174 -63h69v496z" />
    <glyph glyph-name="oe" unicode="&#x153;" horiz-adv-x="982" 
d="M312 111q54 0 83 44t29 113q0 70 -29 114t-83 44t-83 -44t-29 -114q0 -69 29 -113t83 -44zM589 320h203q-11 109 -100 109t-103 -109zM834 170l98 -86q-83 -95 -215 -95q-135 0 -205 81q-75 -81 -206 -81q-130 0 -202 77.5t-72 200.5q0 124 72 202.5t202 78.5
q131 0 205 -80q70 80 193 80q120 0 184.5 -73.5t64.5 -192.5q0 -33 -5 -61h-358q8 -52 39.5 -82.5t85.5 -30.5q70 0 119 62z" />
    <glyph glyph-name="Racute" unicode="&#x154;" horiz-adv-x="720" 
d="M514 0l-134 298h-137v-298h-176v768h360q115 0 186.5 -59.5t71.5 -164.5q0 -74 -37.5 -127t-102.5 -79l162 -338h-193zM243 632v-200h164q44 0 72.5 25.5t28.5 74.5t-28.5 74.5t-72.5 25.5h-164zM507 951l-121 -137h-138l91 137h168z" />
    <glyph glyph-name="racute" unicode="&#x155;" horiz-adv-x="423" 
d="M61 0v537h154l4 -85h2q49 95 134 95q24 0 51 -9v-138q-24 4 -51 4q-60 0 -94 -31.5t-34 -77.5v-295h-166zM375 768l-119 -162h-128l89 162h158z" />
    <glyph glyph-name="Rcommaaccent" unicode="&#x156;" horiz-adv-x="720" 
d="M514 0l-134 298h-137v-298h-176v768h360q115 0 186.5 -59.5t71.5 -164.5q0 -74 -37.5 -127t-102.5 -79l162 -338h-193zM243 632v-200h164q44 0 72.5 25.5t28.5 74.5t-28.5 74.5t-72.5 25.5h-164zM451 -37l-82 -163h-122l50 163h154z" />
    <glyph glyph-name="rcommaaccent" unicode="&#x157;" horiz-adv-x="423" 
d="M61 0v537h154l4 -85h2q49 95 134 95q24 0 51 -9v-138q-24 4 -51 4q-60 0 -94 -31.5t-34 -77.5v-295h-166zM252 -37l-82 -163h-122l50 163h154z" />
    <glyph glyph-name="Rcaron" unicode="&#x158;" horiz-adv-x="720" 
d="M514 0l-134 298h-137v-298h-176v768h360q115 0 186.5 -59.5t71.5 -164.5q0 -74 -37.5 -127t-102.5 -79l162 -338h-193zM243 632v-200h164q44 0 72.5 25.5t28.5 74.5t-28.5 74.5t-72.5 25.5h-164zM541 951l-136 -137h-136l-135 137h139l65 -70l65 70h138z" />
    <glyph glyph-name="rcaron" unicode="&#x159;" horiz-adv-x="423" 
d="M61 0v537h154l4 -85h2q49 95 134 95q24 0 51 -9v-138q-24 4 -51 4q-60 0 -94 -31.5t-34 -77.5v-295h-166zM399 768l-121 -162h-130l-121 162h131l55 -85l56 85h130z" />
    <glyph glyph-name="Sacute" unicode="&#x15a;" horiz-adv-x="663" 
d="M329 -11q-195 0 -318 109l93 114q97 -89 228 -89q66 0 100 23.5t34 66.5q0 18 -8.5 31.5t-19.5 23t-37 18t-47 14t-62 14.5q-56 13 -95.5 28t-78 41t-58.5 66.5t-20 94.5q0 103 77.5 169t216.5 66q171 0 291 -98l-82 -117q-98 81 -211 81q-56 0 -86.5 -24t-30.5 -61
q0 -41 35.5 -58t132.5 -39q59 -13 99 -28t79.5 -41t59.5 -67t20 -97q0 -109 -82 -175t-230 -66zM513 951l-121 -137h-138l91 137h168z" />
    <glyph glyph-name="sacute" unicode="&#x15b;" horiz-adv-x="550" 
d="M270 -11q-147 0 -256 70l72 106q84 -61 186 -61q89 0 89 45q0 24 -27.5 34.5t-105.5 25.5q-89 17 -140 55t-51 111q0 75 59.5 124t175.5 49q135 0 239 -65l-65 -105q-84 55 -175 55q-34 0 -52.5 -11.5t-18.5 -28.5q0 -23 25 -33.5t99 -24.5q44 -9 74 -18.5t61.5 -27.5
t47.5 -47.5t16 -69.5q0 -84 -67 -133.5t-186 -49.5zM436 768l-119 -162h-128l89 162h158z" />
    <glyph glyph-name="Scircumflex" unicode="&#x15c;" horiz-adv-x="663" 
d="M329 -11q-195 0 -318 109l93 114q97 -89 228 -89q66 0 100 23.5t34 66.5q0 18 -8.5 31.5t-19.5 23t-37 18t-47 14t-62 14.5q-56 13 -95.5 28t-78 41t-58.5 66.5t-20 94.5q0 103 77.5 169t216.5 66q171 0 291 -98l-82 -117q-98 81 -211 81q-56 0 -86.5 -24t-30.5 -61
q0 -41 35.5 -58t132.5 -39q59 -13 99 -28t79.5 -41t59.5 -67t20 -97q0 -109 -82 -175t-230 -66zM140 814l136 137h136l135 -137h-139l-65 70l-65 -70h-138z" />
    <glyph glyph-name="scircumflex" unicode="&#x15d;" horiz-adv-x="550" 
d="M270 -11q-147 0 -256 70l72 106q84 -61 186 -61q89 0 89 45q0 24 -27.5 34.5t-105.5 25.5q-89 17 -140 55t-51 111q0 75 59.5 124t175.5 49q135 0 239 -65l-65 -105q-84 55 -175 55q-34 0 -52.5 -11.5t-18.5 -28.5q0 -23 25 -33.5t99 -24.5q44 -9 74 -18.5t61.5 -27.5
t47.5 -47.5t16 -69.5q0 -84 -67 -133.5t-186 -49.5zM88 606l120 162h130l122 -162h-132l-55 85l-56 -85h-129z" />
    <glyph glyph-name="Scedilla" unicode="&#x15e;" horiz-adv-x="663" 
d="M317 -182q-52 0 -95 12l13 59q32 -6 49 -6q40 0 40 24t-48 32l16 55q-169 8 -281 106l93 114q97 -89 228 -89q66 0 100 23.5t34 66.5q0 18 -8.5 31.5t-19.5 22.5t-37 17.5t-47 14t-62 14.5q-56 13 -95.5 28t-78 41t-58.5 66.5t-20 94.5q0 102 77.5 168t216.5 66
q171 0 291 -98l-82 -117q-98 81 -211 81q-56 0 -86.5 -24t-30.5 -61q0 -40 35.5 -57t132.5 -39q59 -13 99 -28t79.5 -41t59.5 -66.5t20 -96.5q0 -102 -72 -166.5t-205 -71.5l-6 -19q97 -13 97 -73q0 -37 -35 -60.5t-103 -23.5z" />
    <glyph glyph-name="scedilla" unicode="&#x15f;" horiz-adv-x="550" 
d="M248 -182q-53 0 -94 12l12 59q32 -6 49 -6q40 0 40 24t-48 32l17 56q-116 8 -210 66l72 106q84 -61 186 -61q89 0 89 45q0 23 -27.5 33.5t-105.5 25.5q-89 17 -140 55t-51 111q0 74 59.5 123t175.5 49q135 0 239 -65l-65 -105q-84 55 -175 55q-34 0 -52.5 -11.5
t-18.5 -28.5q0 -22 25 -32.5t99 -24.5q44 -9 74 -18.5t61.5 -27.5t47.5 -47t16 -69q0 -78 -59.5 -127t-166.5 -53l-6 -19q96 -13 96 -73q0 -37 -35 -60.5t-104 -23.5z" />
    <glyph glyph-name="Scaron" unicode="&#x160;" horiz-adv-x="663" 
d="M329 -11q-195 0 -318 109l93 114q97 -89 228 -89q66 0 100 23.5t34 66.5q0 18 -8.5 31.5t-19.5 23t-37 18t-47 14t-62 14.5q-56 13 -95.5 28t-78 41t-58.5 66.5t-20 94.5q0 103 77.5 169t216.5 66q171 0 291 -98l-82 -117q-98 81 -211 81q-56 0 -86.5 -24t-30.5 -61
q0 -41 35.5 -58t132.5 -39q59 -13 99 -28t79.5 -41t59.5 -67t20 -97q0 -109 -82 -175t-230 -66zM547 951l-136 -137h-136l-135 137h139l65 -70l65 70h138z" />
    <glyph glyph-name="scaron" unicode="&#x161;" horiz-adv-x="550" 
d="M270 -11q-147 0 -256 70l72 106q84 -61 186 -61q89 0 89 45q0 24 -27.5 34.5t-105.5 25.5q-89 17 -140 55t-51 111q0 75 59.5 124t175.5 49q135 0 239 -65l-65 -105q-84 55 -175 55q-34 0 -52.5 -11.5t-18.5 -28.5q0 -23 25 -33.5t99 -24.5q44 -9 74 -18.5t61.5 -27.5
t47.5 -47.5t16 -69.5q0 -84 -67 -133.5t-186 -49.5zM460 768l-121 -162h-130l-121 162h131l55 -85l56 85h130z" />
    <glyph glyph-name="Tcommaaccent" unicode="&#x162;" horiz-adv-x="698" 
d="M437 0h-62l-8 -25q96 -14 96 -73q0 -37 -35 -60.5t-103 -23.5q-53 0 -94 12l12 59q32 -6 49 -6q40 0 40 24t-48 32l19 61h-42v630h-244v138h664v-138h-244v-630z" />
    <glyph glyph-name="tcommaaccent" unicode="&#x163;" horiz-adv-x="410" 
d="M382 424h-117v-241q0 -37 17 -55t62 -18q21 0 38 3v-113q-46 -11 -99 -11q-19 0 -28 1l-5 -15q96 -14 96 -73q0 -37 -35 -60.5t-103 -23.5q-53 0 -94 12l12 59q32 -6 49 -6q40 0 40 24t-48 32l20 66q-86 34 -86 146v273h-96v113h96v170h164v-170h117v-113z" />
    <glyph glyph-name="Tcaron" unicode="&#x164;" horiz-adv-x="698" 
d="M437 0h-176v630h-244v138h664v-138h-244v-630zM552 951l-136 -137h-136l-135 137h139l65 -70l65 70h138z" />
    <glyph glyph-name="tcaron" unicode="&#x165;" horiz-adv-x="410" 
d="M5 424v113h96v170h164v-170h117v-113h-117v-241q0 -37 17 -55t62 -18q21 0 38 3v-113q-46 -11 -99 -11q-182 0 -182 162v273h-96zM497 768l-82 -163h-122l50 163h154z" />
    <glyph glyph-name="Tbar" unicode="&#x166;" horiz-adv-x="698" 
d="M437 0h-176v312h-127v124h127v194h-244v138h664v-138h-244v-194h127v-124h-127v-312z" />
    <glyph glyph-name="tbar" unicode="&#x167;" horiz-adv-x="410" 
d="M5 424v113h96v170h164v-170h117v-113h-117v-87h117v-114h-117v-40q0 -37 17 -55t62 -18q21 0 38 3v-113q-46 -11 -99 -11q-182 0 -182 162v72h-96v114h96v87h-96z" />
    <glyph glyph-name="Utilde" unicode="&#x168;" horiz-adv-x="790" 
d="M554 272v496h172v-497q0 -135 -87.5 -208.5t-246.5 -73.5q-148 0 -238 73.5t-90 208.5v497h176v-496q0 -66 42.5 -107t113.5 -41q73 0 115.5 40t42.5 108zM309 951q39 0 98 -22t80 -22q38 0 39 42h76q-2 -61 -32.5 -98t-80.5 -37q-39 0 -98 22t-80 22q-38 0 -39 -42h-76
q2 62 32 98.5t81 36.5z" />
    <glyph glyph-name="utilde" unicode="&#x169;" 
d="M567 537v-537h-154l-3 74h-2q-54 -85 -162 -85q-83 0 -134.5 50.5t-51.5 132.5v365h166v-343q0 -36 20.5 -58.5t59.5 -22.5q45 0 70 25t25 66v333h166zM226 760q38 0 96 -25t78 -25q37 0 38 46h74q-1 -69 -29.5 -105.5t-80.5 -36.5q-38 0 -96 25t-78 25q-37 0 -38 -46
h-74q1 69 29.5 105.5t80.5 36.5z" />
    <glyph glyph-name="Umacron" unicode="&#x16a;" horiz-adv-x="790" 
d="M554 272v496h172v-497q0 -135 -87.5 -208.5t-246.5 -73.5q-148 0 -238 73.5t-90 208.5v497h176v-496q0 -66 42.5 -107t113.5 -41q73 0 115.5 40t42.5 108zM234 834v94h330v-94h-330z" />
    <glyph glyph-name="umacron" unicode="&#x16b;" 
d="M567 537v-537h-154l-3 74h-2q-54 -85 -162 -85q-83 0 -134.5 50.5t-51.5 132.5v365h166v-343q0 -36 20.5 -58.5t59.5 -22.5q45 0 70 25t25 66v333h166zM153 640v94h322v-94h-322z" />
    <glyph glyph-name="Ubreve" unicode="&#x16c;" horiz-adv-x="790" 
d="M554 272v496h172v-497q0 -135 -87.5 -208.5t-246.5 -73.5q-148 0 -238 73.5t-90 208.5v497h176v-496q0 -66 42.5 -107t113.5 -41q73 0 115.5 40t42.5 108zM400 886q75 0 78 65h94q-1 -65 -45.5 -103t-128.5 -38q-83 0 -128 37.5t-45 103.5h95q3 -65 80 -65z" />
    <glyph glyph-name="ubreve" unicode="&#x16d;" 
d="M567 537v-537h-154l-3 74h-2q-54 -85 -162 -85q-83 0 -134.5 50.5t-51.5 132.5v365h166v-343q0 -36 20.5 -58.5t59.5 -22.5q45 0 70 25t25 66v333h166zM315 683q73 0 73 80h95q-1 -72 -44.5 -114t-125.5 -42q-81 0 -124.5 42t-43.5 114h95q0 -80 75 -80z" />
    <glyph glyph-name="Uring" unicode="&#x16e;" horiz-adv-x="790" 
d="M554 272v496h172v-497q0 -135 -87.5 -208.5t-246.5 -73.5q-148 0 -238 73.5t-90 208.5v497h176v-496q0 -66 42.5 -107t113.5 -41q73 0 115.5 40t42.5 108zM267 831q0 52 36.5 86t94.5 34q60 0 96.5 -34t36.5 -86t-36.5 -86.5t-94.5 -34.5q-60 0 -96.5 34t-36.5 87z
M347 831q0 -27 13.5 -44t39.5 -17q25 0 38 17t13 44q0 26 -13.5 43t-39.5 17q-25 0 -38 -17t-13 -43z" />
    <glyph glyph-name="uring" unicode="&#x16f;" 
d="M567 537v-537h-154l-3 74h-2q-54 -85 -162 -85q-83 0 -134.5 50.5t-51.5 132.5v365h166v-343q0 -36 20.5 -58.5t59.5 -22.5q45 0 70 25t25 66v333h166zM182 710q0 52 36.5 86.5t94.5 34.5q60 0 96.5 -34.5t36.5 -86.5t-36.5 -86.5t-94.5 -34.5q-60 0 -96.5 34.5
t-36.5 86.5zM262 710q0 -26 13.5 -43t39.5 -17q25 0 38 17t13 43t-13.5 43t-39.5 17q-25 0 -38 -17t-13 -43z" />
    <glyph glyph-name="Uhungarumlaut" unicode="&#x170;" horiz-adv-x="790" 
d="M554 272v496h172v-497q0 -135 -87.5 -208.5t-246.5 -73.5q-148 0 -238 73.5t-90 208.5v497h176v-496q0 -66 42.5 -107t113.5 -41q73 0 115.5 40t42.5 108zM638 951l-113 -137h-111l90 137h134zM451 951l-105 -137h-111l81 137h135z" />
    <glyph glyph-name="uhungarumlaut" unicode="&#x171;" 
d="M567 537v-537h-154l-3 74h-2q-54 -85 -162 -85q-83 0 -134.5 50.5t-51.5 132.5v365h166v-343q0 -36 20.5 -58.5t59.5 -22.5q45 0 70 25t25 66v333h166zM556 768l-117 -162h-108l93 162h132zM373 768l-109 -162h-108l84 162h133z" />
    <glyph glyph-name="Uogonek" unicode="&#x172;" horiz-adv-x="790" 
d="M552 768h172v-497q0 -95 -45 -160.5t-130 -95.5q-118 -42 -118 -81q0 -26 46 -26q23 0 46 3v-94q-45 -12 -100 -12q-77 0 -114.5 27t-37.5 69q0 58 65 93v2q-125 12 -198.5 82.5t-73.5 192.5v497h176v-496q0 -66 42.5 -107t112.5 -41q73 0 115 40t42 108v496z" />
    <glyph glyph-name="uogonek" unicode="&#x173;" 
d="M567 537v-532q-79 -35 -79 -71q0 -28 44 -28q16 0 35 3v-91q-52 -12 -92 -12q-73 0 -108.5 27t-35.5 68q0 65 86 109l-7 64h-2q-54 -85 -162 -85q-83 0 -134.5 50.5t-51.5 132.5v365h166v-343q0 -36 20.5 -58.5t59.5 -22.5q45 0 70 25t25 66v333h166z" />
    <glyph glyph-name="Wcircumflex" unicode="&#x174;" horiz-adv-x="1095" 
d="M912 768h177l-216 -768h-189l-133 523h-2l-134 -523h-193l-216 768h184l138 -551h2l128 551h189l128 -545h2zM346 814l136 137h136l135 -137h-139l-65 70l-65 -70h-138z" />
    <glyph glyph-name="wcircumflex" unicode="&#x175;" horiz-adv-x="882" 
d="M709 537h163l-166 -537h-174l-90 332h-2l-92 -332h-173l-165 537h170l86 -354h2l90 354h174l89 -356h2zM261 606l120 162h130l122 -162h-132l-55 85l-56 -85h-129z" />
    <glyph glyph-name="Ycircumflex" unicode="&#x176;" horiz-adv-x="720" 
d="M530 768h189l-271 -467v-301h-176v299l-271 469h196l164 -303h2zM161 814l136 137h136l135 -137h-139l-65 70l-65 -70h-138z" />
    <glyph glyph-name="ycircumflex" unicode="&#x177;" horiz-adv-x="585" 
d="M414 537h166l-212 -569q-31 -83 -77.5 -122.5t-128.5 -39.5q-38 0 -80 11v115q23 -7 47 -7q65 0 83 59l-207 553h173l117 -369h2zM113 606l120 162h130l122 -162h-132l-55 85l-56 -85h-129z" />
    <glyph glyph-name="Ydieresis" unicode="&#x178;" horiz-adv-x="720" 
d="M530 768h189l-271 -467v-301h-176v299l-271 469h196l164 -303h2zM411 818v129h137v-129h-137zM182 818v129h137v-129h-137z" />
    <glyph glyph-name="Zacute" unicode="&#x179;" horiz-adv-x="677" 
d="M41 632v136h594v-116l-381 -516h388v-136h-607v116l381 516h-375zM514 951l-121 -137h-138l91 137h168z" />
    <glyph glyph-name="zacute" unicode="&#x17a;" horiz-adv-x="537" 
d="M40 415v122h461v-104l-264 -311h271v-122h-473v104l264 311h-259zM432 768l-119 -162h-128l89 162h158z" />
    <glyph glyph-name="Zdotaccent" unicode="&#x17b;" horiz-adv-x="677" 
d="M41 632v136h594v-116l-381 -516h388v-136h-607v116l381 516h-375zM275 818v129h140v-129h-140z" />
    <glyph glyph-name="zdotaccent" unicode="&#x17c;" horiz-adv-x="537" 
d="M40 415v122h461v-104l-264 -311h271v-122h-473v104l264 311h-259zM202 620v134h136v-134h-136z" />
    <glyph glyph-name="Zcaron" unicode="&#x17d;" horiz-adv-x="677" 
d="M41 632v136h594v-116l-381 -516h388v-136h-607v116l381 516h-375zM548 951l-136 -137h-136l-135 137h139l65 -70l65 70h138z" />
    <glyph glyph-name="zcaron" unicode="&#x17e;" horiz-adv-x="537" 
d="M40 415v122h461v-104l-264 -311h271v-122h-473v104l264 311h-259zM456 768l-121 -162h-130l-121 162h131l55 -85l56 85h130z" />
    <glyph glyph-name="longs" unicode="&#x17f;" horiz-adv-x="353" 
d="M110 0v424h-95v113h95v59q0 183 194 183q49 0 89 -11v-116q-20 5 -44 5q-41 0 -57 -14.5t-16 -49.5v-593h-166z" />
    <glyph glyph-name="florin" unicode="&#x192;" horiz-adv-x="650" 
d="M601 730l-18 -113q-28 7 -56 7q-39 0 -59.5 -16.5t-26.5 -53.5l-9 -60h132l-20 -122h-132l-43 -275q-28 -185 -223 -185q-51 0 -100 15l19 113q28 -7 57 -7q36 0 56.5 16t26.5 54l42 269h-114l20 122h114l10 66q30 185 224 185q53 0 100 -15z" />
    <glyph glyph-name="AEacute" unicode="&#x1fc;" horiz-adv-x="1017" 
d="M640 136h346v-136h-520v168h-218l-76 -168h-183l369 768h621v-136h-339v-177h291v-135h-291v-184zM308 301h158v343l-2 1zM800 951l-121 -137h-138l91 137h168z" />
    <glyph glyph-name="aeacute" unicode="&#x1fd;" horiz-adv-x="903" 
d="M514 320h204q-9 109 -100 109q-90 0 -104 -109zM355 200v28q-55 -4 -95 -10q-62 -10 -62 -54q0 -27 17.5 -43.5t49.5 -16.5q40 0 65 27.5t25 68.5zM177 361l-125 62q60 125 229 125q119 0 178 -57q68 57 170 57q120 0 185 -73.5t65 -192.5q0 -33 -5 -61h-359
q8 -52 39.5 -82.5t86.5 -30.5q70 0 119 62l98 -86q-83 -95 -216 -95q-148 0 -219 97q-63 -97 -198 -97q-92 0 -141 46t-49 118q0 100 94 138q60 25 226 30v32q0 75 -84 75q-67 0 -94 -67zM641 768l-119 -162h-128l89 162h158z" />
    <glyph glyph-name="Oslashacute" unicode="&#x1fe;" horiz-adv-x="833" 
d="M788 759l-81 -102q89 -106 89 -273q0 -174 -99.5 -284.5t-280.5 -110.5q-116 0 -201 48l-79 -100l-91 72l81 102q-89 106 -89 273q0 174 99.5 284.5t280.5 110.5q116 0 201 -48l79 100zM237 251l287 362q-46 32 -108 32q-99 0 -150.5 -73t-51.5 -188q0 -73 23 -133z
M596 517l-287 -362q46 -32 108 -32q99 0 150.5 73t51.5 188q0 73 -23 133zM585 951l-121 -137h-138l91 137h168z" />
    <glyph glyph-name="oslashacute" unicode="&#x1ff;" 
d="M586 527l-54 -67q64 -75 64 -191q0 -124 -74 -202t-208 -78q-80 0 -140 29l-56 -69l-76 61l54 67q-64 75 -64 190q0 125 74 203t208 78q80 0 140 -29l56 69zM202 208l168 207q-22 15 -55 15q-58 0 -88.5 -45.5t-30.5 -116.5q0 -32 6 -60zM425 329l-167 -207
q22 -15 55 -15q58 0 88.5 45.5t30.5 115.5q0 34 -7 61zM476 768l-119 -162h-128l89 162h158z" />
    <glyph glyph-name="Scommaaccent" unicode="&#x218;" horiz-adv-x="663" 
d="M329 -11q-195 0 -318 109l93 114q97 -89 228 -89q66 0 100 23.5t34 66.5q0 18 -8.5 31.5t-19.5 23t-37 18t-47 14t-62 14.5q-56 13 -95.5 28t-78 41t-58.5 66.5t-20 94.5q0 103 77.5 169t216.5 66q171 0 291 -98l-82 -117q-98 81 -211 81q-56 0 -86.5 -24t-30.5 -61
q0 -41 35.5 -58t132.5 -39q59 -13 99 -28t79.5 -41t59.5 -67t20 -97q0 -109 -82 -175t-230 -66zM435 -37l-82 -163h-122l50 163h154z" />
    <glyph glyph-name="scommaaccent" unicode="&#x219;" horiz-adv-x="550" 
d="M270 -11q-147 0 -256 70l72 106q84 -61 186 -61q89 0 89 45q0 24 -27.5 34.5t-105.5 25.5q-89 17 -140 55t-51 111q0 75 59.5 124t175.5 49q135 0 239 -65l-65 -105q-84 55 -175 55q-34 0 -52.5 -11.5t-18.5 -28.5q0 -23 25 -33.5t99 -24.5q44 -9 74 -18.5t61.5 -27.5
t47.5 -47.5t16 -69.5q0 -84 -67 -133.5t-186 -49.5zM375 -37l-82 -163h-122l50 163h154z" />
    <glyph glyph-name="uni021A" unicode="&#x21a;" horiz-adv-x="698" 
d="M437 0h-176v630h-244v138h664v-138h-244v-630zM440 -37l-82 -163h-122l50 163h154z" />
    <glyph glyph-name="uni021B" unicode="&#x21b;" horiz-adv-x="410" 
d="M5 424v113h96v170h164v-170h117v-113h-117v-241q0 -37 17 -55t62 -18q21 0 38 3v-113q-46 -11 -99 -11q-182 0 -182 162v273h-96zM330 -37l-82 -163h-122l50 163h154z" />
    <glyph glyph-name="circumflex" unicode="&#x2c6;" 
d="M128 606l120 162h130l122 -162h-132l-55 85l-56 -85h-129z" />
    <glyph glyph-name="caron" unicode="&#x2c7;" 
d="M500 768l-121 -162h-130l-121 162h131l55 -85l56 85h130z" />
    <glyph glyph-name="breve" unicode="&#x2d8;" 
d="M315 683q73 0 73 80h95q-1 -72 -44.5 -114t-125.5 -42q-81 0 -124.5 42t-43.5 114h95q0 -80 75 -80z" />
    <glyph glyph-name="dotaccent" unicode="&#x2d9;" 
d="M246 620v134h136v-134h-136z" />
    <glyph glyph-name="ring" unicode="&#x2da;" 
d="M182 710q0 52 36.5 86.5t94.5 34.5q60 0 96.5 -34.5t36.5 -86.5t-36.5 -86.5t-94.5 -34.5q-60 0 -96.5 34.5t-36.5 86.5zM262 710q0 -26 13.5 -43t39.5 -17q25 0 38 17t13 43t-13.5 43t-39.5 17q-25 0 -38 -17t-13 -43z" />
    <glyph glyph-name="ogonek" unicode="&#x2db;" 
d="M309 19h131v-18q-92 -33 -92 -69q0 -26 48 -26q20 0 44 3v-92q-48 -11 -95 -11q-77 0 -114 28.5t-37 70.5q0 72 115 114z" />
    <glyph glyph-name="tilde" unicode="&#x2dc;" 
d="M226 760q38 0 96 -25t78 -25q37 0 38 46h74q-1 -69 -29.5 -105.5t-80.5 -36.5q-38 0 -96 25t-78 25q-37 0 -38 -46h-74q1 69 29.5 105.5t80.5 36.5z" />
    <glyph glyph-name="hungarumlaut" unicode="&#x2dd;" 
d="M556 768l-117 -162h-108l93 162h132zM373 768l-109 -162h-108l84 162h133z" />
    <glyph glyph-name="pi" unicode="&#x3c0;" horiz-adv-x="698" 
d="M120 0v415h-89v122h634v-122h-88v-245q0 -30 12.5 -44t43.5 -14q18 0 32 2v-114q-48 -10 -87 -10q-166 0 -166 154v271h-126v-415h-166z" />
    <glyph glyph-name="Wgrave" unicode="&#x1e80;" horiz-adv-x="1095" 
d="M912 768h177l-216 -768h-189l-133 523h-2l-134 -523h-193l-216 768h184l138 -551h2l128 551h189l128 -545h2zM504 814l-121 137h166l90 -137h-135z" />
    <glyph glyph-name="wgrave" unicode="&#x1e81;" horiz-adv-x="882" 
d="M709 537h163l-166 -537h-174l-90 332h-2l-92 -332h-173l-165 537h170l86 -354h2l90 354h174l89 -356h2zM402 606l-119 162h161l89 -162h-131z" />
    <glyph glyph-name="Wacute" unicode="&#x1e82;" horiz-adv-x="1095" 
d="M912 768h177l-216 -768h-189l-133 523h-2l-134 -523h-193l-216 768h184l138 -551h2l128 551h189l128 -545h2zM719 951l-121 -137h-138l91 137h168z" />
    <glyph glyph-name="wacute" unicode="&#x1e83;" horiz-adv-x="882" 
d="M709 537h163l-166 -537h-174l-90 332h-2l-92 -332h-173l-165 537h170l86 -354h2l90 354h174l89 -356h2zM609 768l-119 -162h-128l89 162h158z" />
    <glyph glyph-name="Wdieresis" unicode="&#x1e84;" horiz-adv-x="1095" 
d="M912 768h177l-216 -768h-189l-133 523h-2l-134 -523h-193l-216 768h184l138 -551h2l128 551h189l128 -545h2zM596 818v129h137v-129h-137zM367 818v129h137v-129h-137z" />
    <glyph glyph-name="wdieresis" unicode="&#x1e85;" horiz-adv-x="882" 
d="M709 537h163l-166 -537h-174l-90 332h-2l-92 -332h-173l-165 537h170l86 -354h2l90 354h174l89 -356h2zM487 620v134h133v-134h-133zM274 620v134h133v-134h-133z" />
    <glyph glyph-name="Ygrave" unicode="&#x1ef2;" horiz-adv-x="720" 
d="M530 768h189l-271 -467v-301h-176v299l-271 469h196l164 -303h2zM319 814l-121 137h166l90 -137h-135z" />
    <glyph glyph-name="ygrave" unicode="&#x1ef3;" horiz-adv-x="585" 
d="M414 537h166l-212 -569q-31 -83 -77.5 -122.5t-128.5 -39.5q-38 0 -80 11v115q23 -7 47 -7q65 0 83 59l-207 553h173l117 -369h2zM254 606l-119 162h161l89 -162h-131z" />
    <glyph glyph-name="endash" unicode="&#x2013;" horiz-adv-x="572" 
d="M40 234v128h491v-128h-491z" />
    <glyph glyph-name="emdash" unicode="&#x2014;" horiz-adv-x="868" 
d="M28 242v113h810v-113h-810z" />
    <glyph glyph-name="quoteleft" unicode="&#x2018;" horiz-adv-x="253" 
d="M213 768l-35 -273h-149l63 273h121z" />
    <glyph glyph-name="quoteright" unicode="&#x2019;" horiz-adv-x="253" 
d="M39 495l36 273h148l-63 -273h-121z" />
    <glyph glyph-name="quotesinglbase" unicode="&#x201a;" horiz-adv-x="253" 
d="M39 -92l36 273h148l-63 -273h-121z" />
    <glyph glyph-name="quotedblleft" unicode="&#x201c;" horiz-adv-x="458" 
d="M213 768l-35 -273h-149l63 273h121zM418 768l-35 -273h-149l63 273h121z" />
    <glyph glyph-name="quotedblright" unicode="&#x201d;" horiz-adv-x="458" 
d="M39 495l36 273h148l-63 -273h-121zM244 495l36 273h148l-63 -273h-121z" />
    <glyph glyph-name="quotedblbase" unicode="&#x201e;" horiz-adv-x="458" 
d="M39 -92l36 273h148l-63 -273h-121zM244 -92l36 273h148l-63 -273h-121z" />
    <glyph glyph-name="dagger" unicode="&#x2020;" 
d="M238 -148v582h-177v127h177v207h152v-207h177v-127h-177v-582h-152z" />
    <glyph glyph-name="daggerdbl" unicode="&#x2021;" 
d="M567 434h-177v-248h177v-127h-177v-207h-152v207h-177v127h177v248h-177v127h177v207h152v-207h177v-127z" />
    <glyph glyph-name="bullet" unicode="&#x2022;" horiz-adv-x="388" 
d="M194 189q-59 0 -95 36t-36 90t36 90t95 36q58 0 94.5 -36t36.5 -90t-36.5 -90t-94.5 -36z" />
    <glyph glyph-name="ellipsis" unicode="&#x2026;" horiz-adv-x="903" 
d="M76 0v169h170v-169h-170zM366 0v169h170v-169h-170zM656 0v169h170v-169h-170z" />
    <glyph glyph-name="perthousand" unicode="&#x2030;" horiz-adv-x="1462" 
d="M235 305q-54 0 -91.5 18t-56.5 51t-26.5 69t-7.5 82q0 220 182 220q55 0 92.5 -18t56.5 -51t26.5 -69t7.5 -82t-7.5 -82t-26.5 -69t-56.5 -51t-92.5 -18zM365 0h-123l424 734h123zM235 394q27 0 42 21t18 46t3 64t-3 64t-18 46t-42 21t-41.5 -21t-17.5 -46t-3 -64t3 -64
t17.5 -46t41.5 -21zM1225 429q55 0 92.5 -18t56.5 -51t26.5 -69t7.5 -82t-7.5 -82t-26.5 -69t-56.5 -51t-92.5 -18q-54 0 -91.5 18t-56.5 51t-26.5 69t-7.5 82q0 220 182 220zM795 429q55 0 92.5 -18t56.5 -51t26.5 -69t7.5 -82t-7.5 -82t-26.5 -69t-56.5 -51t-92.5 -18
q-54 0 -91.5 18t-56.5 51t-26.5 69t-7.5 82q0 220 182 220zM1225 340q-27 0 -41.5 -21t-17.5 -46t-3 -64t3 -64t17.5 -46t41.5 -21t42 21t18 46t3 64t-3 64t-18 46t-42 21zM795 340q-27 0 -41.5 -21t-17.5 -46t-3 -64t3 -64t17.5 -46t41.5 -21t42 21t18 46t3 64t-3 64
t-18 46t-42 21z" />
    <glyph glyph-name="guilsinglleft" unicode="&#x2039;" horiz-adv-x="367" 
d="M179 82l-146 199l146 199h142l-145 -199l145 -199h-142z" />
    <glyph glyph-name="guilsinglright" unicode="&#x203a;" horiz-adv-x="367" 
d="M187 480l146 -199l-146 -199h-142l145 199l-145 199h142z" />
    <glyph glyph-name="fraction" unicode="&#x2044;" horiz-adv-x="218" 
d="M-43 0h-125l428 734h125z" />
    <glyph glyph-name="four.superior" unicode="&#x2074;" horiz-adv-x="410" 
d="M413 585v-78h-77v-87h-118v87h-214v62l218 289h114v-273h77zM118 585h100v131h-2z" />
    <glyph glyph-name="Euro" unicode="&#x20ac;" horiz-adv-x="650" 
d="M39 235v103h58q-1 12 -1 33t1 33h-58v103h73q29 110 104 174t199 64q129 0 205 -76l-83 -101q-53 51 -114 51q-101 0 -137 -112h166v-103h-184q-1 -12 -1 -33t1 -33h184v-103h-168q34 -120 140 -120q68 0 118 53l87 -101q-80 -78 -212 -78q-128 0 -204.5 66.5
t-102.5 179.5h-71z" />
    <glyph glyph-name="trademark" unicode="&#x2122;" horiz-adv-x="663" 
d="M516 768h113v-303h-85v172h-2l-41 -172h-72l-41 172h-2v-172h-84v303h116l49 -184h2zM11 701v67h257v-67h-85v-236h-87v236h-85z" />
    <glyph glyph-name="Omega" unicode="&#x2126;" horiz-adv-x="755" 
d="M411 0v140q59 67 91 149t32 159q0 89 -41.5 142.5t-116.5 53.5q-74 0 -115 -53t-41 -143q0 -77 32 -159t91 -149v-140h-302v136h152v2q-71 62 -111 143.5t-40 173.5q0 141 92.5 232.5t242.5 91.5q151 0 243 -91t92 -233q0 -92 -40 -173.5t-111 -143.5v-2h152v-136h-302z
" />
    <glyph glyph-name="estimated" unicode="&#x212e;" horiz-adv-x="755" 
d="M176 137q0 -41 35.5 -71t81 -42.5t91.5 -12.5q67 0 131.5 30.5t106.5 87.5l33 -7q-102 -139 -274 -139q-146 0 -241.5 93t-95.5 229t95.5 229.5t240.5 93.5q138 0 235.5 -84t97.5 -221q0 -16 -5 -19.5t-27 -3.5h-473q-24 0 -28 -4.5t-4 -27.5v-131zM208 328h342
q24 0 28 4.5t4 27.5v125q0 48 -59.5 81.5t-143.5 33.5t-143.5 -33.5t-59.5 -81.5v-125q0 -23 4 -27.5t28 -4.5z" />
    <glyph glyph-name="arrowleft" unicode="&#x2190;" horiz-adv-x="947" 
d="M62 384l424 423l93 -93l-264 -264h559v-132h-559l264 -264l-93 -93z" />
    <glyph glyph-name="arrowup" unicode="&#x2191;" horiz-adv-x="947" 
d="M50 373l423 423l423 -423l-93 -93l-264 264v-559h-132v559l-264 -264z" />
    <glyph glyph-name="arrowright" unicode="&#x2192;" horiz-adv-x="947" 
d="M460 807l424 -423l-424 -423l-93 93l264 264h-559v132h559l-264 264z" />
    <glyph glyph-name="arrowdown" unicode="&#x2193;" horiz-adv-x="947" 
d="M473 -28l-423 423l93 93l264 -264v559h132v-559l264 264l93 -93z" />
    <glyph glyph-name="uni2196" unicode="&#x2196;" horiz-adv-x="947" 
d="M174 78v600h600v-131h-376l397 -397l-93 -93l-397 397v-376h-131z" />
    <glyph glyph-name="uni2197" unicode="&#x2197;" horiz-adv-x="947" 
d="M773 678v-600h-131v376l-397 -397l-92 93l397 397h-376v131h599z" />
    <glyph glyph-name="uni2198" unicode="&#x2198;" horiz-adv-x="947" 
d="M778 678v-600h-599v131h376l-397 397l92 93l397 -397v376h131z" />
    <glyph glyph-name="uni2199" unicode="&#x2199;" horiz-adv-x="947" 
d="M170 78v600h131v-376l396 397l93 -93l-397 -397h376v-131h-599z" />
    <glyph glyph-name="partialdiff" unicode="&#x2202;" horiz-adv-x="663" 
d="M158 637l-46 107q86 42 183 42q166 0 244 -103.5t78 -283.5q0 -61 -8.5 -115.5t-30.5 -110t-56 -95t-90.5 -64.5t-129.5 -25q-123 0 -190.5 66.5t-67.5 178.5q0 116 66 202.5t181 86.5q93 0 156 -61h2q-8 104 -45.5 157t-117.5 53q-61 0 -128 -35zM310 110q133 0 140 250
q-49 46 -111 46q-65 0 -96 -48t-31 -120q0 -128 98 -128z" />
    <glyph glyph-name="Delta" unicode="&#x2206;" horiz-adv-x="720" 
d="M467 768l247 -768h-704l245 768h212zM226 136h260l-129 445h-2z" />
    <glyph glyph-name="product" unicode="&#x220f;" horiz-adv-x="855" 
d="M155 -97v729h-111v136h772v-136h-111v-729h-176v729h-198v-729h-176z" />
    <glyph glyph-name="summation" unicode="&#x2211;" 
d="M43 -97v111l210 345l-207 300v109h534v-136h-326l183 -268l-197 -325h347v-136h-544z" />
    <glyph glyph-name="minus" unicode="&#x2212;" horiz-adv-x="615" 
d="M52 302v120h511v-120h-511z" />
    <glyph glyph-name="radical" unicode="&#x221a;" horiz-adv-x="698" 
d="M311 -116l-191 476l-106 -39l-39 111l235 79l153 -400h2l263 757h151l-359 -984h-109z" />
    <glyph glyph-name="infinity" unicode="&#x221e;" horiz-adv-x="763" 
d="M205 85q-75 0 -125 56t-50 146q0 93 49 145.5t127 52.5q115 0 178 -111h2q67 111 171 111q76 0 125.5 -56t49.5 -146q0 -93 -49 -145.5t-128 -52.5q-113 0 -178 111h-2q-65 -111 -170 -111zM220 191q34 0 57 26t43 73q-23 45 -45 67.5t-56 22.5q-32 0 -49.5 -26
t-17.5 -68t18 -68.5t50 -26.5zM543 190q32 0 49.5 25.5t17.5 68.5q0 42 -18 68.5t-50 26.5q-34 0 -57 -26t-43 -74q15 -29 26 -45t31 -30t44 -14z" />
    <glyph glyph-name="integral" unicode="&#x222b;" horiz-adv-x="367" 
d="M129 53l-56 457q-6 43 -6 82q0 187 196 187q50 0 100 -13v-115q-35 7 -55 7q-40 0 -58 -16t-18 -54q0 -17 5 -57l55 -457q6 -43 6 -82q0 -187 -196 -187q-50 0 -100 13v115q33 -7 55 -7q40 0 58 16t18 54q0 23 -4 57z" />
    <glyph glyph-name="approxequal" unicode="&#x2248;" horiz-adv-x="615" 
d="M301 419q-68 28 -106 28q-26 0 -42.5 -13t-30.5 -46l-84 29q28 139 144 139q54 0 131 -32q68 -28 106 -28q26 0 43 13t30 47l84 -28q-28 -141 -144 -141q-54 0 -131 32zM301 200q-68 28 -106 28q-26 0 -42.5 -13t-30.5 -47l-84 28q28 141 144 141q54 0 131 -32
q68 -28 106 -28q26 0 43 13t30 46l84 -29q-28 -139 -144 -139q-54 0 -131 32z" />
    <glyph glyph-name="notequal" unicode="&#x2260;" horiz-adv-x="615" 
d="M563 415h-167l-71 -106h238v-117h-317l-90 -134l-74 48l58 86h-88v117h167l71 106h-238v117h317l90 134l74 -48l-58 -86h88v-117z" />
    <glyph glyph-name="lessequal" unicode="&#x2264;" horiz-adv-x="615" 
d="M46 391v96l523 207v-127l-334 -127v-2l334 -127v-127zM46 0v115h523v-115h-523z" />
    <glyph glyph-name="greaterequal" unicode="&#x2265;" horiz-adv-x="615" 
d="M569 487v-96l-523 -207v127l334 127v2l-334 127v127zM569 115v-115h-523v115h523z" />
    <glyph glyph-name="lozenge" unicode="&#x25ca;" horiz-adv-x="550" 
d="M31 387l176 381h136l175 -382l-175 -386h-136zM165 387l109 -258h2l109 257l-109 253h-2z" />
    <glyph glyph-name="dotlessj" unicode="&#xf6be;" horiz-adv-x="288" 
d="M-15 -186v113q16 -2 25 -2q28 0 39.5 14t11.5 45v553h166v-575q0 -156 -170 -156q-37 0 -72 8z" />
    <glyph glyph-name="commaaccent" unicode="&#xf6c3;" 
d="M415 -37l-82 -163h-122l50 163h154z" />
    <glyph glyph-name="K001" horiz-adv-x="733" 
d="M67 0v768h176v-311h2l279 311h210l-281 -304l268 -464h-199l-190 345l-89 -91v-254h-176z" />
    <glyph glyph-name="Kcommaaccent001" horiz-adv-x="733" 
d="M67 0v768h176v-311h2l279 311h210l-281 -304l268 -464h-199l-190 345l-89 -91v-254h-176zM452 -37l-82 -163h-122l50 163h154z" />
    <glyph glyph-name="i.TRK" horiz-adv-x="288" 
d="M227 0h-166v537h166v-537z" />
    <glyph glyph-name="a001" horiz-adv-x="585" 
d="M525 0h-153l-4 74h-2q-50 -85 -156 -85q-80 0 -127.5 45.5t-47.5 117.5q0 76 57 116q46 33 144 43q77 8 101.5 17t24.5 35q0 29 -22 47t-63 18q-74 0 -100 -67l-124 62q59 125 235 125q116 0 176.5 -49.5t60.5 -140.5v-358zM268 104q43 0 68 26.5t25 67.5v37
q-19 -9 -70 -15q-30 -3 -46.5 -7t-31.5 -16.5t-15 -34.5q0 -25 18.5 -41.5t51.5 -16.5z" />
    <glyph glyph-name="agrave001" horiz-adv-x="585" 
d="M525 0h-153l-4 74h-2q-50 -85 -156 -85q-80 0 -127.5 45.5t-47.5 117.5q0 76 57 116q46 33 144 43q77 8 101.5 17t24.5 35q0 29 -22 47t-63 18q-74 0 -100 -67l-124 62q59 125 235 125q116 0 176.5 -49.5t60.5 -140.5v-358zM268 104q43 0 68 26.5t25 67.5v37
q-19 -9 -70 -15q-30 -3 -46.5 -7t-31.5 -16.5t-15 -34.5q0 -25 18.5 -41.5t51.5 -16.5zM245 606l-119 162h161l89 -162h-131z" />
    <glyph glyph-name="aacute001" horiz-adv-x="585" 
d="M525 0h-153l-4 74h-2q-50 -85 -156 -85q-80 0 -127.5 45.5t-47.5 117.5q0 76 57 116q46 33 144 43q77 8 101.5 17t24.5 35q0 29 -22 47t-63 18q-74 0 -100 -67l-124 62q59 125 235 125q116 0 176.5 -49.5t60.5 -140.5v-358zM268 104q43 0 68 26.5t25 67.5v37
q-19 -9 -70 -15q-30 -3 -46.5 -7t-31.5 -16.5t-15 -34.5q0 -25 18.5 -41.5t51.5 -16.5zM452 768l-119 -162h-128l89 162h158z" />
    <glyph glyph-name="acircumflex001" horiz-adv-x="585" 
d="M525 0h-153l-4 74h-2q-50 -85 -156 -85q-80 0 -127.5 45.5t-47.5 117.5q0 76 57 116q46 33 144 43q77 8 101.5 17t24.5 35q0 29 -22 47t-63 18q-74 0 -100 -67l-124 62q59 125 235 125q116 0 176.5 -49.5t60.5 -140.5v-358zM268 104q43 0 68 26.5t25 67.5v37
q-19 -9 -70 -15q-30 -3 -46.5 -7t-31.5 -16.5t-15 -34.5q0 -25 18.5 -41.5t51.5 -16.5zM104 606l120 162h130l122 -162h-132l-55 85l-56 -85h-129z" />
    <glyph glyph-name="atilde001" horiz-adv-x="585" 
d="M525 0h-153l-4 74h-2q-50 -85 -156 -85q-80 0 -127.5 45.5t-47.5 117.5q0 76 57 116q46 33 144 43q77 8 101.5 17t24.5 35q0 29 -22 47t-63 18q-74 0 -100 -67l-124 62q59 125 235 125q116 0 176.5 -49.5t60.5 -140.5v-358zM268 104q43 0 68 26.5t25 67.5v37
q-19 -9 -70 -15q-30 -3 -46.5 -7t-31.5 -16.5t-15 -34.5q0 -25 18.5 -41.5t51.5 -16.5zM202 760q38 0 96 -25t78 -25q37 0 38 46h74q-1 -69 -29.5 -105.5t-80.5 -36.5q-38 0 -96 25t-78 25q-37 0 -38 -46h-74q1 69 29.5 105.5t80.5 36.5z" />
    <glyph glyph-name="adieresis001" horiz-adv-x="585" 
d="M525 0h-153l-4 74h-2q-50 -85 -156 -85q-80 0 -127.5 45.5t-47.5 117.5q0 76 57 116q46 33 144 43q77 8 101.5 17t24.5 35q0 29 -22 47t-63 18q-74 0 -100 -67l-124 62q59 125 235 125q116 0 176.5 -49.5t60.5 -140.5v-358zM268 104q43 0 68 26.5t25 67.5v37
q-19 -9 -70 -15q-30 -3 -46.5 -7t-31.5 -16.5t-15 -34.5q0 -25 18.5 -41.5t51.5 -16.5zM330 620v134h133v-134h-133zM117 620v134h133v-134h-133z" />
    <glyph glyph-name="amacron001" horiz-adv-x="585" 
d="M525 0h-153l-4 74h-2q-50 -85 -156 -85q-80 0 -127.5 45.5t-47.5 117.5q0 76 57 116q46 33 144 43q77 8 101.5 17t24.5 35q0 29 -22 47t-63 18q-74 0 -100 -67l-124 62q59 125 235 125q116 0 176.5 -49.5t60.5 -140.5v-358zM268 104q43 0 68 26.5t25 67.5v37
q-19 -9 -70 -15q-30 -3 -46.5 -7t-31.5 -16.5t-15 -34.5q0 -25 18.5 -41.5t51.5 -16.5zM129 640v94h322v-94h-322z" />
    <glyph glyph-name="abreve001" horiz-adv-x="585" 
d="M525 0h-153l-4 74h-2q-50 -85 -156 -85q-80 0 -127.5 45.5t-47.5 117.5q0 76 57 116q46 33 144 43q77 8 101.5 17t24.5 35q0 29 -22 47t-63 18q-74 0 -100 -67l-124 62q59 125 235 125q116 0 176.5 -49.5t60.5 -140.5v-358zM268 104q43 0 68 26.5t25 67.5v37
q-19 -9 -70 -15q-30 -3 -46.5 -7t-31.5 -16.5t-15 -34.5q0 -25 18.5 -41.5t51.5 -16.5zM291 683q73 0 73 80h95q-1 -72 -44.5 -114t-125.5 -42q-81 0 -124.5 42t-43.5 114h95q0 -80 75 -80z" />
    <glyph glyph-name="aring001" horiz-adv-x="585" 
d="M525 0h-153l-4 74h-2q-50 -85 -156 -85q-80 0 -127.5 45.5t-47.5 117.5q0 76 57 116q46 33 144 43q77 8 101.5 17t24.5 35q0 29 -22 47t-63 18q-74 0 -100 -67l-124 62q59 125 235 125q116 0 176.5 -49.5t60.5 -140.5v-358zM268 104q43 0 68 26.5t25 67.5v37
q-19 -9 -70 -15q-30 -3 -46.5 -7t-31.5 -16.5t-15 -34.5q0 -25 18.5 -41.5t51.5 -16.5zM158 710q0 52 36.5 86.5t94.5 34.5q60 0 96.5 -34.5t36.5 -86.5t-36.5 -86.5t-94.5 -34.5q-60 0 -96.5 34.5t-36.5 86.5zM238 710q0 -26 13.5 -43t39.5 -17q25 0 38 17t13 43t-13.5 43
t-39.5 17q-25 0 -38 -17t-13 -43z" />
    <glyph glyph-name="aogonek001" horiz-adv-x="585" 
d="M429 -194q-75 0 -111 27.5t-36 69.5q0 68 94 111l-8 60h-2q-50 -85 -156 -85q-80 0 -127.5 45.5t-47.5 117.5q0 76 57 116q46 33 144 43q77 8 101.5 17t24.5 35q0 29 -22 47t-63 18q-74 0 -100 -67l-124 62q59 125 235 125q116 0 176.5 -49.5t60.5 -140.5v-354
q-87 -36 -87 -71q0 -27 46 -27q18 0 41 3v-91q-52 -12 -96 -12zM268 104q43 0 68 26.5t25 67.5v37q-19 -9 -70 -15q-30 -3 -46.5 -7t-31.5 -16.5t-15 -34.5q0 -25 18.5 -41.5t51.5 -16.5z" />
    <glyph glyph-name="ae001" horiz-adv-x="903" 
d="M514 320h204q-10 109 -100 109t-104 -109zM355 200v38q-22 -11 -67 -16q-29 -3 -45.5 -7t-30.5 -17t-14 -36q0 -26 17 -42t49 -16q42 0 66.5 26.5t24.5 69.5zM177 361l-125 62q60 125 228 125q122 0 178 -58q69 58 171 58q120 0 185 -73.5t65 -192.5q0 -33 -5 -61h-359
q8 -52 39.5 -82.5t86.5 -30.5q70 0 119 62l98 -86q-83 -95 -216 -95q-150 0 -222 101q-62 -101 -198 -101q-91 0 -139 45.5t-48 117.5q0 83 60 120q46 28 136 38q76 8 100 17.5t24 36.5q0 28 -21.5 46t-60.5 18q-69 0 -96 -67z" />
    <glyph glyph-name="aeacute001" horiz-adv-x="903" 
d="M515 320h204q-10 109 -100 109t-104 -109zM356 200v38q-22 -11 -67 -16q-29 -3 -45.5 -7t-30.5 -17t-14 -36q0 -26 17 -42t49 -16q42 0 66.5 26.5t24.5 69.5zM178 361l-125 62q60 125 228 125q122 0 178 -58q69 58 171 58q120 0 185 -73.5t65 -192.5q0 -33 -5 -61h-359
q8 -52 39.5 -82.5t86.5 -30.5q70 0 119 62l98 -86q-83 -95 -216 -95q-150 0 -222 101q-62 -101 -198 -101q-91 0 -139 45.5t-48 117.5q0 83 60 120q46 28 136 38q76 8 100 17.5t24 36.5q0 28 -21.5 46t-60.5 18q-69 0 -96 -67zM642 768l-119 -162h-128l89 162h158z" />
    <glyph glyph-name="k001" horiz-adv-x="585" 
d="M592 537l-192 -213l182 -324h-188l-109 213l-58 -58v-155h-166v768h166v-444h2l175 213h188z" />
    <glyph glyph-name="kcommaaccent001" horiz-adv-x="585" 
d="M592 537l-192 -213l182 -324h-188l-109 213l-58 -58v-155h-166v768h166v-444h2l175 213h188zM418 -37l-82 -163h-122l50 163h154z" />
    <glyph glyph-name="kgreenlandic001" horiz-adv-x="585" 
d="M592 537l-192 -213l182 -324h-188l-109 213l-58 -58v-155h-166v537h166v-213h2l175 213h188z" />
    <glyph glyph-name="l001" horiz-adv-x="323" 
d="M310 115v-115q-33 -11 -86 -11q-163 0 -163 149v630h166v-600q0 -56 53 -56q14 0 30 3z" />
    <glyph glyph-name="lacute001" horiz-adv-x="323" 
d="M310 115v-115q-33 -11 -86 -11q-163 0 -163 149v630h166v-600q0 -56 53 -56q14 0 30 3zM330 951l-121 -137h-138l91 137h168z" />
    <glyph glyph-name="lcaron001" horiz-adv-x="445" 
d="M310 115v-115q-33 -11 -86 -11q-163 0 -163 149v630h166v-600q0 -56 53 -56q14 0 30 3zM467 768l-82 -163h-122l50 163h154z" />
    <glyph glyph-name="lcommaaccent001" horiz-adv-x="323" 
d="M310 115v-115q-33 -11 -86 -11q-163 0 -163 149v630h166v-600q0 -56 53 -56q14 0 30 3zM272 -37l-82 -163h-122l50 163h154z" />
    <glyph glyph-name="lslash001" horiz-adv-x="323" 
d="M310 396l-83 -49v-179q0 -56 53 -56q14 0 30 3v-115q-33 -11 -86 -11q-163 0 -163 149v110l-61 -36v138l61 36v382h166v-285l83 49v-136z" />
    <glyph glyph-name="ldot001" horiz-adv-x="467" 
d="M310 115v-115q-33 -11 -86 -11q-163 0 -163 149v630h166v-600q0 -56 53 -56q14 0 30 3zM309 317v134h136v-134h-136z" />
    <glyph glyph-name="grave.cap" 
d="M268 814l-121 137h166l90 -137h-135z" />
    <glyph glyph-name="acute.cap" 
d="M483 951l-121 -137h-138l91 137h168z" />
    <glyph glyph-name="circumflex.cap" 
d="M110 814l136 137h136l135 -137h-139l-65 70l-65 -70h-138z" />
    <glyph glyph-name="caron.cap" 
d="M517 951l-136 -137h-136l-135 137h139l65 -70l65 70h138z" />
    <glyph glyph-name="commaaccent.alt" 
d="M211 598l84 177h121l-51 -177h-154z" />
    <glyph glyph-name="tilde.cap" 
d="M224 951q39 0 98 -22t80 -22q38 0 39 42h76q-2 -61 -32.5 -98t-80.5 -37q-39 0 -98 22t-80 22q-38 0 -39 -42h-76q2 62 32 98.5t81 36.5z" />
    <glyph glyph-name="dieresis.cap" 
d="M360 818v129h137v-129h-137zM131 818v129h137v-129h-137z" />
    <glyph glyph-name="macron.cap" 
d="M149 834v94h330v-94h-330z" />
    <glyph glyph-name="breve.cap" 
d="M315 886q75 0 78 65h94q-1 -65 -45.5 -103t-128.5 -38q-83 0 -128 37.5t-45 103.5h95q3 -65 80 -65z" />
    <glyph glyph-name="ring.cap" 
d="M182 831q0 52 36.5 86t94.5 34q60 0 96.5 -34t36.5 -86t-36.5 -86.5t-94.5 -34.5q-60 0 -96.5 34t-36.5 87zM262 831q0 -27 13.5 -44t39.5 -17q25 0 38 17t13 44q0 26 -13.5 43t-39.5 17q-25 0 -38 -17t-13 -43z" />
    <glyph glyph-name="hungarumlaut.cap" 
d="M553 951l-113 -137h-111l90 137h134zM366 951l-105 -137h-111l81 137h135z" />
    <glyph glyph-name="dotaccent.cap" 
d="M244 818v129h140v-129h-140z" />
    <glyph glyph-name="hyphen.cap" horiz-adv-x="345" 
d="M45 315v138h254v-138h-254z" />
    <glyph glyph-name="exclamdown.cap" horiz-adv-x="340" 
d="M255 768v-167h-168v167h168zM243 538l19 -538h-182l19 538h144z" />
    <glyph glyph-name="questiondown.cap" horiz-adv-x="515" 
d="M367 768v-167h-168v167h168zM137 381q45 41 59.5 66.5t14.5 74.5v15h144v-29q0 -76 -19.5 -113t-80.5 -94q-32 -30 -46 -52.5t-14 -52.5q0 -37 22 -57t61 -20q65 0 118 63l92 -99q-85 -94 -228 -94q-106 0 -169 53t-63 145q0 61 26 101.5t83 92.5z" />
    <glyph glyph-name="guilsinglleft.cap" horiz-adv-x="367" 
d="M179 185l-146 199l146 199h142l-145 -199l145 -199h-142z" />
    <glyph glyph-name="guilsinglright.cap" horiz-adv-x="367" 
d="M187 583l146 -199l-146 -199h-142l145 199l-145 199h142z" />
    <glyph glyph-name="guillemotleft.cap" horiz-adv-x="593" 
d="M179 185l-146 199l146 199h142l-145 -199l145 -199h-142zM405 185l-146 199l146 199h142l-145 -199l145 -199h-142z" />
    <glyph glyph-name="guillemotright.cap" horiz-adv-x="593" 
d="M187 583l146 -199l-146 -199h-142l145 199l-145 199h142zM413 583l146 -199l-146 -199h-142l145 199l-145 199h142z" />
    <glyph glyph-name="endash.cap" horiz-adv-x="572" 
d="M40 320v128h491v-128h-491z" />
    <glyph glyph-name="emdash.cap" horiz-adv-x="868" 
d="M28 328v113h810v-113h-810z" />
    <glyph glyph-name="periodcentered.cap" horiz-adv-x="323" 
d="M76 299v169h170v-169h-170z" />
    <glyph glyph-name="parenleft.cap" horiz-adv-x="367" 
d="M55 384q0 152 47 277t123 209l105 -65q-122 -184 -122 -421t122 -421l-105 -65q-76 84 -123 209t-47 277z" />
    <glyph glyph-name="parenright.cap" horiz-adv-x="367" 
d="M311 384q0 -152 -47 -277t-123 -209l-105 65q122 184 122 421t-122 421l105 65q76 -84 123 -209t47 -277z" />
    <glyph glyph-name="bracketleft.cap" horiz-adv-x="367" 
d="M72 -74v916h258v-110h-107v-696h107v-110h-258z" />
    <glyph glyph-name="bracketright.cap" horiz-adv-x="367" 
d="M294 842v-916h-258v110h107v696h-107v110h258z" />
    <glyph glyph-name="braceleft.cap" horiz-adv-x="375" 
d="M11 325v118h24q40 0 54.5 14.5t14.5 56.5v180q0 77 39.5 118t119.5 41q56 0 92 -14v-99q-15 3 -36 3q-33 0 -48 -13.5t-15 -48.5v-179q0 -105 -102 -117v-2q102 -12 102 -117v-179q0 -35 15 -48.5t48 -13.5q21 0 36 3v-99q-36 -14 -92 -14q-80 0 -119.5 41t-39.5 118v180
q0 42 -14.5 56.5t-54.5 14.5h-24z" />
    <glyph glyph-name="braceright.cap" horiz-adv-x="375" 
d="M363 443v-118h-24q-40 0 -54.5 -14.5t-14.5 -56.5v-180q0 -77 -39.5 -118t-119.5 -41q-56 0 -92 14v99q15 -3 36 -3q33 0 48 13.5t15 48.5v179q0 105 102 117v2q-102 12 -102 117v179q0 35 -15 48.5t-48 13.5q-21 0 -36 -3v99q36 14 92 14q80 0 119.5 -41t39.5 -118v-180
q0 -42 14.5 -56.5t54.5 -14.5h24z" />
    <glyph glyph-name="at.cap" horiz-adv-x="947" 
d="M475 -27q-198 0 -311.5 115.5t-113.5 293.5q0 85 28 159.5t80 131t134 89t183 32.5q199 0 312 -115.5t113 -293.5q0 -98 -49.5 -157.5t-134.5 -59.5q-95 0 -146 75h-2q-48 -75 -143 -75q-83 0 -132 60.5t-49 153.5t50 155.5t133 62.5t133 -65h2l5 56h111v-251
q0 -76 44 -76q30 0 47.5 30.5t17.5 89.5q0 62 -19 117.5t-56 100t-98 70.5t-138 26q-150 0 -230 -90t-80 -223q0 -62 19 -117.5t56 -100t98 -70.5t138 -26q109 0 189 52l46 -93q-104 -57 -237 -57zM463 264q43 0 66 33.5t23 87.5q0 53 -22.5 85.5t-63.5 32.5
q-42 0 -66 -33.5t-24 -86.5q0 -51 22.5 -85t64.5 -34z" />
    <glyph glyph-name="zero.slash" horiz-adv-x="650" 
d="M324 745q71 0 123.5 -21t84 -55.5t51 -85.5t26 -102.5t6.5 -114.5t-6.5 -114t-26 -101.5t-50.5 -85t-83.5 -55.5t-122.5 -21q-71 0 -123.5 21t-84 55.5t-51 85.5t-26 102.5t-6.5 114.5t6.5 114t26 101.5t50.5 85t83.5 55.5t122.5 21zM325 622q-40 0 -66.5 -21t-38 -61.5
t-15.5 -79t-4 -93.5q0 -78 6 -120h2l182 353q-27 22 -66 22zM325 112q40 0 66.5 21t38 61.5t15.5 79t4 93.5q0 78 -6 120h-2l-182 -353q27 -22 66 -22z" />
    <glyph glyph-name="litre" horiz-adv-x="423" 
d="M56 144l-33 57q56 52 80 77v258q0 102 40.5 158t102.5 56q53 0 84.5 -41.5t31.5 -113.5q0 -157 -159 -328v-66q0 -75 14.5 -105.5t46.5 -30.5q40 0 88 55l37 -48q-60 -86 -148 -86q-69 0 -103 46t-34 123v35q-43 -43 -48 -46zM203 363q85 115 85 232q0 81 -38 81
q-47 0 -47 -132v-181z" />
    <glyph glyph-name="ordfeminine001" horiz-adv-x="402" 
d="M139 408q-54 0 -85.5 30.5t-31.5 78.5q0 30 12.5 51t35 31.5t41 15t43.5 6.5q50 5 66.5 11t16.5 22t-12 26t-34 10q-45 0 -66 -40l-91 49q47 80 163 80q82 0 123 -33t41 -94v-237h-115l-1 46h-2q-31 -53 -104 -53zM182 491q24 0 39 14.5t15 37.5v24q-9 -5 -38 -8
q-19 -3 -28 -5t-18.5 -9.5t-9.5 -20.5q0 -33 40 -33z" />
    <glyph glyph-name="fl001" horiz-adv-x="717" 
d="M110 0v424h-95v113h95v59q0 183 194 183q49 0 89 -11v-116q-20 5 -44 5q-41 0 -57 -14.5t-16 -49.5v-56h117v-113h-117v-424h-166zM720 115v-115q-33 -11 -86 -11q-163 0 -163 149v630h166v-600q0 -56 53 -56q14 0 30 3z" />
    <glyph glyph-name="blackleftpointingtriangle" horiz-adv-x="733" 
d="M89 384l516 298v-596z" />
    <glyph glyph-name="blackrightpointingtriangle" horiz-adv-x="733" 
d="M127 682l516 -298l-516 -298v596z" />
    <glyph glyph-name="whiteleftpointingtriangle" horiz-adv-x="733" 
d="M89 384l516 298v-596zM277 384l231 -134v268z" />
    <glyph glyph-name="whiterightpointingtriangle" horiz-adv-x="733" 
d="M127 682l516 -298l-516 -298v596zM224 250l231 134l-231 134v-268z" />
    <glyph glyph-name="Aogonek.alt" horiz-adv-x="777" 
d="M494 768l280 -765q-102 -10 -102 -41q0 -21 49 -21q19 0 45 2v-91q-53 -11 -98 -11q-79 0 -116.5 28.5t-37.5 70.5q0 55 68 90l-47 138h-299l-57 -168h-177l280 768h212zM281 301h209l-103 307h-2z" />
    <glyph glyph-name="Ccedilla.alt" horiz-adv-x="733" 
d="M373 -159q-51 0 -91 11l11 58q27 -5 45 -5q38 0 38 20q0 19 -45 29l16 48q-146 16 -228 121t-82 261q0 173 99.5 284t275.5 111q206 0 308 -165l-127 -83q-61 113 -175 113q-99 0 -151 -73t-52 -185t52 -185t154 -73q115 0 176 109l126 -79q-102 -160 -305 -160l-5 -14
q93 -14 93 -68q0 -33 -34 -54t-99 -21z" />
    <glyph glyph-name="Eogonek.alt" horiz-adv-x="642" 
d="M67 0v768h537v-136h-362v-177h314v-135h-314v-184h369v-134q-83 -10 -83 -40q0 -21 43 -21q18 0 40 2v-92q-45 -10 -99 -10q-75 0 -110.5 22t-35.5 57q0 52 68 78v2h-367z" />
    <glyph glyph-name="Gcommaaccent.alt" horiz-adv-x="812" 
d="M423 425h329v-425h-154l-4 79h-2q-72 -90 -208 -90q-165 0 -256 110t-91 279q0 114 43.5 203.5t132.5 143.5t212 54q207 0 316 -155l-125 -87q-70 107 -186 107q-103 0 -159 -73.5t-56 -189.5q0 -117 52 -187.5t152 -70.5q73 0 119 41.5t46 114.5v13h-161v133zM484 -33
l-77 -149h-125l47 149h155z" />
    <glyph glyph-name="Iogonek.alt" horiz-adv-x="310" 
d="M243 768v-755q-66 -17 -66 -47q0 -25 54 -25q20 0 38 2v-92q-56 -10 -98 -10q-80 0 -118 28.5t-38 70.5q0 48 52 88v740h176z" />
    <glyph glyph-name="Kcommaaccent.alt" horiz-adv-x="733" 
d="M522 0l-174 320h-105v-320h-176v768h176v-313h107l168 313h192l-211 -378l222 -390h-199zM452 -33l-77 -149h-125l47 149h155z" />
    <glyph glyph-name="Kcommaaccent001.alt" horiz-adv-x="733" 
d="M67 0v768h176v-311h2l279 311h210l-281 -304l268 -464h-199l-190 345l-89 -91v-254h-176zM452 -33l-77 -149h-125l47 149h155z" />
    <glyph glyph-name="Lcommaaccent.alt" horiz-adv-x="615" 
d="M67 0v768h176v-630h358v-138h-534zM424 -33l-77 -149h-125l47 149h155z" />
    <glyph glyph-name="Ncommaaccent.alt" horiz-adv-x="812" 
d="M574 768h171v-768h-171l-334 516h-2v-516h-171v768h194l311 -496h2v496zM502 -33l-77 -149h-125l47 149h155z" />
    <glyph glyph-name="Rcommaaccent.alt" horiz-adv-x="720" 
d="M514 0l-134 298h-137v-298h-176v768h360q115 0 186.5 -59.5t71.5 -164.5q0 -74 -37.5 -127t-102.5 -79l162 -338h-193zM243 632v-200h164q44 0 72.5 25.5t28.5 74.5t-28.5 74.5t-72.5 25.5h-164zM451 -33l-77 -149h-125l47 149h155z" />
    <glyph glyph-name="Scedilla.alt" horiz-adv-x="663" 
d="M320 -159q-50 0 -92 11l12 58q25 -5 44 -5q38 0 38 20q0 19 -45 29l15 45q-170 7 -281 104l93 114q97 -89 228 -89q134 0 134 89q0 41 -37.5 59t-136.5 40q-55 13 -95 28t-78.5 41t-58.5 66t-20 94q0 102 77.5 168t216.5 66q171 0 291 -98l-82 -117q-98 81 -211 81
q-56 0 -86.5 -24t-30.5 -60q0 -40 35.5 -57t132.5 -39q59 -13 99 -28t79.5 -40.5t59.5 -66t20 -96.5q0 -101 -72.5 -165.5t-205.5 -70.5l-4 -14q93 -14 93 -68q0 -33 -33.5 -54t-98.5 -21z" />
    <glyph glyph-name="Scommaaccent.alt" horiz-adv-x="663" 
d="M329 -11q-195 0 -318 109l93 114q97 -89 228 -89q66 0 100 23.5t34 66.5q0 18 -8.5 31.5t-19.5 23t-37 18t-47 14t-62 14.5q-56 13 -95.5 28t-78 41t-58.5 66.5t-20 94.5q0 103 77.5 169t216.5 66q171 0 291 -98l-82 -117q-98 81 -211 81q-56 0 -86.5 -24t-30.5 -61
q0 -41 35.5 -58t132.5 -39q59 -13 99 -28t79.5 -41t59.5 -67t20 -97q0 -109 -82 -175t-230 -66zM435 -33l-77 -149h-125l47 149h155z" />
    <glyph glyph-name="Tcommaaccent.alt" horiz-adv-x="698" 
d="M437 0h-58l-5 -15q92 -15 92 -69q0 -33 -33.5 -54t-98.5 -21q-51 0 -91 11l11 58q25 -5 45 -5q37 0 37 20q0 19 -45 29l15 46h-45v630h-244v138h664v-138h-244v-630z" />
    <glyph glyph-name="uni021A.alt" horiz-adv-x="698" 
d="M437 0h-176v630h-244v138h664v-138h-244v-630zM440 -33l-77 -149h-125l47 149h155z" />
    <glyph glyph-name="Uogonek.alt" horiz-adv-x="790" 
d="M552 768h172v-498q0 -106 -55.5 -174t-160.5 -91q-70 -16 -70 -43q0 -21 49 -21q18 0 44 2v-92q-56 -10 -100 -10q-78 0 -114 22.5t-36 59.5q0 46 43 71v2q-121 16 -190.5 86.5t-69.5 187.5v498h176v-496q0 -66 42.5 -107t112.5 -41q73 0 115 40t42 108v496z" />
    <glyph glyph-name="Eng.alt" horiz-adv-x="812" 
d="M574 768h171v-721q0 -92 -54.5 -149t-157.5 -57q-68 0 -138 31l42 118q35 -19 73 -19q47 0 59 36l-329 508h-2v-515h-171v768h194l311 -496h2v496z" />
    <glyph glyph-name="g.alt" horiz-adv-x="642" 
d="M581 537v-435q0 -129 -80.5 -195t-224.5 -66q-114 0 -209 43l42 112q78 -40 163 -40q146 0 146 132q0 18 -1 24h-2q-54 -76 -157 -76t-165 69t-62 179q0 112 63.5 188t167.5 76q106 0 167 -88h2l4 77h146zM308 148q53 0 83 39t30 102q0 62 -29.5 100.5t-82.5 38.5
t-81.5 -39.5t-28.5 -101.5q0 -61 27.5 -100t81.5 -39z" />
    <glyph glyph-name="j.alt" horiz-adv-x="288" 
d="M-15 -151v108q16 -2 25 -2q28 0 39.5 14t11.5 45v523h166v-540q0 -156 -170 -156q-37 0 -72 8zM59 628v140h170v-140h-170z" />
    <glyph glyph-name="p.alt" horiz-adv-x="650" 
d="M385 -11q-95 0 -156 75h-2v-212h-166v685h154l4 -77h2q66 88 166 88q105 0 166 -78t61 -200q0 -121 -63 -201t-166 -80zM333 112q55 0 84 43t29 113q0 68 -29 112.5t-83 44.5q-55 0 -84 -44t-29 -115q0 -70 29 -112t83 -42z" />
    <glyph glyph-name="q.alt" horiz-adv-x="650" 
d="M268 548q107 0 169 -85h2l4 74h146v-685h-166v220h-2q-63 -83 -164 -83q-100 0 -160.5 78.5t-60.5 196.5q0 122 63.5 203t168.5 81zM319 425q-54 0 -84.5 -43.5t-30.5 -114.5q0 -68 29 -111.5t84 -43.5q56 0 84 43.5t28 113.5t-28 113t-82 43z" />
    <glyph glyph-name="y.alt" horiz-adv-x="585" 
d="M414 537h166l-199 -534q-31 -84 -77 -123t-127 -39q-44 0 -82 12v109q24 -6 47 -6q47 0 68 35l-205 546h173l117 -369h2z" />
    <glyph glyph-name="aogonek.alt" horiz-adv-x="585" 
d="M440 -159q-71 0 -105 26t-34 64q0 57 76 96l-9 47h-2q-50 -85 -157 -85q-79 0 -126.5 46t-47.5 118q0 106 103 141q63 21 223 27v32q0 34 -22.5 54.5t-62.5 20.5q-73 0 -99 -67l-124 62q60 125 232 125q118 0 179 -50.5t61 -140.5v-337q-68 -23 -68 -54q0 -26 43 -26
q11 0 25 2v-91q-42 -10 -85 -10zM268 104q42 0 67.5 27t25.5 69v28q-61 -4 -100 -10q-63 -10 -63 -56q0 -25 18.5 -41.5t51.5 -16.5z" />
    <glyph glyph-name="aogonek001.alt" horiz-adv-x="585" 
d="M440 -159q-71 0 -105 26t-34 64q0 57 76 96l-9 47h-2q-50 -85 -156 -85q-80 0 -127.5 45.5t-47.5 117.5q0 76 57 116q46 33 144 43q77 8 101.5 17t24.5 35q0 29 -22 47t-63 18q-74 0 -100 -67l-124 62q59 125 235 125q116 0 176.5 -49.5t60.5 -140.5v-338
q-68 -23 -68 -54q0 -26 43 -26q11 0 25 2v-91q-42 -10 -85 -10zM268 104q43 0 68 26.5t25 67.5v37q-19 -9 -70 -15q-30 -3 -46.5 -7t-31.5 -16.5t-15 -34.5q0 -25 18.5 -41.5t51.5 -16.5z" />
    <glyph glyph-name="ccedilla.alt" horiz-adv-x="558" 
d="M274 -159q-52 0 -92 11l11 58q27 -5 45 -5q38 0 38 20q0 19 -45 29l16 48q-102 15 -158.5 88t-56.5 179q0 124 73.5 201.5t205.5 77.5q171 0 238 -134l-126 -67q-35 79 -106 79q-57 0 -87 -43.5t-30 -112.5t30.5 -112t88.5 -43q76 0 112 79l122 -66q-64 -129 -235 -130
l-5 -14q93 -14 93 -68q0 -33 -33.5 -54t-98.5 -21z" />
    <glyph glyph-name="eogonek.alt" horiz-adv-x="593" 
d="M198 320h205q-5 53 -28 81t-72 28q-94 0 -105 -109zM426 -159q-73 0 -109 24.5t-36 61.5t35 63v2q-138 1 -211 75t-73 200q0 125 71.5 203t200.5 78q126 0 193 -73.5t67 -190.5q0 -40 -4 -63h-362q15 -113 125 -113q75 0 121 62l101 -86q-20 -25 -51 -46
q-32 -23 -46 -37.5t-14 -30.5q0 -31 50 -31q12 0 28 2v-90q-42 -10 -86 -10z" />
    <glyph glyph-name="gcircumflex.alt" horiz-adv-x="642" 
d="M581 537v-435q0 -129 -80.5 -195t-224.5 -66q-114 0 -209 43l42 112q78 -40 163 -40q146 0 146 132q0 18 -1 24h-2q-54 -76 -157 -76t-165 69t-62 179q0 112 63.5 188t167.5 76q106 0 167 -88h2l4 77h146zM308 148q53 0 83 39t30 102q0 62 -29.5 100.5t-82.5 38.5
t-81.5 -39.5t-28.5 -101.5q0 -61 27.5 -100t81.5 -39zM139 606l120 162h130l122 -162h-132l-55 85l-56 -85h-129z" />
    <glyph glyph-name="gbreve.alt" horiz-adv-x="642" 
d="M581 537v-435q0 -129 -80.5 -195t-224.5 -66q-114 0 -209 43l42 112q78 -40 163 -40q146 0 146 132q0 18 -1 24h-2q-54 -76 -157 -76t-165 69t-62 179q0 112 63.5 188t167.5 76q106 0 167 -88h2l4 77h146zM308 148q53 0 83 39t30 102q0 62 -29.5 100.5t-82.5 38.5
t-81.5 -39.5t-28.5 -101.5q0 -61 27.5 -100t81.5 -39zM326 683q73 0 73 80h95q-1 -72 -44.5 -114t-125.5 -42q-81 0 -124.5 42t-43.5 114h95q0 -80 75 -80z" />
    <glyph glyph-name="gdotaccent.alt" horiz-adv-x="642" 
d="M581 537v-435q0 -129 -80.5 -195t-224.5 -66q-114 0 -209 43l42 112q78 -40 163 -40q146 0 146 132q0 18 -1 24h-2q-54 -76 -157 -76t-165 69t-62 179q0 112 63.5 188t167.5 76q106 0 167 -88h2l4 77h146zM308 148q53 0 83 39t30 102q0 62 -29.5 100.5t-82.5 38.5
t-81.5 -39.5t-28.5 -101.5q0 -61 27.5 -100t81.5 -39zM257 620v134h136v-134h-136z" />
    <glyph glyph-name="gcommaaccent.alt" horiz-adv-x="642" 
d="M581 537v-435q0 -129 -80.5 -195t-224.5 -66q-114 0 -209 43l42 112q78 -40 163 -40q146 0 146 132q0 18 -1 24h-2q-54 -76 -157 -76t-165 69t-62 179q0 112 63.5 188t167.5 76q106 0 167 -88h2l4 77h146zM308 148q53 0 83 39t30 102q0 62 -29.5 100.5t-82.5 38.5
t-81.5 -39.5t-28.5 -101.5q0 -61 27.5 -100t81.5 -39zM238 598l84 177h121l-51 -177h-154z" />
    <glyph glyph-name="iogonek.alt" horiz-adv-x="288" 
d="M59 628v140h170v-140h-170zM227 537v-526q-64 -17 -64 -47q0 -25 54 -25q19 0 39 2v-90q-54 -10 -96 -10q-79 0 -116.5 27.5t-37.5 69.5q0 50 55 91v508h166z" />
    <glyph glyph-name="dotlessj.alt" horiz-adv-x="288" 
d="M-15 -151v108q16 -2 25 -2q28 0 39.5 14t11.5 45v523h166v-540q0 -156 -170 -156q-37 0 -72 8z" />
    <glyph glyph-name="jcircumflex.alt" horiz-adv-x="288" 
d="M-15 -151v108q16 -2 25 -2q28 0 39.5 14t11.5 45v523h166v-540q0 -156 -170 -156q-37 0 -72 8zM-42 606l120 162h130l122 -162h-132l-55 85l-56 -85h-129z" />
    <glyph glyph-name="ij.alt" horiz-adv-x="572" 
d="M59 628v140h170v-140h-170zM227 0h-166v537h166v-537zM268 -151v108q16 -2 25 -2q28 0 39.5 14t11.5 45v523h166v-540q0 -156 -170 -156q-37 0 -72 8zM342 628v140h170v-140h-170z" />
    <glyph glyph-name="kcommaaccent.alt" horiz-adv-x="585" 
d="M389 0l-119 222h-43v-222h-166v768h166v-433h43l113 202h190l-162 -257l170 -280h-192zM416 -33l-77 -149h-125l47 149h155z" />
    <glyph glyph-name="kcommaaccent001.alt" horiz-adv-x="585" 
d="M592 537l-192 -213l182 -324h-188l-109 213l-58 -58v-155h-166v768h166v-444h2l175 213h188zM418 -33l-77 -149h-125l47 149h155z" />
    <glyph glyph-name="lcommaaccent.alt" horiz-adv-x="288" 
d="M227 0h-166v768h166v-768zM243 -33l-77 -149h-125l47 149h155z" />
    <glyph glyph-name="lcommaaccent001.alt" horiz-adv-x="323" 
d="M310 115v-115q-33 -11 -86 -11q-163 0 -163 149v630h166v-600q0 -56 53 -56q14 0 30 3zM272 -33l-77 -149h-125l47 149h155z" />
    <glyph glyph-name="ncommaaccent.alt" 
d="M61 0v537h154l3 -74h2q54 85 161 85q85 0 136 -50t51 -133v-365h-166v347q0 34 -20.5 55.5t-57.5 21.5q-45 0 -71 -27t-26 -70v-327h-166zM418 -33l-77 -149h-125l47 149h155z" />
    <glyph glyph-name="rcommaaccent.alt" horiz-adv-x="423" 
d="M61 0v537h154l4 -85h2q49 95 134 95q24 0 51 -9v-138q-24 4 -51 4q-60 0 -94 -31.5t-34 -77.5v-295h-166zM252 -33l-77 -149h-125l47 149h155z" />
    <glyph glyph-name="scedilla.alt" horiz-adv-x="550" 
d="M253 -159q-52 0 -92 11l11 58q27 -5 45 -5q38 0 38 20q0 19 -45 29l14 44q-117 8 -210 67l72 105q84 -61 186 -61q89 0 89 44q0 12 -7 20t-28.5 15t-38 11t-59.5 12q-57 11 -96.5 28t-67 52t-27.5 85q0 74 59.5 123t175.5 49q135 0 239 -65l-65 -105q-84 55 -175 55
q-34 0 -52.5 -11t-18.5 -28q0 -23 24.5 -33t99.5 -24q45 -9 74.5 -18.5t61 -27t47.5 -46.5t16 -69q0 -78 -59.5 -126t-166.5 -52l-5 -14q93 -14 93 -68q0 -33 -33.5 -54t-98.5 -21z" />
    <glyph glyph-name="scommaaccent.alt" horiz-adv-x="550" 
d="M270 -11q-147 0 -256 70l72 106q84 -61 186 -61q89 0 89 45q0 24 -27.5 34.5t-105.5 25.5q-89 17 -140 55t-51 111q0 75 59.5 124t175.5 49q135 0 239 -65l-65 -105q-84 55 -175 55q-34 0 -52.5 -11.5t-18.5 -28.5q0 -23 25 -33.5t99 -24.5q44 -9 74 -18.5t61.5 -27.5
t47.5 -47.5t16 -69.5q0 -84 -67 -133.5t-186 -49.5zM375 -33l-77 -149h-125l47 149h155z" />
    <glyph glyph-name="tcommaaccent.alt" horiz-adv-x="410" 
d="M382 424h-117v-238q0 -37 17 -55t62 -18q21 0 38 3v-110q-39 -11 -99 -11q-20 0 -29 1l-4 -11q92 -15 92 -69q0 -33 -33.5 -54t-98.5 -21q-51 0 -91 11l11 58q25 -5 45 -5q37 0 37 20q0 19 -45 29l19 57q-85 35 -85 146v267h-96v113h96v170h164v-170h117v-113z" />
    <glyph glyph-name="uni021B.alt" horiz-adv-x="410" 
d="M5 424v113h96v170h164v-170h117v-113h-117v-241q0 -37 17 -55t62 -18q21 0 38 3v-113q-46 -11 -99 -11q-182 0 -182 162v273h-96zM330 -33l-77 -149h-125l47 149h155z" />
    <glyph glyph-name="uogonek.alt" 
d="M567 537v-517q-67 -23 -67 -54q0 -26 42 -26q11 0 25 2v-91q-42 -10 -85 -10q-71 0 -105 26t-34 64q0 57 74 96l-7 47h-2q-54 -85 -162 -85q-83 0 -134.5 50.5t-51.5 132.5v365h166v-343q0 -36 20.5 -58.5t59.5 -22.5q45 0 70 25t25 66v333h166z" />
    <glyph glyph-name="ygrave.alt" horiz-adv-x="585" 
d="M414 537h166l-199 -534q-31 -84 -77 -123t-127 -39q-44 0 -82 12v109q24 -6 47 -6q47 0 68 35l-205 546h173l117 -369h2zM254 606l-119 162h161l89 -162h-131z" />
    <glyph glyph-name="yacute.alt" horiz-adv-x="585" 
d="M414 537h166l-199 -534q-31 -84 -77 -123t-127 -39q-44 0 -82 12v109q24 -6 47 -6q47 0 68 35l-205 546h173l117 -369h2zM461 768l-119 -162h-128l89 162h158z" />
    <glyph glyph-name="ycircumflex.alt" horiz-adv-x="585" 
d="M414 537h166l-199 -534q-31 -84 -77 -123t-127 -39q-44 0 -82 12v109q24 -6 47 -6q47 0 68 35l-205 546h173l117 -369h2zM113 606l120 162h130l122 -162h-132l-55 85l-56 -85h-129z" />
    <glyph glyph-name="ydieresis.alt" horiz-adv-x="585" 
d="M414 537h166l-199 -534q-31 -84 -77 -123t-127 -39q-44 0 -82 12v109q24 -6 47 -6q47 0 68 35l-205 546h173l117 -369h2zM339 620v134h133v-134h-133zM126 620v134h133v-134h-133z" />
    <glyph glyph-name="eng.alt" 
d="M61 0v537h154l3 -74h2q54 85 161 85q85 0 136 -50t51 -133v-369q0 -155 -174 -155q-45 0 -81 9v107q16 -2 33 -2q31 0 43.5 14t12.5 45v333q0 34 -20.5 55.5t-57.5 21.5q-45 0 -71 -27t-26 -70v-327h-166z" />
    <glyph glyph-name="thorn.alt" horiz-adv-x="650" 
d="M388 -11q-98 0 -159 77h-2v-214h-166v916h166v-297h2q61 77 159 77q104 0 165 -78t61 -199q0 -122 -62 -202t-164 -80zM333 112q55 0 84 43t29 113q0 68 -29 112.5t-84 44.5q-54 0 -83 -44t-29 -115q0 -70 29 -112t83 -42z" />
    <glyph glyph-name="exclamdown.alt" horiz-adv-x="340" 
d="M255 620v-167h-168v167h168zM243 390l19 -538h-182l19 538h144z" />
    <glyph glyph-name="questiondown.alt" horiz-adv-x="515" 
d="M367 620v-167h-168v167h168zM137 233q45 41 59.5 66.5t14.5 74.5v15h144v-29q0 -76 -19.5 -113t-80.5 -94q-32 -30 -46 -52.5t-14 -52.5q0 -37 22 -57t61 -20q65 0 118 63l92 -99q-85 -94 -228 -94q-106 0 -169 53t-63 145q0 61 26 101.5t83 92.5z" />
    <glyph glyph-name="commaaccent.alt001" 
d="M415 -33l-77 -149h-125l47 149h155z" />
    <glyph glyph-name="cedilla.alt" 
d="M349 27l-14 -42q92 -15 92 -69q0 -33 -33.5 -54t-98.5 -21q-51 0 -91 11l11 58q25 -5 45 -5q37 0 37 20q0 19 -45 29l24 73h73z" />
    <glyph glyph-name="ogonek.alt" 
d="M290 19h146v-19q-92 -9 -92 -39q0 -22 48 -22q24 0 44 3v-90q-48 -11 -95 -11q-72 0 -106.5 24t-34.5 60q0 61 90 94z" />
    <glyph glyph-name="a002" horiz-adv-x="642" 
d="M255 -11q-100 0 -160 78t-60 196q0 123 62.5 204t166.5 81q102 0 164 -82h2l4 71h147v-537h-156l-3 71h-2q-62 -82 -165 -82zM312 112q53 0 81 43.5t28 113.5t-28 113t-80 43t-81 -44t-29 -114q0 -68 27.5 -111.5t81.5 -43.5z" />
    <glyph glyph-name="agrave002" horiz-adv-x="642" 
d="M255 -11q-100 0 -160 78t-60 196q0 123 62.5 204t166.5 81q102 0 164 -82h2l4 71h147v-537h-156l-3 71h-2q-62 -82 -165 -82zM312 112q53 0 81 43.5t28 113.5t-28 113t-80 43t-81 -44t-29 -114q0 -68 27.5 -111.5t81.5 -43.5zM267 606l-119 162h161l89 -162h-131z" />
    <glyph glyph-name="aacute002" horiz-adv-x="642" 
d="M255 -11q-100 0 -160 78t-60 196q0 123 62.5 204t166.5 81q102 0 164 -82h2l4 71h147v-537h-156l-3 71h-2q-62 -82 -165 -82zM312 112q53 0 81 43.5t28 113.5t-28 113t-80 43t-81 -44t-29 -114q0 -68 27.5 -111.5t81.5 -43.5zM474 768l-119 -162h-128l89 162h158z" />
    <glyph glyph-name="acircumflex002" horiz-adv-x="642" 
d="M255 -11q-100 0 -160 78t-60 196q0 123 62.5 204t166.5 81q102 0 164 -82h2l4 71h147v-537h-156l-3 71h-2q-62 -82 -165 -82zM312 112q53 0 81 43.5t28 113.5t-28 113t-80 43t-81 -44t-29 -114q0 -68 27.5 -111.5t81.5 -43.5zM126 606l120 162h130l122 -162h-132l-55 85
l-56 -85h-129z" />
    <glyph glyph-name="atilde002" horiz-adv-x="642" 
d="M255 -11q-100 0 -160 78t-60 196q0 123 62.5 204t166.5 81q102 0 164 -82h2l4 71h147v-537h-156l-3 71h-2q-62 -82 -165 -82zM312 112q53 0 81 43.5t28 113.5t-28 113t-80 43t-81 -44t-29 -114q0 -68 27.5 -111.5t81.5 -43.5zM224 760q38 0 96 -25t78 -25q37 0 38 46h74
q-1 -69 -29.5 -105.5t-80.5 -36.5q-38 0 -96 25t-78 25q-37 0 -38 -46h-74q1 69 29.5 105.5t80.5 36.5z" />
    <glyph glyph-name="adieresis002" horiz-adv-x="642" 
d="M255 -11q-100 0 -160 78t-60 196q0 123 62.5 204t166.5 81q102 0 164 -82h2l4 71h147v-537h-156l-3 71h-2q-62 -82 -165 -82zM312 112q53 0 81 43.5t28 113.5t-28 113t-80 43t-81 -44t-29 -114q0 -68 27.5 -111.5t81.5 -43.5zM352 620v134h133v-134h-133zM139 620v134
h133v-134h-133z" />
    <glyph glyph-name="amacron002" horiz-adv-x="642" 
d="M255 -11q-100 0 -160 78t-60 196q0 123 62.5 204t166.5 81q102 0 164 -82h2l4 71h147v-537h-156l-3 71h-2q-62 -82 -165 -82zM312 112q53 0 81 43.5t28 113.5t-28 113t-80 43t-81 -44t-29 -114q0 -68 27.5 -111.5t81.5 -43.5zM151 640v94h322v-94h-322z" />
    <glyph glyph-name="abreve002" horiz-adv-x="642" 
d="M255 -11q-100 0 -160 78t-60 196q0 123 62.5 204t166.5 81q102 0 164 -82h2l4 71h147v-537h-156l-3 71h-2q-62 -82 -165 -82zM312 112q53 0 81 43.5t28 113.5t-28 113t-80 43t-81 -44t-29 -114q0 -68 27.5 -111.5t81.5 -43.5zM313 683q73 0 73 80h95q-1 -72 -44.5 -114
t-125.5 -42q-81 0 -124.5 42t-43.5 114h95q0 -80 75 -80z" />
    <glyph glyph-name="aring002" horiz-adv-x="642" 
d="M255 -11q-100 0 -160 78t-60 196q0 123 62.5 204t166.5 81q102 0 164 -82h2l4 71h147v-537h-156l-3 71h-2q-62 -82 -165 -82zM312 112q53 0 81 43.5t28 113.5t-28 113t-80 43t-81 -44t-29 -114q0 -68 27.5 -111.5t81.5 -43.5zM180 710q0 52 36.5 86.5t94.5 34.5
q60 0 96.5 -34.5t36.5 -86.5t-36.5 -86.5t-94.5 -34.5q-60 0 -96.5 34.5t-36.5 86.5zM260 710q0 -26 13.5 -43t39.5 -17q25 0 38 17t13 43t-13.5 43t-39.5 17q-25 0 -38 -17t-13 -43z" />
    <glyph glyph-name="aogonek002" horiz-adv-x="642" 
d="M485 -194q-75 0 -111 27.5t-36 69.5q0 68 94 111l-10 57h-2q-62 -82 -165 -82q-100 0 -160 78t-60 196q0 123 62.5 204t166.5 81q102 0 164 -82h2l4 71h147v-533q-87 -36 -87 -71q0 -27 46 -27q18 0 41 3v-91q-52 -12 -96 -12zM312 112q53 0 81 43.5t28 113.5t-28 113
t-80 43t-81 -44t-29 -114q0 -68 27.5 -111.5t81.5 -43.5z" />
    <glyph glyph-name="aogonek002.alt" horiz-adv-x="642" 
d="M496 -159q-71 0 -105 26t-34 64q0 57 76 96l-11 44h-2q-62 -82 -165 -82q-100 0 -160 78t-60 196q0 123 62.5 204t166.5 81q102 0 164 -82h2l4 71h147v-517q-68 -23 -68 -54q0 -26 43 -26q11 0 25 2v-91q-42 -10 -85 -10zM312 112q53 0 81 43.5t28 113.5t-28 113t-80 43
t-81 -44t-29 -114q0 -68 27.5 -111.5t81.5 -43.5z" />
    </font>
</defs>
</svg>
