<?xml version="1.0" encoding="utf-8"?>
<!-- Generator: Adobe Illustrator 18.0.0, SVG Export Plug-In . SVG Version: 6.00 Build 0)  -->
<!DOCTYPE svg PUBLIC "-//W3C//DTD SVG 1.1//EN" "http://www.w3.org/Graphics/SVG/1.1/DTD/svg11.dtd">
<svg version="1.1" id="Layer_1" xmlns="http://www.w3.org/2000/svg" xmlns:xlink="http://www.w3.org/1999/xlink" x="0px" y="0px"
	 viewBox="420 375 600 150" enable-background="new 420 375 600 150" xml:space="preserve">
<g>
	<path fill="#FFFFFF" d="M447.4,378.2l-3.8-2.7c-15.5,22-23.6,47.9-23.6,74.8s8.2,52.8,23.7,74.7l3.8-2.7
		c-14.9-21.2-22.8-46.1-22.8-72C424.6,424.3,432.5,399.4,447.4,378.2z"/>
	<path fill="#FFFFFF" d="M904.8,377.7l3.8-2.7c15.5,22,23.7,47.8,23.7,74.7c0,26.9-8.2,52.8-23.7,74.7l-3.8-2.7
		c14.9-21.2,22.8-46.1,22.8-72C927.6,423.8,919.7,398.9,904.8,377.7z"/>
	<path fill="#FFFFFF" d="M946.9,399.3c0-13.6,8-23.8,20.7-23.8c7.4,0,13.1,3.5,16.7,9.1l-2.9,2c-3-4.9-7.7-7.9-13.7-7.9
		c-11,0-17.1,9.3-17.1,20.4c0,11.2,6,20.7,17.2,20.7c6,0,10.7-2.9,13.7-7.7l2.8,2c-3.5,5.4-9.3,9-16.8,9
		C954.9,423.1,946.9,412.8,946.9,399.3z"/>
	<path fill="#FFFFFF" d="M989.1,406.3c0-9.3,5.7-16.8,15.5-16.8s15.4,7.5,15.4,16.8c0,9.3-5.7,16.9-15.5,16.9
		C994.7,423.1,989.1,415.6,989.1,406.3z M992.8,406.3c0,7.4,4.2,13.7,11.8,13.7c7.7,0,11.9-6.2,11.9-13.7s-4.2-13.7-11.8-13.7
		C997,392.6,992.8,398.8,992.8,406.3z"/>
</g>
</svg>
