<?xml version="1.0" encoding="utf-8"?>
<!-- Generator: Adobe Illustrator 18.0.0, SVG Export Plug-In . SVG Version: 6.00 Build 0)  -->
<!DOCTYPE svg PUBLIC "-//W3C//DTD SVG 1.1//EN" "http://www.w3.org/Graphics/SVG/1.1/DTD/svg11.dtd">
<svg version="1.1" id="Layer_1" xmlns="http://www.w3.org/2000/svg" xmlns:xlink="http://www.w3.org/1999/xlink" x="0px" y="0px"
	 viewBox="0 0 164.1 75.2" enable-background="new 0 0 164.1 75.2" xml:space="preserve">
<g>
	<g>
		<path fill="#55C0A4" d="M143.7,19.9c-1.4,2.3-3.6,3.5-6.2,3.5c-5.4,0-7.8-4.7-7.8-9.4c0-6.4,3.9-9.3,7.7-9.3
			c2.6,0,4.8,1.2,6.2,3.6l1.7-1.2c-1.8-2.8-4.6-4.4-8-4.4c-5.8,0-9.9,4.7-9.9,11.3s4.1,11.3,10,11.3c3.3,0,6.3-1.6,8-4.3L143.7,19.9
			z"/>
		<path fill="#55C0A4" d="M154.7,9.2c-4.4,0-7.5,3.3-7.5,8.1c0,4.8,3.1,8.1,7.4,8.1c4.4,0,7.5-3.3,7.5-8.1
			C162.1,12.5,159,9.2,154.7,9.2z M154.6,23.5c-2.6,0-5.3-1.9-5.3-6.2c0-3.1,1.6-6.2,5.3-6.2c3.7,0,5.3,3.1,5.3,6.2
			C160,20.4,158.3,23.5,154.6,23.5z"/>
	</g>
	<path fill="#55C0A4" d="M37.7,60.8V20.8H22.1v-7.1H62v7.1H46.4v39.9H37.7z"/>
	<path fill="#55C0A4" d="M67.7,13.7H76v18.6h0.1c2.1-3.2,5.5-5.1,9.9-5.1c6.8,0,11.2,4.5,11.2,11.2v22.4H89v-21c0-3.4-2-6.1-5.9-6.1
		c-4.4,0-7.1,3.1-7.1,7.3v19.8h-8.3V13.7z"/>
	<path fill="#55C0A4" d="M14.9,3.9l-1.8-1.3C5.9,12.9,2.1,25,2.1,37.6c0,12.6,3.8,24.6,11.1,34.9l1.8-1.3
		c-7-9.9-10.7-21.5-10.7-33.7C4.3,25.5,7.9,13.8,14.9,3.9z"/>
	<path fill="#55C0A4" d="M107.4,3.9l1.8-1.3c7.2,10.3,11.1,22.3,11.1,34.9c0,12.6-3.8,24.6-11.1,34.9l-1.8-1.3
		c7-9.9,10.7-21.5,10.7-33.7C118,25.5,114.4,13.8,107.4,3.9z"/>
</g>
</svg>
