<?xml version="1.0" encoding="utf-8"?>
<!-- Generator: Adobe Illustrator 18.0.0, SVG Export Plug-In . SVG Version: 6.00 Build 0)  -->
<!DOCTYPE svg PUBLIC "-//W3C//DTD SVG 1.1//EN" "http://www.w3.org/Graphics/SVG/1.1/DTD/svg11.dtd">
<svg version="1.1" id="Layer_1" xmlns="http://www.w3.org/2000/svg" xmlns:xlink="http://www.w3.org/1999/xlink" x="0px" y="0px"
	 viewBox="0 0 614.1 155" enable-background="new 0 0 614.1 155" xml:space="preserve">
<g>
	<path fill="#0C0C0C" d="M34.5,5.7L30.7,3C15.2,25,7.1,50.9,7.1,77.8c0,26.9,8.2,52.8,23.7,74.7l3.8-2.7
		c-14.9-21.2-22.8-46.1-22.8-72C11.7,51.8,19.6,26.9,34.5,5.7z"/>
	<path fill="#0C0C0C" d="M491.8,5.2l3.8-2.7c15.5,22,23.7,47.8,23.7,74.7c0,26.9-8.2,52.8-23.7,74.7l-3.8-2.7
		c14.9-21.2,22.8-46.1,22.8-72C514.6,51.3,506.7,26.4,491.8,5.2z"/>
	<g>
		<path fill="#0C0C0C" d="M533.9,26.8c0-13.6,8-23.8,20.7-23.8c7.4,0,13.1,3.5,16.7,9.1l-2.9,2c-3-4.9-7.7-7.9-13.7-7.9
			c-11,0-17.1,9.3-17.1,20.4c0,11.2,6,20.7,17.2,20.7c6,0,10.7-2.9,13.7-7.7l2.8,2c-3.5,5.4-9.3,9-16.8,9
			C541.9,50.6,533.9,40.3,533.9,26.8z"/>
		<path fill="#0C0C0C" d="M576.1,33.8c0-9.3,5.7-16.8,15.5-16.8c9.8,0,15.4,7.5,15.4,16.8c0,9.3-5.7,16.9-15.5,16.9
			C581.7,50.6,576.1,43.1,576.1,33.8z M579.8,33.8c0,7.4,4.2,13.7,11.8,13.7c7.7,0,11.9-6.2,11.9-13.7c0-7.5-4.2-13.7-11.8-13.7
			C584,20.1,579.8,26.3,579.8,33.8z"/>
	</g>
	<g>
		<path fill="#0C0C0C" d="M83.5,127.3V41.7H50.1V26.4h85.3v15.2h-33.3v85.6H83.5z"/>
		<path fill="#0C0C0C" d="M145,26.4h17.7v39.9h0.3c4.5-7,11.8-11,21.3-11c14.6,0,24,9.6,24,24v47.9h-17.7v-45c0-7.2-4.2-13-12.6-13
			c-9.5,0-15.2,6.7-15.2,15.6v42.4H145V26.4z"/>
		<path fill="#0C0C0C" d="M222.9,56.8h16.7l0.4,10.9h0.3c4.3-8.1,10.5-12.3,17.7-12.3c2.5,0,4.6,0.5,6.4,1.2V72
			c-1.4-0.4-4.1-0.8-6.7-0.8c-11.2,0-17.1,7.4-17.1,15.6v40.4h-17.7V56.8z"/>
		<path fill="#0C0C0C" d="M339.8,127.3h-16.7l-0.4-10h-0.3c-4.5,7-12.1,11.4-21.5,11.4c-14.7,0-24.4-9.7-24.4-24.3V56.8h17.7v45
			c0,7.4,4.1,13.1,12.6,13.1c9.5,0,15.2-6.6,15.2-15.5V56.8h17.7V127.3z"/>
		<path fill="#0C0C0C" d="M421.2,56.8h13.3V34.4h17.6v22.3h16v12.9h-16v34.7c0,7.1,2.1,10.6,10.8,10.6c2,0,3.8-0.1,5.3-0.4v12.9
			c-3,0.8-7.2,1.3-11.7,1.3c-15.1,0-21.9-7.5-21.9-20.6V69.6h-13.3V56.8z"/>
		<path fill="#0C0C0C" d="M350.4,119.3l8.4-12.1c6.8,5.4,15.5,8.3,23.8,8.3c8.8,0,13.8-2.6,13.8-7.6c0-5.6-6.4-7-18-9.1
			c-13.9-2.6-25.1-7.7-25.1-21.4c0-12.1,9.6-22.1,29.5-22.1c12.7,0,21.9,3.4,29.5,8.8l-7.9,11.8c-6.8-4.9-14.6-7.4-21.9-7.4
			c-7.9,0-11.6,3.2-11.6,7c0,5.3,5.1,6.4,17.1,8.7c13,2.5,25.9,6.7,25.9,21.3c0,13.8-11.4,23.2-31.6,23.2
			C368.7,128.7,358.3,125,350.4,119.3z"/>
	</g>
</g>
</svg>
