<?xml version="1.0" encoding="utf-8"?>
<!-- Generator: Adobe Illustrator 18.0.0, SVG Export Plug-In . SVG Version: 6.00 Build 0)  -->
<!DOCTYPE svg PUBLIC "-//W3C//DTD SVG 1.1//EN" "http://www.w3.org/Graphics/SVG/1.1/DTD/svg11.dtd">
<svg version="1.1" id="Layer_1" xmlns="http://www.w3.org/2000/svg" xmlns:xlink="http://www.w3.org/1999/xlink" x="0px" y="0px"
	 viewBox="0 0 120 155" enable-background="new 0 0 120 155" xml:space="preserve">
<g>
	<path fill="#0C0C0C" d="M2.4,5.2l3.8-2.7c15.5,22,23.7,47.8,23.7,74.7c0,26.9-8.2,52.8-23.7,74.7l-3.8-2.7
		c14.9-21.2,22.8-46.1,22.8-72C25.2,51.3,17.3,26.4,2.4,5.2z"/>
	<path fill="#0C0C0C" d="M44.5,26.8c0-13.6,8-23.8,20.7-23.8c7.4,0,13.1,3.5,16.7,9.1l-2.9,2c-3-4.9-7.7-7.9-13.7-7.9
		c-11,0-17.1,9.3-17.1,20.4c0,11.2,6,20.7,17.2,20.7c6,0,10.7-2.9,13.7-7.7l2.8,2c-3.5,5.4-9.3,9-16.8,9
		C52.4,50.6,44.5,40.3,44.5,26.8z"/>
	<path fill="#0C0C0C" d="M86.7,33.8c0-9.3,5.7-16.8,15.5-16.8c9.8,0,15.4,7.5,15.4,16.8c0,9.3-5.7,16.9-15.5,16.9
		C92.3,50.6,86.7,43.1,86.7,33.8z M90.3,33.8c0,7.4,4.2,13.7,11.8,13.7c7.7,0,11.9-6.2,11.9-13.7c0-7.5-4.2-13.7-11.8-13.7
		C94.6,20.1,90.3,26.3,90.3,33.8z"/>
</g>
</svg>
