<?xml version="1.0" encoding="utf-8"?>
<!-- Generator: Adobe Illustrator 18.0.0, SVG Export Plug-In . SVG Version: 6.00 Build 0)  -->
<!DOCTYPE svg PUBLIC "-//W3C//DTD SVG 1.1//EN" "http://www.w3.org/Graphics/SVG/1.1/DTD/svg11.dtd">
<svg version="1.1" id="Layer_1" xmlns="http://www.w3.org/2000/svg" xmlns:xlink="http://www.w3.org/1999/xlink" x="0px" y="0px"
	 viewBox="0 0.3 2102 432.3" enable-background="new 0 0.3 2102 432.3" xml:space="preserve">
<g>
	<g>
		<path fill="#76E0C0" d="M369.5,152.5c3.1-9.6,3.1-20.2-0.4-29.8c-3.5-10.1-9.6-18.4-18-24.5C331,82.8,302.9,83.7,278.3,89
			c-12.3,2.6-23.7,6.1-35.1,11c14.9-26.7,29.4-53.5,44.3-80.2c1.8-2.6,1.3-5.7-1.3-7.5c-2.2-1.3-6.1-0.4-7.5,2.2
			c-17.5,31.1-35.1,62.2-52.6,93.8c-5.3,3.1-10.5,6.6-15.8,10.5c-6.1,5.3-11.8,11-16.7,17.1c-1.8,2.2-0.9,6.1,1.8,7.5
			c2.6,1.8,5.7,0.4,7.5-2.2c3.5-3.9,7.5-7.9,11.4-11.4c-7.5,13.2-14.9,26.3-22.4,39.5c-15.8,27.6-32,55.2-48.2,82.9
			c-20.2,1.8-40.3,1.3-60.1-2.2c-10.1-1.8-20.6-3.9-29.8-7.5c-3.9-1.8-7.5-3.1-11.4-5.7c-1.3-0.4-2.2-1.3-2.6-1.8s-0.9-0.4-1.3-0.9
			c-0.4,0-0.4,0-0.4-0.4c0,0,0,0-0.4,0c-1.8-1.3-3.1-3.1-4.4-4.8c-2.2-2.6-4.4-6.6-5.3-10.1c-0.4-1.3-0.4-2.2-0.4-3.5
			c0,0-0.4-0.4-0.4-0.9v-0.9c0-1.8,0-3.5,0-5.3c0.4-0.9,0.4-1.8,0.4-2.6v-0.4c0-0.4,0.4-0.4,0.4-0.9c0-1.3,0.9-3.1,1.3-4.4
			c0-0.9,0.4-1.3,0.4-1.8c0,0.4,0.9-1.3,0.9-1.3c0.9-1.8,1.8-3.1,2.6-4.4c0.4,0,0.4-0.4,0.9-0.9c0.4-0.4,0.9-0.9,1.3-1.8
			c1.3-0.9,2.6-2.2,3.9-3.5c0.4-0.4,1.3-0.9,1.8-1.3l0.4-0.4c0,0,0.4-0.4,0.9-0.4c1.3-0.9,2.6-1.8,4.4-2.6c3.1-2.2,6.1-3.5,9.2-5.3
			c0.9,0,1.8-0.4,2.2-0.9c0.4,0,1.8-0.4,2.2-0.4c1.8-0.9,3.5-1.8,5.3-2.2c13.2-4.4,26.7-7,40.3-9.6c11-1.8,21.9-3.1,32.9-5.7
			c7-1.8,4.4-12.3-2.6-10.5c-12.3,2.6-25,4.4-37.7,6.6c-15.3,3.1-30.7,6.6-45.2,12.7C40.8,171.4,27.6,179.7,21,192
			c-8.3,15.8-5.7,35.1,6.1,46.9c6.6,6.6,15.3,11,24.1,14c9.6,3.9,20.2,6.1,30.2,7.9c18.4,2.6,36.8,3.5,55.2,2.6
			c-11.4,18.8-22.8,38.1-34.2,57.4c-18,29.8-35.5,60.1-52.2,90.3c-1.3,2.6-0.9,6.1,1.8,7.5c2.2,1.3,6.1,0.9,7.5-1.8
			c28.1-51.3,58.7-101.7,88.6-151.7c0.9-0.9,1.3-2.2,1.8-3.1c5.7-0.4,11.4-1.3,16.7-2.2c53.5-8.8,105.2-29.4,152.1-57
			C339.3,191.1,362.1,176.2,369.5,152.5z M316.5,192c-46.5,27.6-97.8,48.2-150.4,57c-3.1,0.4-6.1,1.3-9.2,1.3
			c26.7-44.3,52.2-89.4,77.6-134.6c8.3-4.8,17.5-8.3,26.7-11.4c23.7-7,50-12.3,72.8-3.1c2.6,1.3,4.8,2.2,7,3.5
			c0.9,0.9,1.8,1.3,3.1,2.2c0.9,0.9,1.8,1.3,2.6,2.2c3.5,3.1,6.6,6.6,8.8,10.1c2.2,4.4,3.5,7.5,4.4,12.3c0.9,4.4,0.9,8.3,0.4,13.2
			c-0.9,3.9-2.6,9.2-4.8,12.7c-2.6,5.3-6.1,9.6-10.1,13.6C337.1,179.3,326.6,185.9,316.5,192z"/>
		<path fill="#76E0C0" d="M659.3,205.1c-2.2-2.2-5.3-2.2-7.9,0c-11,8.8-22.4,17.1-34.2,24.5c-6.6,3.5-12.3,7-19.3,10.1
			c-2.2,0.9-4.8,1.8-7.5,2.2c-0.9,0.4-1.8,0.4-3.1,0.4c-0.1,0-0.3,0-0.4,0c0-0.4-0.4-0.4-0.4-0.4s0,0,0-0.4s0-0.4,0-0.4
			c-0.4-1.3,0-2.6,0-3.5c0.3-0.9,0.7-1.8,1.1-2.8c0.1-0.1,0.1-0.2,0.2-0.3c3-4,6.2-8.1,9.4-12.2c1.2,0.7,3,1.2,4.6,1.2
			c6.1-0.4,12.7-3.9,18-7.5c5.3-3.9,11-10.5,7.9-17.1c-1.3-2.6-4.4-4.4-7-4.4c-3.9-0.9-7.5,0.4-11.4,2.2c-5.7,2.2-11,6.1-14.5,10.5
			c-5.3,4.8-9.6,10.1-12.7,15.8c-1.4,2-2.7,4.1-3.7,6.3c-12,15.6-23.4,31.4-35.3,47.2c-7.5,11-17.1,21.9-25.9,32.4
			c-3.5,3.1-6.6,6.6-9.6,9.6c-0.9,0.4-1.3,1.3-2.2,1.8l-1.3,0.9c-0.4,0-0.9,0.4-1.3,0.4c0,0.4-0.9,0.4-0.9,0.4
			c-0.4,0.4-0.4,0.4-0.9,0.4h-0.4c0,0,0,0-0.4-0.4c0-0.3,0-1.5,0-1.8c0,0,0,0,0-0.1c0-0.9,0-2.1,0-3c0-1.8,0.4-3.5,0.9-5.3v-0.9
			c0-0.4,0.4-0.9,0.9-1.3c0.4-1.3,0.9-2.2,0.9-3.1c3.5-11.4,8.3-22.4,14-32.9c6.6-12.7,13.6-24.5,20.6-36.8
			c6.6-13.2,13.2-26.3,20.6-39.5c14.9-25.9,29.8-52.2,43.8-78c14.5-25.4,28.5-51.3,45.2-75.8c1.3-2.2,2.2-3.9,3.5-6.1
			c4.8-6.1-4.4-11.8-7.9-5.3c-32.9,49.5-60.5,102.1-89.9,153.4c-3,5.9-6.1,11.8-9.3,17.7c-0.6,0.1-1.1,0.4-1.7,0.7
			c-13.6,8.3-27.6,16.2-40.8,24.1c0.9-0.9,1.3-2.2,1.8-3.1c3.9-7,7.5-18,0-23.7c-3.5-2.6-8.3-3.5-12.7-2.6c1.8-3.1,4.4-6.1,6.1-9.2
			c4.4-6.1-4.8-11.4-9.6-5.7c-4.3,6.8-8.5,13.6-12.7,20.5c-9,6.5-17.7,13.3-27.6,15.9c-1.8,0.4-3.5,0.9-5.3,0.9c0,0,0,0,0-0.4
			c-0.4-3.9-2.2-7.5-5.7-9.6c-1.8-1.3-4.4-2.2-6.6-2.2c0.9-0.4,1.3-1.3,2.2-1.8c2.6-1.8,3.5-4.8,2.2-7.5c-1.3-2.6-5.3-3.9-7.5-2.2
			c-4.9,3.7-9.1,7.5-12.9,11.8c-9.3,7.2-18.8,14-28.7,20.2c-6.6,3.5-12.3,7-19.3,10.1c-2.2,0.9-4.8,1.8-7.5,2.2
			c-0.9,0.4-1.8,0.4-3.1,0.4c-0.1,0-0.3,0-0.4,0c0-0.4-0.4-0.4-0.4-0.4s0,0,0-0.4s0-0.4,0-0.4c-0.4-1.3,0-2.6,0-3.5
			c0.9-2.6,2.2-5.3,3.9-8.3c1.8-2.6,3.5-5.3,5.7-7.9c0.9,1.3,3.5,2.2,5.7,2.2c6.1-0.4,12.7-3.9,18-7.5c5.3-3.9,11-10.5,7.9-17.1
			c-1.3-2.6-4.4-4.4-7-4.4c-3.9-0.9-7.5,0.4-11.4,2.2c-5.7,2.2-11,6.1-14.5,10.5c-5.3,4.8-9.6,10.1-12.7,15.8
			c-3.9,5.7-6.6,11.8-6.6,18.4c0,7,4.4,11.4,11.4,11.8c6.6,0,12.7-2.6,18.4-5.3c6.1-3.1,12.7-6.6,18.4-10.5c1.4-0.8,2.7-1.6,4-2.4
			c-2.5,7.5-2.6,16,2.6,22.1c4.8,5.3,12.7,4.8,18.4,2.2c5.7-2.2,10.1-7,14-11.4c3.9-3.9,7.5-9.6,9.6-15.3c1.3,0,2.6-0.4,3.5-0.4
			c5.3-0.4,9.6-2.2,14.5-3.9c1.2-0.6,2.4-1.2,3.6-1.8c-6.2,10.6-12.3,21.3-18.5,32.1c-7,12.7-14,25.4-21.9,38.1
			c-7,12.3-14,25-21,37.7c-11,20.6-20.6,41.6-27.2,64c-2.6,7,7.9,9.6,10.5,3.1c7.5-26.7,20.2-51.7,34.2-75.8
			c9.6-18.8,20.6-36.8,31.1-55.2c1.3,2.2,4.4,3.5,7,1.8c6.1-3.9,11.4-7.9,15.8-12.3c20.7-13.8,42.1-25.8,63-38.5
			c-7.5,13.8-15.2,27.5-22.7,41.2c-6.6,12.3-14,25-18,38.1c-1.8,7.9-4.8,15.8-3.5,23.7c-0.4,4.4,2.6,8.3,7,9.2
			c5.7,0.9,10.5-2.2,14.9-5.3c4.4-3.1,7.5-6.1,10.5-9.6c4.4-4.8,9.2-10.1,13.6-15.3c13.7-17.6,27.7-36.3,41.7-55
			c1.9,3,5.2,4.7,9.5,5c6.6,0,12.7-2.6,18.4-5.3c6.1-3.1,12.7-6.6,18.4-10.5c12.7-7.5,24.1-15.8,35.1-25
			C661,210.8,661.5,206.9,659.3,205.1z M382.2,205.6h0.4c-0.4,0.4-1.3,1.3-2.2,1.8c-2.2,1.3-4.8,2.6-7,3.9c-0.4-0.4-0.4-0.4-0.4-0.4
			C376.5,208.6,379.2,206.9,382.2,205.6z M427,233.2c-3.1,5.3-6.6,9.6-11,13.2c-1.8,1.8-3.9,3.1-5.7,3.9c-1.3,0.4-2.2,0.4-3.5,0
			c0,0-0.9,0-1.3-0.4c0.9,0.4-0.4-0.4-0.4-0.4l-0.4-0.9c-0.4-0.4-0.4-0.9-0.4-1.3s-0.4-0.4-0.4-0.9c0.4,0.4,0-0.9,0-0.9
			c0-0.9,0-1.8,0-2.6c0,0.4,0.4-1.8,0.4-1.8c0.4-1.3,0.9-2.6,1.3-3.5c0.9-2.6,2.2-4.8,3.9-7c1.8-2.6,3.9-5.3,6.1-7.9
			c0.4,1.3,0.9,2.2,1.8,3.1c2.6,3.5,6.1,5.3,10.5,6.1C427.4,232.3,427,232.8,427,233.2z M430,220.9c-0.4,0-1.3,0-1.8-0.4
			c-0.4,0-0.9,0-0.9-0.4c0,0,0,0,0.6,0c0.1,0,0.2,0,0.3,0c0.4,0,0.9,0,1.3,0.4c0,0,0,0,0.4,0C430,220.9,430,220.9,430,220.9z
			 M496.2,211.7c0,0.4,0,0.9,0,1.3l-0.4,1.3c-0.4,4.4-3.1,7.5-5.7,11.4c-2.6,4.4-6.1,8.3-10.1,12.3c-4.8,4.8-9.6,9.6-14.9,14
			c-3.5,2.2-7.5,4.8-11,7.5c2.6-3.5,4.4-6.6,6.1-10.1c6.1-10.5,11.4-20.6,18-31.1c0.4,0,0.4-0.4,0.4-0.4c0.4-0.4,0.4-0.9,0.9-1.3
			c0.4-0.4,1.3-1.3,1.8-1.8c0.4-0.4,0.9-0.9,1.3-1.3l0.4-0.4c0.4,0,0.9-0.4,1.3-0.9c0.9-0.4,1.3-0.9,2.2-0.9
			c0.4-0.4,0.4-0.4,0.4-0.4c0.4,0,0.4,0,0.9-0.4c0.4,0,1.3-0.4,1.8-0.4c0.4,0,1.8-0.4,2.2-0.4s0.9,0,1.3,0c0.4,0,0.4,0,0.9,0
			l0.9,0.4h0.4c0,0,0,0.4,0.4,0.4c0,0.4,0,0.4,0,0.4c0,0.4,0,0.4,0.4,0.4C496.2,211.7,496.2,211.7,496.2,211.7z M615.4,205.6h0.4
			c-0.4,0.4-1.3,1.3-2.2,1.8c-2.2,1.3-4.8,2.6-7,3.9c-0.3-0.3-0.4-0.4-0.4-0.4c0,0,0,0,0-0.1C609.8,208.6,612.4,206.9,615.4,205.6z"
			/>
	</g>
	<g>
		<path fill="#76E0C0" d="M744.8,265.6c4.8-13.2,10.1-25.4,16.7-37.7c11.8-25,25.4-49.5,42.5-71.5c16.2-21.5,34.6-41.2,55.2-59.2
			c19.3-16.2,40.8-31.1,65.3-37.3c12.7-3.1,25.4-3.5,37.7-0.4c5.3,1.3,10.1,3.1,13.2,7c3.1,4.4,3.1,11.4,3.5,16.2
			c0,3.1,2.2,5.7,5.3,5.7c3.1,0,5.7-2.2,5.7-5.3c0-6.6-0.9-13.6-3.5-19.7c-3.1-6.1-8.3-9.6-14-12.3c-6.1-3.1-13.2-3.5-20.2-4.4
			c-7-0.9-14-0.4-21.5,0.9c-26.3,3.9-50.9,19.3-71.5,35.5c-21,17.1-39.9,36.8-57,57.9c-8.8,11-17.1,21.9-24.5,33.8
			s-14,24.1-20.6,36.8c-12.7,24.5-24.5,50.4-31.1,77.6c-6.1,25-10.1,57,9.2,77.6c9.2,9.6,21.5,14,33.8,16.2
			c14,2.6,28.9,1.8,42.5-1.3c26.7-6.6,50.9-20.6,72.8-35.9c8.3-5.7,15.8-11.8,23.7-18.8c4.8-4.4-2.2-12.3-7.5-7.5
			c-20.6,17.1-43,32.9-67.9,43.8c-23.2,10.1-51.7,15.3-76.3,4.8c-10.1-4.4-18-12.7-21.5-23.2c-4.4-12.7-3.5-26.3-0.9-39.5
			C736,291.9,739.9,278.8,744.8,265.6z"/>
		<path fill="#76E0C0" d="M1412.4,41.6c-10.1,51.3-24.5,101.7-47.8,148.2c-3.1,6.1-6.1,12.3-9.6,18.4c0-0.4,0.9-1.3,0.9-1.8
			c-0.9-3.1-3.5-5.7-6.6-5.7c-5.1,0.4-8.3,3.4-11.8,6.4c-10.2,8-20.7,15.6-31.6,22.5c-6.6,3.5-12.3,7-19.3,10.1
			c-2.2,0.9-4.8,1.8-7.5,2.2c-0.9,0.4-1.8,0.4-3.1,0.4c-0.1,0-0.3,0-0.4,0c0-0.4-0.4-0.4-0.4-0.4s0,0,0-0.4s0-0.4,0-0.4
			c-0.4-1.3,0-2.6,0-3.5c0.9-2.6,2.2-5.3,3.9-8.3c1.8-2.6,3.5-5.3,5.7-7.9c0.9,1.3,3.5,2.2,5.7,2.2c6.1-0.4,12.7-3.9,18-7.5
			c5.3-3.9,11-10.5,7.9-17.1c-1.3-2.6-4.4-4.4-7-4.4c-3.9-0.9-7.5,0.4-11.4,2.2c-5.7,2.2-11,6.1-14.5,10.5c-1.2,1.1-2.4,2.3-3.6,3.5
			c-6.9,6.1-14,11.8-21.4,17.5c-8.3,6.1-17.1,11.8-26.7,15.8c-9.2,3.5-18.8,4.4-27.2,0.4c-4.8-2.2-8.3-5.3-11.8-8.8
			c-1.3-1.8-3.1-3.1-4.8-4.8c21.9-7.9,43-17.1,59.2-33.3c5.7-5.7,11-12.3,13.6-19.3c2.2-3.9,2.6-7.9,1.8-11.4
			c-1.8-3.9-6.1-5.7-10.5-5.3c-7,0.4-12.7,3.9-18.8,7.5c-5.7,3.9-11.4,7.9-17.1,12.3c-5.3,4.8-11,9.6-16.2,14.9
			c7.9-13.6,16.7-27.2,25.4-40.3c4.4-6.1-4.4-11.4-8.3-5.3c-12.5,17.7-24.2,36.3-34.4,55.2c-10.6,8.5-21.7,16.5-33.1,23.7
			c-6.6,3.5-12.3,7-19.3,10.1c-2.2,0.9-4.8,1.8-7.5,2.2c-0.9,0.4-1.8,0.4-3.1,0.4c-0.1,0-0.3,0-0.4,0c0-0.4-0.4-0.4-0.4-0.4
			s0,0,0-0.4s0-0.4,0-0.4c-0.1-0.2-0.1-0.3-0.1-0.5c4-5.9,8-11.8,12.1-17.6c1,0.4,2.2,0.6,3.3,0.6c6.1-0.4,12.7-3.9,18-7.5
			c5.3-3.9,11-10.5,7.9-17.1c-1.3-2.6-4.4-4.4-7-4.4c-3.9-0.9-7.5,0.4-11.4,2.2c-5.7,2.2-11,6.1-14.5,10.5
			c-5.3,4.8-9.6,10.1-12.7,15.8c-2.8,4-4.9,8.3-5.9,12.7c-8.7,12.6-17.4,25.3-27,37.2c-6.6,8.3-13.2,17.5-21.5,23.2
			c-2.2,0.9-4.4,2.2-6.1,2.6c-0.4,0.4-0.9,0.4-1.3,0.9c-0.4,0-0.4,0-0.4,0s0,0-0.4,0c0-0.4-0.4-1.3-0.4-0.9c0-0.4-0.4-0.9-0.4-1.8
			c0,0,0,0,0-0.4c0,0.4,0-0.9-0.4-0.9c0-1.8,0-3.5,0-5.3c0.4-0.9,0.4-1.3,0.4-2.2c0-0.4,0-0.9,0-1.3c0.9-5.7,2.2-11,3.5-16.2
			c3.5-12.3,7.9-24.5,13.2-36.4c11-24.1,24.1-46.9,36.8-70.1c8.8-16.2,18-32.4,27.2-48.2c28.1-2.2,56.1-3.9,84.2-7.5
			c11-1.3,21.9-3.1,32.9-5.3c3.1-0.4,4.8-3.9,3.9-6.6c-0.9-3.1-3.9-4.4-6.6-3.9c-28.1,5.7-57,7.5-85.5,10.1
			c-7.5,0.4-14.5,1.3-21.9,1.8c11-17.5,22.4-34.2,35.5-50c2.2-2.2,2.2-5.7,0-7.9c-1.8-1.8-5.7-2.2-7.5,0
			c-15.8,18.4-28.9,38.6-41.6,59.2c-17.1,1.3-34.6,2.6-51.7,3.9c-10.5,0.9-21,1.8-31.1,2.6c-3.1,0-5.7,2.2-5.7,5.3
			c0,2.6,2.6,5.7,5.7,5.7c25.4-2.2,50.9-4.4,76.3-6.1c-12.7,21-24.1,43-35.9,64c-4.1,7.5-8.2,15-12.1,22.6c-0.5,0.3-1,0.6-1.4,1
			c-8.8,7.5-17.1,15.8-25.9,23.2c-3.9,3.5-7.9,6.6-12.3,9.6c3.1-4.8,7.5-9.2,11-14c3.1-3.9,6.1-8.8,6.1-14c0-3.1-1.3-5.7-3.5-7.5
			c-3.1-1.8-6.1-1.3-8.8-0.4c-4.8,2.2-9.2,5.3-13.2,8.3c-2.6,1.8-5.3,3.9-7.9,5.7c0.8-1.5,1.5-3.1,2.3-4.6c1-1.6,1.2-3.7,0.3-5.3
			c-0.4-1.1-1.1-2.1-2.2-2.8c-2.2-1.3-6.1-0.4-7.5,2.2c-0.1,0.1-0.1,0.3-0.2,0.4c-10.6,8.4-21.7,16.5-33.1,23.7
			c-6.6,3.5-12.3,7-19.3,10.1c-2.2,0.9-4.8,1.8-7.5,2.2c-0.9,0.4-1.8,0.4-3.1,0.4c-0.1,0-0.3,0-0.4,0c0-0.4-0.4-0.4-0.4-0.4
			s0,0,0-0.4s0-0.4,0-0.4c-0.4-1.3,0-2.6,0-3.5c0.9-2.6,2.2-5.3,3.9-8.3c1.8-2.6,3.5-5.3,5.7-7.9c0.9,1.3,3.5,2.2,5.7,2.2
			c6.1-0.4,12.7-3.9,18-7.5c5.3-3.9,11-10.5,7.9-17.1c-1.3-2.6-4.4-4.4-7-4.4c-3.9-0.9-7.5,0.4-11.4,2.2c-5.7,2.2-11,6.1-14.5,10.5
			c-5.3,4.8-9.6,10.1-12.7,15.8c-3.9,5.7-6.6,11.8-6.6,18.4c0,7,4.4,11.4,11.4,11.8c6.6,0,12.7-2.6,18.4-5.3
			c6.1-3.1,12.7-6.6,18.4-10.5c4.9-2.8,9.5-5.8,14-8.9c-3.3,5.4-6.6,10.6-10.1,15.9c-1.3,2.6-0.4,6.1,2.2,7.5
			c2.6,1.8,5.7,0.4,7.5-1.8c7.5-11,17.5-18.4,27.6-26.3c2.6-1.8,5.3-3.5,7.5-5.7c1.8-1.3,3.9-2.6,5.7-3.9c-0.9,1.3-1.8,2.6-2.6,3.5
			c-3.1,4.8-7,9.2-10.5,14c-3.1,4.4-8.8,14-3.9,18.8c2.6,2.2,4.8,2.6,8.3,2.2c2.2-0.4,3.9-1.8,6.1-2.6c5.7-3.5,11-7.9,16.2-12.3
			c3.1-2.8,6.1-5.6,9.2-8.4c-3.5,7.9-6.8,16-9.6,24.2c-3.5,10.5-6.6,21.9-8.3,33.3c-0.9,6.6-0.9,16.2,4.8,21
			c8.3,6.6,19.7-1.3,26.7-7c7.9-6.6,14-15.3,20.6-23.7c7-8.6,13.5-17.7,19.7-26.8c1.9,1.5,4.4,2.5,7.5,2.7c6.6,0,12.7-2.6,18.4-5.3
			c6.1-3.1,12.7-6.6,18.4-10.5c5.2-3,10.1-6.2,14.9-9.6c-5.2,9.6-10.4,19.4-14.9,29.3c-6.6,12.7-12.3,25.9-18.8,38.6
			c-1.3,2.6,0.4,6.1,3.1,6.6c3.1,0.9,5.7-0.9,7-3.5c11-20.6,20.6-41.2,32.9-60.5c1.3,1.3,2.6,3.1,3.5,4.4c3.9,3.9,8.8,7.9,13.2,10.5
			c10.1,5.7,21.9,6.1,33.8,2.2c11.4-3.5,21.9-10.5,32-17.5c0.8-0.6,1.5-1.1,2.3-1.7c-0.4,1.7-0.5,3.4-0.5,5.2
			c0,7,4.4,11.4,11.4,11.8c6.6,0,12.7-2.6,18.4-5.3c6.1-3.1,12.7-6.6,18.4-10.5c0,0,0.1,0,0.1-0.1c-0.7,1.7-1.2,3.5-1.4,5.3
			c-0.9,3.5,0.4,7,2.2,9.6c1.8,2.6,4.4,4.4,7.5,5.3c6.6,1.3,12.3-2.6,16.7-6.1c3.9-4.4,8.8-10.1,12.7-15.3
			c7.5-10.5,14.5-21.5,20.2-33.3c22.8-43.4,38.1-91.6,49.1-139.8c0.9-6.1,2.2-12.3,4.4-18.4C1424.6,37.7,1414.1,34.6,1412.4,41.6z
			 M972.3,205.6h0.4c-0.4,0.4-1.3,1.3-2.2,1.8c-2.2,1.3-4.8,2.6-7,3.9c-0.4-0.4-0.4-0.4-0.4-0.4
			C966.6,208.6,969.2,206.9,972.3,205.6z M1147.6,205.6h0.4c-0.4,0.4-1.3,1.3-2.2,1.8c-2,1.2-4.4,2.4-6.5,3.7c0.2-0.3,0.3-0.7,0.4-1
			C1142.6,208.2,1144.9,206.7,1147.6,205.6z M1216,195.5c4.8-4.4,10.5-9.2,15.8-13.2c4.8-3.5,11-7.5,16.7-9.2c0.9,0,1.8-0.4,2.6-0.4
			c0,0,0.4,0,0.9,0v0.4c-0.4,1.3-1.3,2.2-1.8,3.5c0.4-0.4-0.4,1.3-0.4,1.3c-0.9,0.9-1.3,1.8-1.8,2.6c-0.9,1.3-2.2,2.6-3.1,4.4
			c-0.4,0.9-1.3,1.8-1.8,2.2s-1.3,1.3-1.8,1.3c-1.3,1.3-2.2,2.2-3.1,3.5c-12.7,11.8-28.1,19.3-44.3,25.4
			C1201.1,209.5,1208.5,202.5,1216,195.5z M1304.1,205.6h0.4c-0.4,0.4-1.3,1.3-2.2,1.8c-2.2,1.3-4.8,2.6-7,3.9
			c-0.4-0.4-0.4-0.4-0.4-0.4C1298.4,208.6,1301,206.9,1304.1,205.6z M1346.6,221.8c-1.3,1.8-1.8,3.1-3.1,4.4c0,0.4-0.4,0.4-0.4,0.9
			c-0.4,0,0,0.4-0.4,0.9c-0.4,0.9-1.3,1.8-1.8,2.6c-2.2,2.6-3.9,5.3-6.1,7.9c-0.9,1.3-2.2,2.2-3.1,3.5c-0.4,0.4-0.9,0.9-1.8,1.3
			c0,0,0,0,0,0.4c-0.4,0-0.9,0-0.9,0.4c-1.3,0.9-2.6,1.3-3.5,1.8c-0.4,0.4-0.4,0.4-0.9,0.4c-0.4,0.4-0.9,0.4-1.8,0.4c0,0,0,0-0.4,0
			c0,0,0,0-0.4,0c-0.4-0.4-0.4-0.4-0.4-0.4c0-0.4,0-0.4,0-0.9s0-0.4,0-0.4c0-0.4,0.9-1.3,0.9-1.8s0.4-0.4,0.4-0.9s0-1.3,0.4-1.8
			c0.9-1.8,1.8-3.1,2.6-4.4c0.4-0.4,0.9-1.3,0.4-1.8c0-0.4,0-0.4,0-0.4h0.4c0-0.4,0.4-0.9,0.4-0.9c5.3-5.7,9.6-10.5,14-15.3l1.3-0.9
			c0.4-0.4,1.3-0.9,1.8-1.3c0.4-0.9,1.8-1.3,3.1-2.2c0.4-0.4,1.3-0.9,1.8-1.3c0,0,0.4,0,0.9-0.4c1.3,0,2.6-0.9,3.5-1.8
			C1351.4,214.3,1348.8,218.3,1346.6,221.8z"/>
	</g>
	<g>
		<path fill="#76E0C0" d="M1597.2,57.7c3.5-6.1-5.7-11.8-9.2-5.7c-29.4,50.4-58.3,100.8-87.2,151.2
			c-29.4,50.4-58.3,100.8-87.2,151.2c-3.5,6.1-7,11.8-10.5,18c-3.5,6.1,5.7,11.8,9.2,5.7c0.9-1.3,1.3-2.2,1.8-3.1
			c28.1-48.7,56.1-96.9,83.7-145.1c29.4-50.4,58.3-100.8,87.2-151.2C1589.3,71.7,1593.3,64.7,1597.2,57.7z"/>
		<path fill="#76E0C0" d="M1794.5,172.1c5.3-5.3-1.8-13.2-7-7.9c-21.5,19.7-40.8,41.6-57.9,64.9c-3.5,4.8-7,10.1-10.5,14.9
			c-0.4,0.9-0.4,0.9-1.3,1.8c-0.4,0.4-1.3,0.9-1.8,1.3c0,0-0.4,0.4-0.9,0.9c-0.4,0-0.4,0.4-0.9,0.4c0.4-0.4-0.9,0-0.9,0.4
			c0-0.4,0-0.9-0.4-1.3c0-0.4,0-0.4,0-0.9c0.9-0.4,0.9-1.3,0.9-1.8c0-1.8,0-3.5,0.9-5.3c0.4-0.9,0.4-1.8,0.4-2.6l0.4-1.3
			c0-0.9,0-1.3,0.9-2.2c0.9-2.6,1.3-5.3,1.8-7.9c1.3-4.8,3.1-9.2,4.8-13.6c2.1-5.3,4.1-10.7,6.3-16c0.4-0.6,0.6-1.2,0.8-1.9
			c2.9-7.1,6.2-14,10.5-20.7c4.4-6.1-3.9-11.8-8.3-5.3c-4.1,6.4-7.5,13.3-10.4,20.4c-9.1,6.5-17.7,13.4-27.7,16
			c-1.8,0.4-3.5,0.9-5.3,0.9c0,0,0,0,0-0.4c-0.4-3.9-2.2-7.5-5.7-9.6c-1.8-1.3-4.4-2.2-6.6-2.2c0.9-0.4,1.3-1.3,2.2-1.8
			c2.6-1.8,3.5-4.8,2.2-7.5c-1.3-2.6-5.3-3.9-7.5-2.2c-5.1,3.9-9.4,7.8-13.4,12.3c-6.8,6.1-13.4,12.5-20.3,18.4
			c-3.9,3.5-7.9,6.6-12.3,9.6c3.1-4.8,7.5-9.2,11-14c3.1-3.9,6.1-8.8,6.1-14c0-3.1-1.3-5.7-3.5-7.5c-3.1-1.8-6.1-1.3-8.8-0.4
			c-4.8,2.2-9.2,5.3-13.2,8.3c-2.6,1.8-5.3,3.9-7.9,5.7c0.9-1.8,1.8-3.5,2.6-5.3c0.9-2.6,0.4-5.7-2.2-7.5c-2.2-1.3-6-0.5-7.4,2.1
			c-8.6,7.4-16.8,15.6-25.5,22.9c-3.9,3.5-7.9,6.6-12.3,9.6c3.1-4.8,7.5-9.2,11-14c3.1-3.9,6.1-8.8,6.1-14c0-3.1-1.3-5.7-3.5-7.5
			c-3.1-1.8-6.1-1.3-8.8-0.4c-4.8,2.2-9.2,5.3-13.2,8.3c-2.6,1.8-5.3,3.9-7.9,5.7c0.9-1.8,1.8-3.5,2.6-5.3c0.9-2.6,0.4-5.7-2.2-7.5
			c-2.2-1.3-6.1-0.4-7.5,2.2c-6.6,13.6-14.5,26.3-22.8,39c-1.3,2.6-0.4,6.1,2.2,7.5c2.6,1.8,5.7,0.4,7.5-1.8
			c7.5-11,17.5-18.4,27.6-26.3c2.6-1.8,5.3-3.5,7.5-5.7c1.8-1.3,3.9-2.6,5.7-3.9c-0.9,1.3-1.8,2.6-2.6,3.5c-3.1,4.8-7,9.2-10.5,14
			c-3.1,4.4-8.8,14-3.9,18.8c2.6,2.2,4.8,2.6,8.3,2.2c2.2-0.4,3.9-1.8,6.1-2.6c5.7-3.5,11-7.9,16.2-12.3c0.9-0.9,1.9-1.7,2.8-2.6
			c-1.9,3.1-3.9,6.1-5.9,9.2c-1.3,2.6-0.4,6.1,2.2,7.5c2.6,1.8,5.7,0.4,7.5-1.8c7.5-11,17.5-18.4,27.6-26.3c2.6-1.8,5.3-3.5,7.5-5.7
			c1.8-1.3,3.9-2.6,5.7-3.9c-0.9,1.3-1.8,2.6-2.6,3.5c-3.1,4.8-7,9.2-10.5,14c-3.1,4.4-8.8,14-3.9,18.8c2.6,2.2,4.8,2.6,8.3,2.2
			c2.2-0.4,3.9-1.8,6.1-2.6c4.1-2.5,7.9-5.5,11.7-8.6c-0.7,5.6,0.3,11.2,4.1,15.6c4.8,5.3,12.7,4.8,18.4,2.2c5.7-2.2,10.1-7,14-11.4
			c3.9-3.9,7.5-9.6,9.6-15.3c1.3,0,2.6-0.4,3.5-0.4c5.3-0.4,9.6-2.2,14.5-3.9c3.4-1.6,6.6-3.5,9.7-5.4c-1.5,3.7-3.2,7.5-4.9,11.6
			c-2.6,7-4.8,14.9-7,22.4c-1.3,6.1-1.8,13.2,3.5,17.5c2.6,1.8,6.6,1.3,9.2,0.4c4.8-1.8,8.3-5.3,11.4-9.2c3.5-3.5,5.7-7.5,8.8-11
			c3.1-4.8,6.6-9.6,10.5-14.5C1760.7,205.9,1776.5,188.3,1794.5,172.1z M1674.8,217.3c-3.1,5.3-6.6,9.6-11,13.2
			c-1.8,1.8-3.9,3.1-5.7,3.9c-1.3,0.4-2.2,0.4-3.5,0c0,0-0.9,0-1.3-0.4c0.9,0.4-0.4-0.4-0.4-0.4l-0.4-0.9c-0.4-0.4-0.4-0.9-0.4-1.3
			s-0.4-0.4-0.4-0.9c0.4,0.4,0-0.9,0-0.9c0-0.9,0-1.8,0-2.6c0,0.4,0.4-1.8,0.4-1.8c0.4-1.3,0.9-2.6,1.3-3.5c0.9-2.6,2.2-4.8,3.9-7
			c1.8-2.6,3.9-5.3,6.1-7.9c0.4,1.3,0.9,2.2,1.8,3.1c2.6,3.5,6.1,5.3,10.5,6.1C1675.2,216.4,1674.8,216.8,1674.8,217.3z M1677.9,205
			c-0.4,0-1.3,0-1.8-0.4c-0.4,0-0.9,0-0.9-0.4c0,0,0,0,0.6,0c0.1,0,0.2,0,0.3,0c0.4,0,0.9,0,1.3,0.4c0,0,0,0,0.4,0
			C1677.9,205,1677.9,205,1677.9,205z"/>
		<path fill="#76E0C0" d="M1813.2,232.1c0-0.1,0.1-0.2,0.1-0.4C1813.3,231.9,1813.2,232,1813.2,232.1z"/>
		<path fill="#76E0C0" d="M1936.9,155c-3.1,0-5.7,2.2-6.6,5.3c0,3.1,2.2,5.7,5.3,5.7h0.4c3.1,0,5.7-2.6,5.7-5.7
			c0.9-3.1-1.3-5.3-4.4-5.3H1936.9z"/>
		<path fill="#76E0C0" d="M2086,189.2c-2.2-2.2-5.3-2.2-7.5,0c-8.8,7.5-17.1,15.8-25.9,23.2c-3.9,3.5-7.9,6.6-12.3,9.6
			c3.1-4.8,7.5-9.2,11-14c3.1-3.9,6.1-8.8,6.1-14c0-3.1-1.3-5.7-3.5-7.5c-3.1-1.8-6.1-1.3-8.8-0.4c-4.8,2.2-9.2,5.3-13.2,8.3
			c-2.6,1.8-5.3,3.9-7.9,5.7c0.9-1.8,1.8-3.5,2.6-5.3c0.9-2.6,0.4-5.7-2.2-7.5c-2-1.2-5.4-0.6-7,1.5c-8.9,6.4-17.4,13-27.2,15.6
			c-1.8,0.4-3.5,0.9-5.3,0.9c0,0,0,0,0-0.4c-0.4-3.9-2.2-7.5-5.7-9.6c-1.8-1.3-4.4-2.2-6.6-2.2c0.9-0.4,1.3-1.3,2.2-1.8
			c2.6-1.8,3.5-4.8,2.2-7.5c-1.3-2.6-5.3-3.9-7.5-2.2c-4.7,3.6-8.8,7.2-12.5,11.3c-7.2,5.6-14.6,11.5-21.7,17.2
			c-8.3,7-16.7,14.5-24.5,19.7c-1.3,0.9-3.1,1.8-4.4,1.8c0,0.4,0,0.4,0,0.4c-0.4-0.9,0-1.3,0.4-1.8c0-0.9,0.4-2.2,0.9-3.1
			c0.9-2.6,1.8-4.8,3.5-7c2.6-4.8,4.4-8.8,6.6-13.2c2.6-3.7,5.5-7.7,6.9-11.8c0.6-0.9,0.8-1.8,0.7-2.8c0.6-2.9-0.3-5.6-3.2-6.5
			c-1.9-0.4-4.8,0.6-6.1,2.9c-0.3,0.3-0.6,0.7-0.9,1.1c-16.7,21.9-31.1,45.6-48.2,67.1c-6.6,8.3-13.2,17.5-21.5,23.2
			c-2.2,0.9-4.4,2.2-6.1,2.6c-0.4,0.4-0.9,0.4-1.3,0.9c-0.4,0-0.4,0-0.4,0s0,0-0.4,0c0-0.4-0.4-1.3-0.4-0.9c0-0.4-0.4-0.9-0.4-1.8
			c0,0,0,0,0-0.4c0,0.4,0-0.9-0.4-0.9c0-1.8,0-3.5,0-5.3c0.4-0.9,0.4-1.3,0.4-2.2c0-0.4,0-0.9,0-1.3c0.9-5.7,2.2-11,3.5-16.2
			c3.5-12.3,7.9-24.5,13.2-36.4c11-24.1,24.1-46.9,36.8-70.1c8.8-16.2,18-32.4,27.2-48.2c28.1-2.2,56.1-3.9,84.2-7.5
			c11-1.3,21.9-3.1,32.9-5.3c3.1-0.4,4.8-3.9,3.9-6.6c-0.9-3.1-3.9-4.4-6.6-3.9c-28.1,5.7-57,7.5-85.5,10.1
			c-7.5,0.4-14.5,1.3-21.9,1.8c11-17.5,22.4-34.2,35.5-50c2.2-2.2,2.2-5.7,0-7.9c-1.8-1.8-5.7-2.2-7.5,0
			c-15.8,18.4-28.9,38.6-41.6,59.2c-17.1,1.3-34.6,2.6-51.7,3.9c-10.5,0.9-21,1.8-31.1,2.6c-3.1,0-5.7,2.2-5.7,5.3
			c0,2.6,2.6,5.7,5.7,5.7c25.4-2.2,50.9-4.4,76.3-6.1c-12.7,21-24.1,43-35.9,64c-4.4,8.1-8.8,16.2-13.1,24.4
			c-0.2,0.2-0.4,0.4-0.5,0.6c-6.1,8.3-13.2,16.7-20.2,24.5c-3.5,3.9-6.6,7.5-9.6,11.4c-1.3,1.3-2.6,2.6-3.9,3.9
			c-1.3,1.8-2.6,2.6-3.9,3.5c0,0.4-0.4,0.4-0.9,0.9h-0.4c0,0,0,0-0.4,0c0,0-0.4,0.4-0.9,0.4c0.9-0.4,0,0-0.4,0c0,0,0,0-0.4,0
			c0-0.4,0-0.4,0-0.4s0,0-0.4-0.4c0,0,0,0,0-0.4c0-0.4,0-1.1,0.3-1.8c-0.2,0.3,0.1-1.3,0.1-1.7c0.4-0.9,0.4-1.8,0.9-2.6
			c3.1-10.5,8.8-20.2,12.7-30.7c0.9-2.2-0.9-5.3-2.6-6.1c-2.2-1.3-4.8-0.9-6.6,0.9c-6.6,5.3-11.8,11.8-17.5,17.5
			c-3.1,3.1-6.1,6.1-9.2,8.8c-1.3,1.3-2.6,2.6-4.4,3.5c-0.9,0.9-1.8,1.3-2.2,1.8c-0.4,0-0.4,0-0.4,0c0.4-0.9,0.4-1.3,0.9-2.2
			c1.8-3.9,4.4-7.5,7-10.5c2.2-3.5,5.3-6.6,7.9-9.2c2.6-3.1,5.7-6.1,9.2-8.8c2.2-1.8,3.5-4.8,1.8-7.5c-1.3-2.6-4.8-3.9-7.5-2.2
			c-8.3,6.1-15.8,14.9-21.9,23.2c-3.1,3.9-5.3,7.9-7.5,12.7c-1.8,4.4-1.8,10.5,2.6,14c9.2,7,20.2-5.3,26.7-11.4
			c0.9-0.4,1.3-1.3,2.2-1.8c-0.9,2.2-1.8,4.8-2.6,7c-0.9,4.4-1.3,9.2,0.9,13.6c2.6,4.8,8.8,6.1,14,5.3c4.8-1.3,8.8-5.3,12.3-8.8
			c2.3-3,4.9-6,7.6-9c-1.3,3.3-2.5,6.6-3.6,9.9c-3.5,10.5-6.6,21.9-8.3,33.3c-0.9,6.6-0.9,16.2,4.8,21c8.3,6.6,19.7-1.3,26.7-7
			c7.9-6.6,14-15.3,20.6-23.7c6.4-7.9,12.3-16.1,18-24.3c1.8,5.5,7.9,6.8,13.1,5.1c5.7-1.8,9.6-5.7,14.5-9.2
			c5.3-3.5,10.1-7.5,14.5-11.4c0.1-0.1,0.2-0.2,0.3-0.2c-1.8,7-1.5,14.4,3.2,20c4.8,5.3,12.7,4.8,18.4,2.2c5.7-2.2,10.1-7,14-11.4
			c3.9-3.9,7.5-9.6,9.6-15.3c1.3,0,2.6-0.4,3.5-0.4c5.3-0.4,9.6-2.2,14.5-3.9c1.6-0.8,3.2-1.6,4.8-2.5c-3.8,6.3-7.7,12.5-11.8,18.7
			c-1.3,2.6-0.4,6.1,2.2,7.5c2.6,1.8,5.7,0.4,7.5-1.8c7.5-11,17.5-18.4,27.6-26.3c2.6-1.8,5.3-3.5,7.5-5.7c1.8-1.3,3.9-2.6,5.7-3.9
			c-0.9,1.3-1.8,2.6-2.6,3.5c-3.1,4.8-7,9.2-10.5,14c-3.1,4.4-8.8,14-3.9,18.8c2.6,2.2,4.8,2.6,8.3,2.2c2.2-0.4,3.9-1.8,6.1-2.6
			c5.7-3.5,11-7.9,16.2-12.3c9.2-8.3,18.4-17.1,27.6-25.4C2088.2,194.9,2088.2,191,2086,189.2z M1971.1,217.3
			c-3.1,5.3-6.6,9.6-11,13.2c-1.8,1.8-3.9,3.1-5.7,3.9c-1.3,0.4-2.2,0.4-3.5,0c0,0-0.9,0-1.3-0.4c0.9,0.4-0.4-0.4-0.4-0.4l-0.4-0.9
			c-0.4-0.4-0.4-0.9-0.4-1.3s-0.4-0.4-0.4-0.9c0.4,0.4,0-0.9,0-0.9c0-0.9,0-1.8,0-2.6c0,0.4,0.4-1.8,0.4-1.8
			c0.4-1.3,0.9-2.6,1.3-3.5c0.9-2.6,2.2-4.8,3.9-7c1.8-2.6,3.9-5.3,6.1-7.9c0.4,1.3,0.9,2.2,1.8,3.1c2.6,3.5,6.1,5.3,10.5,6.1
			C1971.6,216.4,1971.1,216.8,1971.1,217.3z M1974.2,205c-0.4,0-1.3,0-1.8-0.4c-0.4,0-0.9,0-0.9-0.4c0,0,0,0,0.6,0
			c0.1,0,0.2,0,0.3,0c0.4,0,0.9,0,1.3,0.4c0,0,0,0,0.4,0C1974.2,205,1974.2,205,1974.2,205z"/>
	</g>
</g>
</svg>
