<?xml version="1.0" encoding="utf-8"?>
<!-- Generator: Adobe Illustrator 18.0.0, SVG Export Plug-In . SVG Version: 6.00 Build 0)  -->
<!DOCTYPE svg PUBLIC "-//W3C//DTD SVG 1.1//EN" "http://www.w3.org/Graphics/SVG/1.1/DTD/svg11.dtd">
<svg version="1.1" id="Layer_1" xmlns="http://www.w3.org/2000/svg" xmlns:xlink="http://www.w3.org/1999/xlink" x="0px" y="0px"
	 viewBox="0 0 521 273" enable-background="new 0 0 521 273" xml:space="preserve">
<g>
	<path fill="#FFFFFF" d="M103.2,177.4c-15.7,4.1-31.6,6.2-47.5,8.3c14.1-24.7,28.4-49.3,42.6-74c15.2-26.5,30.4-53,45.9-79.3
		c2.1-3.9,4.1-7.6,6.5-11.3c0.2-0.5,0.2-0.9,0.2-1.2c13.8-1.2,27.7-2.1,41.5-3.5c1.6-0.2,3-1.4,3-3c0-1.4-1.4-3-3-2.8
		c-27,2.8-54.2,3.5-80.9,8.3c-1.6,0.2-2.5,2.1-2.1,3.5c0.5,1.6,2.1,2.3,3.5,2.1c10.6-1.8,21-3.2,31.4-4.1
		C129.5,46.2,114.7,72,99.7,97.6c-15.2,26.5-30.4,53-45.9,79.5c-1.8,3.2-3.7,6.5-5.5,9.5c-10.1,1.6-20.3,3.2-30.4,5.3
		c-1.6,0.5-3.5,0.9-5.3,1.4c-3.7,0.9-2.1,6.5,1.4,5.5c28.1-7.1,57.2-8.1,85.3-14.5c1.8-0.5,3.7-0.9,5.3-1.4
		C108.3,182,106.7,176.4,103.2,177.4z"/>
	<path fill="#FFFFFF" d="M260.2,87.5c2.8-2.8-0.9-6.9-3.7-4.1c-11.3,10.4-21.4,21.9-30.4,34.1c-1.8,2.5-3.7,5.3-5.5,7.8
		c-0.2,0.5-0.2,0.5-0.7,0.9c-0.2,0.2-0.7,0.5-0.9,0.7c0,0-0.2,0.2-0.5,0.5c-0.2,0-0.2,0.2-0.5,0.2c0.2-0.2-0.5,0-0.5,0.2
		c0-0.2,0-0.5-0.2-0.7c0-0.2,0-0.2,0-0.5c0.5-0.2,0.5-0.7,0.5-0.9c0-0.9,0-1.8,0.5-2.8c0.2-0.5,0.2-0.9,0.2-1.4l0.2-0.7
		c0-0.5,0-0.7,0.5-1.2c0.5-1.4,0.7-2.8,0.9-4.1c0.7-2.5,1.6-4.8,2.5-7.1c2.8-6.9,5.1-13.8,9.2-20.3c2.3-3.2-2.1-6.2-4.4-2.8
		c-2.1,3.3-3.8,6.8-5.3,10.4c-4.6,1.8-9,3.7-13.8,4.6c-3,0.5-6,0.5-8.8-0.5c-0.2-0.2-0.7-0.7-1.2-0.9c0.7-0.7,1.2-1.6,0.7-2.8
		c-0.5-1.4-2.3-2.5-3.7-2.1c-3.2,1.4-6,3.7-8.5,6c-1.9,1.7-3.6,3.7-5.1,5.7c-1.1,1-2.2,1.9-3.2,2.9c-2.1,1.8-4.1,3.5-6.5,5.1
		c1.6-2.5,3.9-4.8,5.8-7.4c1.6-2.1,3.2-4.6,3.2-7.4c0-1.6-0.7-3-1.8-3.9c-1.6-0.9-3.2-0.7-4.6-0.2c-2.5,1.2-4.8,2.8-6.9,4.4
		c-1.4,0.9-2.8,2.1-4.1,3c0.5-0.9,0.9-1.8,1.4-2.8c0.5-1.4,0.2-3-1.2-3.9c-1.1-0.7-3.1-0.2-3.9,1.1c-4.5,3.9-8.9,8.2-13.4,12.1
		c-2.1,1.8-4.1,3.5-6.5,5.1c1.6-2.5,3.9-4.8,5.8-7.4c1.6-2.1,3.2-4.6,3.2-7.4c0-1.6-0.7-3-1.8-3.9c-1.6-0.9-3.2-0.7-4.6-0.2
		c-2.5,1.2-4.8,2.8-6.9,4.4c-1.4,0.9-2.8,2.1-4.1,3c0.5-0.9,0.9-1.8,1.4-2.8c0.5-1.4,0.2-3-1.2-3.9c-1.2-0.7-3.2-0.2-3.9,1.2
		c-3.5,7.1-7.6,13.8-12,20.5c-0.7,1.4-0.2,3.2,1.2,3.9c1.4,0.9,3,0.2,3.9-0.9c3.9-5.8,9.2-9.7,14.5-13.8c1.4-0.9,2.8-1.8,3.9-3
		c0.9-0.7,2.1-1.4,3-2.1c-0.5,0.7-0.9,1.4-1.4,1.8c-1.6,2.5-3.7,4.8-5.5,7.4c-1.6,2.3-4.6,7.4-2.1,9.9c1.4,1.2,2.5,1.4,4.4,1.2
		c1.2-0.2,2.1-0.9,3.2-1.4c3-1.8,5.8-4.1,8.5-6.5c0.5-0.5,1-0.9,1.5-1.4c-1,1.6-2.1,3.2-3.1,4.8c-0.7,1.4-0.2,3.2,1.2,3.9
		c1.4,0.9,3,0.2,3.9-0.9c3.9-5.8,9.2-9.7,14.5-13.8c1.4-0.9,2.8-1.8,3.9-3c0.9-0.7,2.1-1.4,3-2.1c-0.5,0.7-0.9,1.4-1.4,1.8
		c-1.6,2.5-3.7,4.8-5.5,7.4c-1.6,2.3-4.6,7.4-2.1,9.9c1.4,1.2,2.5,1.4,4.4,1.2c1.2-0.2,2.1-0.9,3.2-1.4c1.7-1.1,3.4-2.3,5-3.6
		c0,0.6,0.1,1.2,0.3,1.7c0.7,2.8,3,5.1,5.5,6c5.8,2.3,11.3-1.6,14.3-5.8c2.5-3.2,4.8-7.8,4.6-12.2c5.6,0.5,11.3-1.1,16.4-3.1
		c-0.1,0.2-0.2,0.5-0.3,0.7c-0.9,2.5-2.1,5.1-3.2,7.8c-1.4,3.7-2.5,7.8-3.7,11.8c-0.7,3.2-0.9,6.9,1.8,9.2c1.4,0.9,3.5,0.7,4.8,0.2
		c2.5-0.9,4.4-2.8,6-4.8c1.8-1.8,3-3.9,4.6-5.8c1.6-2.5,3.5-5.1,5.5-7.6C242.4,105.2,250.7,96,260.2,87.5z M194.9,112.8
		c-1.2,2.1-2.8,3.9-4.6,5.1c-0.9,0.7-1.6,1.2-2.5,1.4c-0.2,0-0.2,0-0.2,0c-0.2,0-0.2,0-0.5,0c0,0-0.2,0-0.4,0c0,0,0,0-0.1,0
		c-0.1,0-0.3,0-0.5,0l-0.7-0.2c-0.2-0.2-0.7-0.5-0.7-0.5l-0.2-0.2c0-0.2-0.2-0.2-0.2-0.2l-0.2-0.5c0-0.2-0.2-0.5-0.2-0.7
		c-0.2-0.5,0-1.8,0.2-2.8c0.2-1.4,0.9-2.5,1.6-3.7c0.4-0.6,0.8-1.2,1.3-1.8c2.1-1.9,4.2-3.9,6.3-5.8c0.2,0.2,0.3,0.3,0.5,0.5
		c0.9,0.5,1.8,0.9,2.8,1.4c0.5,0.5,0.5,1.2,0.5,2.1C196.8,109.1,195.9,111,194.9,112.8z"/>
	<path fill="#FFFFFF" d="M331.9,74.3c-0.2,0-0.5-0.2-0.7-0.2c-1.6-0.5-3.2,0.5-3.5,2.1c-0.2,0.7-0.2,1.6,0.2,2.3
		c0.5,0.5,0.9,0.9,1.6,1.2c0.2,0.2,0.5,0.2,0.7,0.2s0.5,0,0.7,0c0.7,0,1.2,0,1.6-0.2c0.5-0.5,1.2-1.2,1.2-1.8
		c0.2-0.7,0.2-1.6-0.2-2.1c0-0.2-0.2-0.5-0.5-0.7C332.8,74.6,332.3,74.3,331.9,74.3z"/>
	<path fill="#FFFFFF" d="M404.9,100.4c1.2-0.9,1.2-3,0-3.9c-1.2-1.2-2.8-1.2-3.9,0c-4.6,3.9-9,8.3-13.6,12.2
		c-2.1,1.8-4.1,3.5-6.5,5.1c1.6-2.5,3.9-4.8,5.8-7.4c1.6-2.1,3.2-4.6,3.2-7.4c0-1.6-0.7-3-1.8-3.9c-1.6-0.9-3.2-0.7-4.6-0.2
		c-2.5,1.2-4.8,2.8-6.9,4.4c-1.4,0.9-2.8,2.1-4.1,3c0.5-0.9,0.9-1.8,1.4-2.8c0.5-1.4,0.2-3-1.2-3.9c-0.8-0.5-1.9-0.4-2.8,0.1
		c-0.1,0-0.3,0.1-0.4,0.1c-4.6,1.8-9,3.7-13.8,4.6c-3,0.5-6,0.5-8.8-0.5c-0.2-0.2-0.7-0.7-1.2-0.9c0.7-0.7,1.2-1.6,0.7-2.8
		c-0.5-1.4-2.3-2.5-3.7-2.1c-3.2,1.4-6,3.7-8.5,6c-2.5,2.3-4.8,5.1-6.5,7.8c-0.9,1.5-1.6,3.1-2,4.7c-0.6,0.7-1.3,1.4-1.9,2
		c-1.4,1.4-2.8,3.2-4.1,4.1c0.5-2.1,1.2-4.1,2.1-6c1.8-5.1,3.9-10.1,6.2-15c0.7-1.6,0.5-3.2-0.9-4.1c-1.4-0.7-3.2-0.2-3.9,1.2
		c-0.3,0.6-0.6,1.1-0.8,1.7c-0.1,0.1-0.2,0.3-0.3,0.4c-8.8,11.5-16.4,24-25.4,35.3c-3.5,4.4-6.9,9.2-11.3,12.2
		c-1.2,0.5-2.3,1.2-3.2,1.4c-0.2,0.2-0.5,0.2-0.7,0.5c-0.2,0-0.2,0-0.2,0s0,0-0.2,0c0-0.2-0.2-0.7-0.2-0.5c0-0.2-0.2-0.5-0.2-0.9
		c0,0,0,0,0-0.2c0,0.2,0-0.5-0.2-0.5c0-0.9,0-1.8,0-2.8c0.2-0.5,0.2-0.7,0.2-1.2c0-0.2,0-0.5,0-0.7c0.5-3,1.2-5.8,1.8-8.5
		c1.8-6.5,4.1-12.9,6.9-19.1c5.8-12.7,12.7-24.7,19.4-36.9c4.6-8.5,9.5-17.1,14.3-25.4c14.8-1.2,29.5-2.1,44.3-3.9
		c5.8-0.7,11.5-1.6,17.3-2.8c1.6-0.2,2.5-2.1,2.1-3.5c-0.5-1.6-2.1-2.3-3.5-2.1c-14.8,3-30,3.9-45,5.3c-3.9,0.2-7.6,0.7-11.5,0.9
		c5.8-9.2,11.8-18,18.7-26.3c1.2-1.2,1.2-3,0-4.1c-0.9-0.9-3-1.2-3.9,0c-8.3,9.7-15.2,20.3-21.9,31.1c-9,0.7-18.2,1.4-27.2,2.1
		c-5.5,0.5-11.1,0.9-16.4,1.4c-1.6,0-3,1.2-3,2.8c0,1.4,1.4,3,3,3c13.4-1.2,26.7-2.3,40.1-3.2c-6.7,11.1-12.7,22.6-18.9,33.7
		c-2.2,4.1-4.5,8.2-6.7,12.4c0,0,0,0,0,0c-4.8,5.3-9.5,11.1-14.1,16.8c-1.6,1.8-2.8,3.9-4.4,5.5c0.5-3.2,0.9-6.5,1.4-9.9
		c0.2-1.8,0.7-3.7-0.7-5.3c-2.5-3.2-7.4,2.3-9.2,3.9c-3.9,3.5-7.4,7.1-11.3,10.6c-0.7,0.5-1.4,0.9-2.1,1.4c0.2-0.5,0.2-0.7,0.5-0.9
		c2.5-4.6,5.5-8.8,8.8-12.7c1.6-1.8,3.2-3.7,5.1-5.3c1.6-1.4,3.5-3,5.5-3.7c3.7-0.9,2.1-6.5-1.4-5.5c-3.2,0.9-6,3-8.3,5.3
		c-2.3,2.1-4.4,4.4-6.5,6.9c-2.1,2.8-4.1,5.5-6,8.3c-1.6,2.8-3.7,5.8-4.1,8.8c-0.2,3,1.8,5.5,4.8,5.3c3.2-0.2,6.2-2.5,8.5-4.6
		c2.5-2.1,4.8-4.4,7.1-6.7c0.9-0.9,2.1-1.8,3-2.8c-0.2,0.7-0.2,1.2-0.2,1.6c-0.2,1.2-0.5,2.1-0.5,3.2c-0.2,1.6-0.5,2.1-0.7,3.2
		c-0.5,2.8-0.2,5.8,2.5,6.7s5.8-1.8,7.6-3.7c2.1-2.1,3.5-4.4,5.1-6.5c0.1-0.2,0.3-0.3,0.4-0.5c-0.8,2-1.5,4-2.2,6
		c-1.8,5.5-3.5,11.5-4.4,17.5c-0.5,3.5-0.5,8.5,2.5,11.1c4.4,3.5,10.4-0.7,14.1-3.7c4.1-3.5,7.4-8.1,10.8-12.4
		c4.2-5.1,7.9-10.5,11.6-15.9c0,0.2-0.1,0.5-0.1,0.7c-0.2,3,1.8,5.8,4.8,5.8c2.5,0.2,4.6-1.6,6.5-3.5c0.5-0.4,1-0.9,1.4-1.3
		c1.1,1.9,2.8,3.4,4.8,4.1c5.8,2.3,11.3-1.6,14.3-5.8c2.5-3.2,4.8-7.8,4.6-12.2c5,0.5,10.2-0.8,14.9-2.5c-2.5,4.5-5.3,8.9-8.2,13.3
		c-0.7,1.4-0.2,3.2,1.2,3.9c1.4,0.9,3,0.2,3.9-0.9c3.9-5.8,9.2-9.7,14.5-13.8c1.4-0.9,2.8-1.8,3.9-3c0.9-0.7,2.1-1.4,3-2.1
		c-0.5,0.7-0.9,1.4-1.4,1.8c-1.6,2.5-3.7,4.8-5.5,7.4c-1.6,2.3-4.6,7.4-2.1,9.9c1.4,1.2,2.5,1.4,4.4,1.2c1.2-0.2,2.1-0.9,3.2-1.4
		c3-1.8,5.8-4.1,8.5-6.5C395.3,109.4,400.1,104.8,404.9,100.4z M342.2,112.8c-1.2,2.1-2.8,3.9-4.6,5.1c-0.9,0.7-1.6,1.2-2.5,1.4
		c-0.2,0-0.2,0-0.2,0c-0.2,0-0.2,0-0.5,0c0,0-0.2,0-0.4,0c0,0,0,0-0.1,0c-0.1,0-0.3,0-0.5,0l-0.7-0.2c-0.2-0.2-0.7-0.5-0.7-0.5
		l-0.2-0.2c0-0.2-0.2-0.2-0.2-0.2l-0.2-0.5c0-0.2-0.2-0.5-0.2-0.7c-0.1-0.3-0.1-0.9,0-1.6c0.1-0.1,0.2-0.2,0.2-0.3
		c3.3-3.9,6.5-7.9,9.8-11.7c0.9,0.4,1.7,0.9,2.6,1.3c0.5,0.5,0.5,1.2,0.5,2.1C344.1,109.1,343.2,111,342.2,112.8z"/>
	<path fill="#FFFFFF" d="M326,140.9c0.2,0,0.5,0,0.7,0c0.7,0,1.2,0,1.6-0.2c0.5-0.5,1.2-1.2,1.2-1.8c0.2-0.7,0.2-1.6-0.2-2.1
		c0-0.2-0.2-0.5-0.5-0.7c-0.2-0.5-0.7-0.7-1.2-0.7c-0.2,0-0.5-0.2-0.7-0.2c-1.6-0.5-3.2,0.5-3.5,2.1c-0.2,0.7-0.2,1.6,0.2,2.3
		c0.5,0.5,0.9,0.9,1.6,1.2C325.5,140.9,325.8,140.9,326,140.9z"/>
	<path fill="#FFFFFF" d="M371.9,157.5c-8.3,6.7-16.8,13.4-25.6,20.1c-0.7,0.5-1.6,1.2-2.3,1.6c1.4-2.3,2.5-4.8,2.8-7.4
		c0.2-3-0.5-5.5-2.8-6.9c-1.6-0.9-3.7-0.9-5.8-1.4c3-3.5,5.8-6.9,8.3-10.6c2.1-3-0.9-5.5-3.9-3.5c-2.5,1.8-4.6,4.4-6.5,7.1
		c-0.2,0.3-0.4,0.5-0.5,0.8c-0.1,0.1-0.1,0.1-0.2,0.2c-3.7,3.9-6.9,8.1-10.4,12.2c-1.8,2.1-3.7,4.1-5.5,6c-1.4,1.4-2.8,3.2-4.1,4.1
		c0.5-2.1,1.2-4.1,2.1-6c1.8-5.1,3.9-10.1,6.2-15c0.7-1.6,0.5-3.2-0.9-4.1c-1.4-0.7-3.2-0.2-3.9,1.2c-3,5.8-5.3,11.8-7.6,17.8
		c-0.7,2.1-1.6,4.4-1.8,6.7c-0.2,3,1.8,5.8,4.8,5.8c2.5,0.2,4.6-1.6,6.5-3.5c2.3-2.1,4.4-4.1,6.5-6.5c2.1-2.5,4.2-5.1,6.4-7.6
		c2.2,0.9,5.7,0.7,7,1.6c0.2,0.2,0.5,0.5,0.2,0.2c0.2,0.5,0.2,0.5,0.2,0.9c-0.2,0.7-0.2,0.9-0.2,0.9c0,0.2,0,0.5,0,0.9
		c-0.2,0.9-0.9,2.3-1.6,3.5c-1.2,2.3-3,4.6-4.8,6.9c-3.9,5.1-9,9.2-13.6,13.8c-0.7,0.7-1.2,1.6-1.2,2.5c0,0.5,0,0.9,0.5,1.6
		c0.5,0.5,0.9,0.7,1.6,0.7c0.9,0.2,1.8-0.2,2.5-0.7c1.2-1.2,2.5-2.1,3.7-3.2c2.8-2.3,5.8-4.4,8.5-6.7c4.4-3.2,8.8-6.7,13.4-10.1
		c8.5-6.5,17.1-13.1,25.4-20.1C378.3,158.9,375.1,154.8,371.9,157.5z"/>
	<path fill="#FFFFFF" d="M507.2,155.7c-0.9,0-1.8,0.5-2.3,1.4c-2.3,3.7-5.5,6.7-8.5,9.7c-1.6,1.4-3.2,2.8-4.8,4.1
		c-1.4,1.4-2.8,2.3-4.4,3.2c-0.2,0-0.7,0.2-0.9,0.2c0-0.5,0-0.7,0-0.9v-0.7c0-0.5,0.2-0.9,0.2-1.4c0.7-1.8,1.6-3.7,2.5-5.3
		c0.7-1.3,1.3-2.6,2.2-3.8c0.3-0.3,0.7-0.6,1-0.8c0.9-0.7,1.2-2.1,0.8-3.1c-0.6-1.8-3-3.1-4.7-1.2c-0.5,0.5-1.1,1.1-1.6,1.7
		c-5.3,4.2-10.7,8.1-16.4,11.7c-3.5,1.8-6.5,3.7-10.1,5.3c-1.2,0.5-2.5,0.9-3.9,1.2c-0.5,0.2-0.9,0.2-1.6,0.2c-0.1,0-0.1,0-0.2,0
		c0-0.2-0.2-0.2-0.2-0.2s0,0,0-0.2c0-0.2,0-0.2,0-0.2c-0.2-0.7,0-1.4,0-1.8c0.5-1.4,1.2-2.8,2.1-4.4c0.3-0.4,0.6-0.8,0.8-1.2
		c0.9-0.8,1.7-1.7,2.6-2.5c0.6,0.5,1.7,0.8,2.6,0.8c3.2-0.2,6.7-2.1,9.5-3.9c2.8-2.1,5.8-5.5,4.1-9c-0.7-1.4-2.3-2.3-3.7-2.3
		c-2.1-0.5-3.9,0.2-6,1.2c-3,1.2-5.8,3.2-7.6,5.5c-2.1,1.9-3.9,3.9-5.3,6c-2.8,2.9-5.6,5.7-8.5,8.5c-2.3,2.3-4.8,4.8-7.6,6.9
		c-2.1,2.1-4.6,3.9-7.4,4.6c-1.4,0.5-2.5,0.5-3.9,0.2c-1.2-0.5-1.6-1.2-2.3-2.3c-1.2-2.3-1.4-5.5-0.9-8.3c1.2-6.5,5.5-12,9.5-16.8
		c4.8-5.8,9.9-11.3,14.1-17.5c1.6-2.5-1.6-5.1-3.9-3.9c-5.1,2.5-9.9,5.3-14.5,8.5c0.7-1.2,1.2-2.5,1.6-3.7
		c10.8-23.5,21.9-46.8,33.7-69.8c0.7-1.4,0.5-3.2-0.9-3.9c-1.4-0.7-3.2-0.5-3.9,0.9c-13.6,26.3-26,53.3-38.3,80
		c-0.9,2.3-1.8,4.4-3,6.5c-2.1,3-3.9,6.2-4.6,9.9c0,0.2,0,0.5,0,0.7c-8.1,18-15.9,35.7-24,53.7c-0.7,1.4-0.5,3,1.2,3.9
		c1.2,0.7,3.2,0.2,3.9-1.2c9.5-21.2,18.9-42.6,28.6-63.9c1.6-2.1,3.7-4.1,5.8-5.8c1.4-1.4,3-2.3,4.4-3.5c-1.4,1.6-2.8,3.2-3.9,4.8
		c-4.4,5.5-8.8,11.1-10.8,18c-1.6,6-0.9,15,5.3,18.4c6.7,3.5,14.1-1.4,18.9-5.8c2.4-2.1,4.7-4.3,7-6.5c0.3,3.2,2.5,5.2,5.9,5.4
		c3.5,0,6.7-1.4,9.7-2.8c3.2-1.6,6.7-3.5,9.7-5.5c2.4-1.4,4.8-2.9,7.1-4.5c-0.1,0.2-0.1,0.4-0.2,0.6c-0.9,3.7,0,9.9,5.1,9.5
		c3.2,0,6-1.8,8.3-3.7c-10.6,18-21.9,36-31.8,54.4c-5.1,8.8-9.7,18-13.8,27.2c-0.7,1.4-0.5,3.2,1.2,3.9c1.2,0.7,3.2,0.5,3.9-0.9
		c11.5-26,26.7-50.3,41.3-74.5c5.3-8.8,10.4-17.5,15.4-26.5C511.3,157.7,509.2,155.4,507.2,155.7z M469.4,157.7h0.2
		c-0.2,0.2-0.7,0.7-1.2,0.9c-1.1,0.7-2.4,1.3-3.5,2c0.1-0.2,0.1-0.3,0.1-0.5C466.6,159.2,467.9,158.4,469.4,157.7z"/>
</g>
</svg>
